<?xml version="1.0" encoding="utf-8"?>
<!-- Generator: Adobe Illustrator 25.3.1, SVG Export Plug-In . SVG Version: 6.00 Build 0)  -->
<svg version="1.1" id="Layer_1" xmlns="http://www.w3.org/2000/svg" xmlns:xlink="http://www.w3.org/1999/xlink" x="0px" y="0px"
	 viewBox="0 0 32 32" style="enable-background:new 0 0 32 32;" xml:space="preserve">
<style type="text/css">
	.st0{fill:#008C28;}
</style>
<path class="st0" d="M28.08,27.58v-9.55c1.09-0.18,1.93-1.13,1.93-2.27v-1.33c0-0.49-0.16-0.95-0.44-1.36L27.2,9.8h-6.38V9.1h4.82V1
	H6.38v8.1h4.82v0.7H4.61l-2.37,3.28c-0.28,0.39-0.44,0.86-0.44,1.36v1.33c0,1.22,0.94,2.2,2.13,2.29v9.53H1V31h30v-3.42H28.08
	L28.08,27.58z M29.32,15.77c0,0.9-0.72,1.62-1.62,1.62c-0.9,0-1.62-0.72-1.62-1.62v-0.99h3.24L29.32,15.77L29.32,15.77z M8.62,18.57
	v9.01H4.63v-9.57c0.61-0.14,1.14-0.53,1.45-1.05c0.4,0.67,1.14,1.12,1.97,1.12s1.56-0.45,1.97-1.12c0.4,0.67,1.14,1.12,1.97,1.12
	s1.56-0.45,1.97-1.12c0.4,0.67,1.14,1.12,1.97,1.12c0.83,0,1.56-0.45,1.97-1.12c0.4,0.67,1.14,1.12,1.97,1.12s1.56-0.45,1.97-1.12
	c0.4,0.67,1.14,1.12,1.97,1.12s1.56-0.45,1.97-1.12c0.36,0.58,0.95,0.99,1.66,1.08v9.54h-3.99v-9.01L8.62,18.57L8.62,18.57z
	 M22.7,19.26v8.33h-6.35v-8.33H22.7z M15.67,19.26v8.33H9.32v-8.33H15.67z M6.42,15.77v-0.99h3.29c-0.03,0.33-0.05,0.66-0.05,0.99
	c0,0.9-0.72,1.62-1.62,1.62C7.15,17.39,6.42,16.66,6.42,15.77z M10.35,15.77c0-0.33,0.02-0.66,0.05-0.99h3.2v0.99
	c0,0.9-0.72,1.62-1.62,1.62C11.08,17.39,10.35,16.66,10.35,15.77z M11.88,9.81v-0.7h8.24v0.71L11.88,9.81L11.88,9.81z M17.51,14.1
	H14.3c0.01-0.27,0.02-0.52,0.05-0.78l0.38-2.82h2.34l0.38,2.82C17.49,13.57,17.5,13.83,17.51,14.1z M14.28,14.79h3.24v0.99
	c0,0.9-0.72,1.62-1.62,1.62c-0.9,0-1.62-0.72-1.62-1.62L14.28,14.79L14.28,14.79z M18.21,15.77v-0.99h3.2
	c0.03,0.33,0.05,0.66,0.05,0.99c0,0.9-0.72,1.62-1.62,1.62C18.95,17.39,18.21,16.66,18.21,15.77z M22.11,14.79h3.29v0.99
	c0,0.9-0.72,1.62-1.62,1.62c-0.9,0-1.62-0.72-1.62-1.62C22.14,15.44,22.13,15.11,22.11,14.79z M26.85,10.5l2.16,3
	c0.13,0.18,0.21,0.39,0.26,0.6h-3.21c-0.02-0.29-0.08-0.58-0.2-0.84l-1.3-2.76H26.85z M23.79,10.5l1.44,3.05
	c0.08,0.17,0.12,0.36,0.14,0.54H22c-0.12-0.77-0.3-1.52-0.58-2.25l-0.51-1.35L23.79,10.5L23.79,10.5z M21.32,14.1H18.2
	c-0.01-0.29-0.02-0.59-0.05-0.88l-0.38-2.72h2.42l0.6,1.59C21.03,12.74,21.21,13.41,21.32,14.1z M7.06,8.42V1.7h17.88v6.72h-4.13
	H11.2H7.06z M11.63,10.5h2.42l-0.38,2.72c-0.04,0.28-0.05,0.59-0.05,0.88H10.5c0.11-0.69,0.28-1.36,0.53-2.01L11.63,10.5z
	 M10.89,10.5l-0.51,1.35c-0.27,0.73-0.47,1.48-0.58,2.25H6.44c0.02-0.19,0.05-0.38,0.14-0.54l1.45-3.05L10.89,10.5L10.89,10.5z
	 M2.8,13.49l2.16-3h2.3l-1.3,2.76c-0.13,0.27-0.18,0.55-0.2,0.84H2.55C2.59,13.88,2.67,13.67,2.8,13.49z M2.49,15.77v-0.99h3.24
	v0.99c0,0.9-0.72,1.62-1.62,1.62C3.22,17.39,2.49,16.66,2.49,15.77z M30.32,30.31H1.7v-2.04h2.24h4.68h14.77h4.68h2.24L30.32,30.31
	L30.32,30.31z M14.87,25.28h-0.69v-1.46h0.69V25.28z M17.83,25.28h-0.69v-1.46h0.69V25.28z M11.1,7.77c-0.8,0-1.45-0.65-1.45-1.45
	h0.69c0,0.42,0.34,0.76,0.76,0.76s0.76-0.35,0.76-0.76s-0.34-0.76-0.76-0.76c-0.8,0-1.45-0.65-1.45-1.45s0.65-1.45,1.45-1.45
	s1.45,0.65,1.45,1.45h-0.69c0-0.42-0.34-0.76-0.76-0.76s-0.76,0.34-0.76,0.76s0.34,0.76,0.76,0.76c0.8,0,1.45,0.65,1.45,1.45
	C12.56,7.12,11.91,7.77,11.1,7.77z M17.96,7.77c0.8,0,1.45-0.65,1.45-1.45V4.11c0-0.8-0.65-1.45-1.45-1.45
	c-0.8,0-1.45,0.65-1.45,1.45v2.22C16.5,7.12,17.16,7.77,17.96,7.77z M17.19,4.11c0-0.42,0.34-0.76,0.76-0.76s0.76,0.34,0.76,0.76
	v2.22c0,0.42-0.34,0.76-0.76,0.76s-0.76-0.35-0.76-0.76V4.11z M20.61,5.55h0.76c0.8,0,1.45-0.65,1.45-1.45s-0.65-1.45-1.45-1.45
	h-1.45v4.77h0.69V5.55z M20.61,3.34h0.76c0.42,0,0.76,0.34,0.76,0.76s-0.34,0.76-0.76,0.76h-0.76V3.34z M13.77,7.43h-0.69V3h0.69
	v1.87h1.53V3h0.69v4.43H15.3V5.56h-1.53V7.43z"/>
</svg>
