<?xml version="1.0" encoding="utf-8"?>
<!-- Generator: Adobe Illustrator 26.3.1, SVG Export Plug-In . SVG Version: 6.00 Build 0)  -->
<svg version="1.1" id="Layer_1" xmlns="http://www.w3.org/2000/svg" xmlns:xlink="http://www.w3.org/1999/xlink" x="0px" y="0px"
	 viewBox="0 0 64 64" style="enable-background:new 0 0 64 64;" xml:space="preserve">
<style type="text/css">
	.st0{fill:#FFFFFF;}
</style>
<g>
	<path class="st0" d="M31.11,11.06l18.15-3.85c1-0.21,2.06,0.03,2.87,0.69c0.81,0.65,1.27,1.63,1.27,2.67v31.97h2.64V10.57
		c0-1.84-0.82-3.56-2.25-4.72s-3.28-1.6-5.08-1.22L29.79,8.64L10.86,4.63C9.06,4.25,7.21,4.7,5.78,5.85
		c-1.43,1.16-2.25,2.88-2.25,4.72v23.57c0,4.36,3.09,8.17,7.35,9.08l20.22,4.29V11.06H31.11z M28.46,44.24l-17.03-3.61
		c-3.05-0.65-5.26-3.38-5.26-6.49V10.57c0-1.04,0.46-2.01,1.27-2.67C8.06,7.4,8.82,7.14,9.6,7.14c0.24,0,0.48,0.03,0.72,0.08
		l18.15,3.85v33.17H28.46z"/>
	<path class="st0" d="M57.26,49.2v3.64c0,2.27-1.85,4.12-4.12,4.12H32.75c-2.27,0-4.12-1.85-4.12-4.12V49.2h-2.64v3.64
		c0,3.73,3.03,6.76,6.76,6.76h20.39c3.73,0,6.76-3.03,6.76-6.76V49.2H57.26z"/>
	<polygon class="st0" points="41.62,23.69 41.62,48.64 35.84,42.85 33.97,44.72 42.94,53.69 51.91,44.72 50.05,42.85 44.27,48.64 
		44.27,23.69 	"/>
	
		<rect x="16.69" y="9.33" transform="matrix(0.2316 -0.9728 0.9728 0.2316 -2.3668 30.322)" class="st0" width="2.64" height="14.66"/>
	
		<rect x="16.7" y="17.5" transform="matrix(0.2316 -0.9728 0.9728 0.2316 -10.316 36.6093)" class="st0" width="2.64" height="14.66"/>
	
		<rect x="16.69" y="25.68" transform="matrix(0.2316 -0.9728 0.9728 0.2316 -18.2705 42.8854)" class="st0" width="2.64" height="14.66"/>
</g>
</svg>
