<?xml version="1.0" encoding="utf-8"?>
<!-- Generator: Adobe Illustrator 25.3.1, SVG Export Plug-In . SVG Version: 6.00 Build 0)  -->
<svg version="1.1" id="Layer_1" xmlns="http://www.w3.org/2000/svg" xmlns:xlink="http://www.w3.org/1999/xlink" x="0px" y="0px"
	 viewBox="0 0 24 24" style="enable-background:new 0 0 24 24;" xml:space="preserve">
<style type="text/css">
	.st0{fill:#008C28;}
</style>
<path class="st0" d="M0.75,0.75v14.26H11.3c0.01,0.27,0.11,0.53,0.28,0.73l3.44,3.82v3.7h6.04v-8.24h2.18V0.75H0.75L0.75,0.75z
	 M20.56,22.73h-5.01v-3.38l-3.58-3.97c-0.11-0.12-0.16-0.28-0.15-0.44s0.07-0.31,0.2-0.41c0.12-0.11,0.27-0.16,0.43-0.15
	s0.31,0.08,0.41,0.2l2.17,2.4v-6.22c0-0.33,0.27-0.61,0.61-0.61s0.61,0.27,0.61,0.61v5.71h0.52V14.3c0-0.29,0.24-0.53,0.53-0.53
	s0.53,0.24,0.53,0.53v2.18h0.52v-2.05c0-0.26,0.2-0.47,0.47-0.47c0.26,0,0.46,0.2,0.46,0.47v2.05h0.52v-1.81
	c0-0.22,0.18-0.39,0.4-0.39s0.39,0.18,0.39,0.39L20.56,22.73L20.56,22.73z M15.63,9.65c-0.61,0-1.11,0.5-1.11,1.11v0.08h-1.93V9.3
	h6.32v1.55h-2.16v-0.08C16.74,10.15,16.24,9.65,15.63,9.65z M16.74,13.29h0.23c-0.08,0.03-0.17,0.06-0.23,0.1V13.29z M16.74,12.78
	v-1.41h2.67V8.79h-7.35v2.58h2.45v1.41H3.67v-9.8h16.66v9.8H16.74z M22.74,14.5h-1.7c-0.09-0.41-0.43-0.73-0.87-0.73
	c-0.2,0-0.37,0.08-0.53,0.19c-0.16-0.3-0.48-0.5-0.85-0.5c-0.25,0-0.47,0.1-0.65,0.26c-0.13-0.2-0.34-0.34-0.57-0.41h3.28V2.47H3.16
	V13.3h11.36v2.35l-1.27-1.4c-0.2-0.22-0.47-0.35-0.77-0.37c-0.3-0.01-0.59,0.09-0.8,0.28c-0.11,0.1-0.19,0.21-0.26,0.34H1.28V1.28
	h21.47L22.74,14.5L22.74,14.5z M2.47,10.54H1.95V5.23h0.52V10.54z M22.06,12.35h-0.52v-1.99h0.52V12.35z M22.06,8.88h-0.52V6.89
	h0.52V8.88z M22.06,5.41h-0.52V3.42h0.52V5.41z M12.07,4.39h7.35v0.52h-7.35V4.39z M12.07,5.75h7.35v0.52h-7.35V5.75z M12.07,7.11
	h7.35v0.52h-7.35V7.11z M6.52,10.85h2.74v0.52H6.52V10.85z M10.56,7.77H9.52V5.72H6.26v2.06H5.23v1.37H4.55v0.52h0.68h5.32h0.68
	V9.15h-0.68V7.77H10.56z M6.78,6.23h2.24v1.55H6.78V6.23L6.78,6.23z M10.04,9.15h-4.3V8.29h0.52h3.26h0.52
	C10.04,8.29,10.04,9.15,10.04,9.15z"/>
</svg>
