<?xml version="1.0" encoding="utf-8"?>
<!-- Generator: Adobe Illustrator 25.3.1, SVG Export Plug-In . SVG Version: 6.00 Build 0)  -->
<svg version="1.1" id="Layer_1" xmlns="http://www.w3.org/2000/svg" xmlns:xlink="http://www.w3.org/1999/xlink" x="0px" y="0px"
	 viewBox="0 0 24 24" style="enable-background:new 0 0 24 24;" xml:space="preserve">
<style type="text/css">
	.st0{fill:#008C28;}
</style>
<path class="st0" d="M15.16,5.87h-0.52V3.85h0.52V5.87z M12.96,3.01h-0.52v2.02h0.52C12.96,5.03,12.96,3.01,12.96,3.01z M10.75,3.85
	h-0.52v2.02h0.52V3.85z M21.24,12.56v4.28h0.44c0.86,0,1.58,0.7,1.58,1.58v1.12c0,0.98-0.79,1.77-1.77,1.77h-1.3
	c-0.26,0-0.49-0.16-0.59-0.38h-1.53l0.16,1.49h-6.31c-0.11,0.47-0.55,0.83-1.06,0.83H3.87c-0.61,0-1.1-0.49-1.1-1.09
	s0.49-1.09,1.1-1.09h0.58c-0.66-0.41-1.16-1.02-1.42-1.76H2.08c-0.73,0.01-1.33-0.59-1.33-1.32c0-0.74,0.59-1.33,1.33-1.33h2.63
	c0.02-1.98,1.64-3.58,3.62-3.58c0.27,0,0.52-0.08,0.76-0.22c0.21-0.14,0.37-0.36,0.47-0.59c-0.74-0.78-1.19-1.82-1.19-2.97l0,0V9.28
	V9.01V8.68V8.05v-2.4c-0.5-0.41-0.8-1.03-0.8-1.68c0-1.2,0.98-2.18,2.18-2.18h0.7c0.56-0.66,1.37-1.04,2.24-1.04
	c0.88,0,1.69,0.38,2.24,1.05h0.71c1.2,0,2.17,0.98,2.17,2.18c0,0.65-0.29,1.27-0.8,1.68v2.4v0.61v0.34v0.26v0.02l0,0
	c0,1.15-0.45,2.19-1.18,2.97c0.1,0.23,0.26,0.45,0.47,0.59c0.22,0.15,0.48,0.22,0.76,0.22c2,0,3.62,1.63,3.62,3.62v0.14h0.04v-4.28
	h-0.89c-0.62,0-1.12-0.51-1.12-1.12V8.06c0-0.62,0.51-1.13,1.12-1.13h2.29c0.62,0,1.12,0.51,1.12,1.13v3.37
	c0,0.62-0.51,1.12-1.12,1.12L21.24,12.56L21.24,12.56z M2.88,18.79c-0.04-0.21-0.07-0.43-0.07-0.66v-0.96H2.09
	c-0.45,0-0.81,0.37-0.81,0.81c0,0.45,0.37,0.81,0.81,0.81H2.88L2.88,18.79z M15.98,15.69h0.82v-2.12c-0.21-0.03-0.41-0.1-0.61-0.2
	c-0.07,0.06-0.14,0.12-0.21,0.18C15.98,13.55,15.98,15.69,15.98,15.69z M16.51,8.32C16.5,8.31,16.49,8.3,16.48,8.3
	c-0.25-0.16-0.52-0.31-0.79-0.44c-0.04-0.02-0.07-0.04-0.12-0.05c0.11,0.46,0.47,0.83,0.94,0.92V8.32L16.51,8.32z M8.77,5.31
	l0.11,0.07V7.7c0.07-0.04,0.15-0.08,0.23-0.12c0.05-0.04,0.12-0.07,0.19-0.1c0.23-0.12,0.47-0.23,0.71-0.33l0.29-0.12v0.02
	c1.55-0.53,3.23-0.53,4.76,0V7.03l0.29,0.12c0,0,0,0,0.01,0c0.25,0.11,0.5,0.21,0.74,0.34c0.04,0.02,0.08,0.04,0.12,0.07
	c0.09,0.05,0.18,0.1,0.27,0.14V5.38l0.1-0.07c0.44-0.32,0.69-0.81,0.69-1.35c0-0.92-0.74-1.66-1.66-1.66h-0.96l-0.08-0.11
	c-0.46-0.61-1.16-0.94-1.91-0.94s-1.46,0.35-1.91,0.94L10.69,2.3H9.73c-0.91,0-1.66,0.74-1.66,1.66C8.09,4.51,8.34,4.99,8.77,5.31z
	 M9.7,7.86C9.47,7.97,9.25,8.09,9.03,8.23C8.98,8.26,8.92,8.29,8.89,8.32v0.41c0.46-0.1,0.83-0.46,0.94-0.92
	C9.78,7.83,9.73,7.85,9.7,7.86z M12.7,13.1c2.1,0,3.81-1.71,3.81-3.81V9.25c-0.82-0.12-1.45-0.82-1.48-1.67
	c-1.5-0.53-3.16-0.53-4.66,0c-0.04,0.86-0.67,1.55-1.5,1.67v0.04l0,0C8.89,11.39,10.6,13.1,12.7,13.1z M15.77,13.07
	c-0.13-0.12-0.24-0.28-0.33-0.44c-0.75,0.61-1.7,0.98-2.74,0.98s-1.99-0.37-2.74-0.98c-0.09,0.16-0.2,0.3-0.33,0.44
	c0.86,0.71,1.93,1.11,3.07,1.11S14.9,13.78,15.77,13.07z M12.7,14.69c-0.99,0-1.94-0.28-2.77-0.78v1.79h5.55v-1.79
	C14.64,14.41,13.69,14.69,12.7,14.69z M8.59,15.69H9.4v-2.14c-0.07-0.05-0.14-0.12-0.21-0.18c-0.19,0.1-0.39,0.16-0.61,0.2v2.12
	C8.58,15.69,8.59,15.69,8.59,15.69z M5.24,16.66H7.8l0.1-0.96h0.17v-2.08C6.5,13.75,5.26,15.05,5.24,16.66z M6.24,21.05h2.27
	c1.61,0,2.92-1.31,2.92-2.92v-0.96H3.32v0.96C3.32,19.74,4.63,21.05,6.24,21.05z M11.45,22.15c0-0.32-0.26-0.58-0.58-0.58H8.51H6.25
	H3.88c-0.32,0-0.58,0.26-0.58,0.58s0.26,0.58,0.58,0.58h7C11.19,22.72,11.45,22.47,11.45,22.15z M17.66,21.89l-0.63-5.68H8.36
	l-0.05,0.45h4.34c0.73,0,1.33,0.59,1.33,1.33s-0.59,1.33-1.33,1.33h-0.94c-0.27,0.73-0.77,1.35-1.43,1.75h0.58
	c0.52,0,0.94,0.36,1.07,0.84L17.66,21.89L17.66,21.89z M12.66,18.79c0.45,0,0.81-0.37,0.81-0.81c0-0.45-0.37-0.81-0.81-0.81h-0.72
	v0.96c0,0.22-0.03,0.45-0.07,0.66H12.66L12.66,18.79z M19.35,17.67c0-0.45,0.37-0.82,0.81-0.83V16.7c0-1.62-1.26-2.95-2.85-3.08
	v2.08h0.17L18,20.4h1.58c0.02-0.04,0.04-0.06,0.06-0.1c-0.13-0.13-0.21-0.31-0.21-0.51c0-0.17,0.07-0.33,0.17-0.45
	c-0.14-0.14-0.22-0.34-0.22-0.56c0-0.2,0.08-0.38,0.2-0.52C19.45,18.11,19.35,17.9,19.35,17.67z M20.19,17.35
	c-0.18,0-0.32,0.14-0.32,0.32S20.01,18,20.19,18h0.46v0.52h-0.46c-0.15,0-0.28,0.12-0.28,0.28s0.12,0.28,0.28,0.28h0.46v0.52h-0.46
	c-0.12,0-0.22,0.1-0.22,0.22s0.1,0.22,0.22,0.22h0.46v0.52h-0.46c-0.07,0-0.13,0.05-0.13,0.13s0.05,0.13,0.13,0.13h1.3
	c0.69,0,1.26-0.56,1.26-1.26v-1.12c0-0.59-0.47-1.06-1.06-1.06L20.19,17.35L20.19,17.35z M22.12,12.05c0.34,0,0.61-0.28,0.61-0.61
	V8.06c0-0.34-0.28-0.61-0.61-0.61h-2.29c-0.34,0-0.61,0.28-0.61,0.61v3.37c0,0.34,0.28,0.61,0.61,0.61h2.29
	C22.12,12.04,22.12,12.05,22.12,12.05z M6.55,10.36C6.91,10,7.32,9.59,7.32,8.78H6.8c0,0.6-0.28,0.89-0.61,1.22
	c-0.36,0.37-0.77,0.78-0.77,1.58h0.52C5.94,10.99,6.23,10.7,6.55,10.36z M4.07,12.06c0.36-0.37,0.76-0.78,0.76-1.58H4.32
	c0,0.6-0.29,0.89-0.61,1.22c-0.36,0.37-0.76,0.78-0.76,1.58h0.52C3.46,12.68,3.74,12.4,4.07,12.06z M11.95,9.25l0.31-0.41
	c-0.81-0.61-1.66-0.26-1.99,0l0.32,0.4C10.58,9.24,11.26,8.73,11.95,9.25z M14.82,9.24l0.32-0.4c-0.34-0.27-1.18-0.61-1.99,0
	l0.31,0.41C14.14,8.73,14.79,9.22,14.82,9.24z"/>
</svg>
