<?xml version="1.0" encoding="utf-8"?>
<!-- Generator: Adobe Illustrator 25.3.1, SVG Export Plug-In . SVG Version: 6.00 Build 0)  -->
<svg version="1.1" id="Layer_1" xmlns="http://www.w3.org/2000/svg" xmlns:xlink="http://www.w3.org/1999/xlink" x="0px" y="0px"
	 viewBox="0 0 24 24" style="enable-background:new 0 0 24 24;" xml:space="preserve">
<style type="text/css">
	.st0{fill:#FFFFFF;}
</style>
<path class="st0" d="M12.01,0.75L0.75,6.38v16.88h1.37h6.41h0.52h5.9h0.52h6.41h1.37V6.38L12.01,0.75z M8.54,22.72h-5.9v-5.9h1.32
	v3.33l1.63,0.82l1.64-0.82v-3.34h1.32v5.9H8.54V22.72z M4.48,19.84v-3.02h2.23v3.02L5.6,20.4L4.48,19.84z M8.54,16.31H7.22H3.96
	H2.64v-5.9h1.32v3.34l1.64,0.82l1.64-0.82v-3.34h1.32L8.54,16.31L8.54,16.31z M4.48,13.44v-3.02h2.23v3.02L5.6,13.99L4.48,13.44z
	 M14.95,22.72h-5.9v-5.9h1.32v3.33l1.64,0.82l1.64-0.82v-3.34h1.32v5.9h-0.02V22.72z M10.89,19.84v-3.02h2.23v3.02l-1.11,0.56
	L10.89,19.84z M14.95,16.31h-1.32h-3.26H9.05v-5.9h1.32v3.34l1.64,0.82l1.64-0.82v-3.34h1.32L14.95,16.31L14.95,16.31z M10.89,13.44
	v-3.02h2.23v3.02l-1.11,0.55L10.89,13.44z M21.38,22.72h-5.9v-5.9h1.32v3.33l1.64,0.82l1.64-0.82v-3.34h1.32v5.9h-0.02V22.72z
	 M17.3,19.84v-3.02h2.23v3.02l-1.11,0.56L17.3,19.84z M21.38,16.31h-1.32H16.8h-1.32v-5.9h1.32v3.34l1.64,0.82l1.64-0.82v-3.34h1.32
	L21.38,16.31L21.38,16.31z M17.3,13.44v-3.02h2.23v3.02l-1.11,0.55L17.3,13.44z M21.38,9.9h-1.32H16.8h-1.32h-0.52h-1.32h-3.26H9.05
	H8.53H7.22H3.95H2.63V9.27h18.73V9.9H21.38z M21.38,8.75H2.65V8.12h18.73V8.75z M22.75,22.72h-0.86v-5.9V16.3V9.9V7.61H2.13V9.9
	v6.41v0.52v5.9H1.28V6.7l10.73-5.37L22.74,6.7L22.75,22.72L22.75,22.72z M6.2,10.93H5v1.89h1.2V10.93z M5.68,12.3H5.51v-0.86h0.17
	C5.68,11.44,5.68,12.3,5.68,12.3z M12.61,10.93h-1.2v1.89h1.2V10.93z M12.1,12.3h-0.17v-0.86h0.17V12.3z M9.02,6.53h6.02V3.95H9.02
	V6.53z M9.53,4.47h4.98v1.55H9.53C9.53,6.02,9.53,4.47,9.53,4.47z M19.02,10.93h-1.2v1.89h1.2V10.93z M18.51,12.3h-0.17v-0.86h0.17
	V12.3z M6.2,17.35H5v1.89h1.2V17.35z M5.68,18.72H5.51v-0.86h0.17C5.68,17.86,5.68,18.72,5.68,18.72z M12.61,17.35h-1.2v1.89h1.2
	V17.35z M12.1,18.72h-0.17v-0.86h0.17V18.72z M19.02,17.35h-1.2v1.89h1.2V17.35z M18.51,18.72h-0.17v-0.86h0.17V18.72z"/>
</svg>
