<?xml version="1.0" encoding="utf-8"?>
<!-- Generator: Adobe Illustrator 25.3.1, SVG Export Plug-In . SVG Version: 6.00 Build 0)  -->
<svg version="1.1" id="Layer_1" xmlns="http://www.w3.org/2000/svg" xmlns:xlink="http://www.w3.org/1999/xlink" x="0px" y="0px"
	 viewBox="0 0 24 24" style="enable-background:new 0 0 24 24;" xml:space="preserve">
<style type="text/css">
	.st0{fill:#E90000;}
</style>
<path class="st0" d="M20.44,13.52l0.08-0.16l-1.07-0.61l-0.08-0.58c0.43-0.35,0.71-0.84,0.8-1.41c0.05,0.01,0.11,0.02,0.16,0.02
	c0.69,0,1.07-0.51,1.18-0.83l0.04-0.11l-0.59-1.03c0.06-0.24,0.09-0.49,0.09-0.74c0-1.7-1.38-3.07-3.07-3.07s-3.07,1.38-3.07,3.07
	c0,0.25,0.03,0.49,0.09,0.74l-0.58,1.02L14.38,9.8l0.12-0.23l-1.07-0.61l-0.09-0.7c0.28-0.2,0.53-0.46,0.71-0.78
	c0.61-0.2,1.08-0.67,1.28-1.28l0.04-0.11L15.31,6c-0.18-0.34-0.28-0.73-0.28-1.14V3.82c0-1.69-1.38-3.07-3.07-3.07
	S8.9,2.13,8.9,3.82v1.05c0,0.41-0.09,0.8-0.28,1.14l-0.05,0.1l0.04,0.11C8.82,6.83,9.3,7.3,9.9,7.5c0.18,0.31,0.41,0.58,0.7,0.78
	l-0.1,0.7L9.43,9.59L9.5,9.74L8.98,8.82c0.06-0.24,0.09-0.49,0.09-0.74c0-1.7-1.38-3.07-3.07-3.07S2.93,6.39,2.93,8.08
	c0,0.25,0.03,0.5,0.09,0.74L2.43,9.85l0.04,0.11c0.12,0.35,0.55,0.91,1.34,0.82c0.07,0.57,0.37,1.06,0.8,1.41l-0.08,0.58l-1.07,0.61
	l0.08,0.16l-2.79,1.51v8.2h2.37h0.26h5.2h0.26h2.39v-2.77h1.5v2.77h2.39h0.26h5.2h0.26h2.38v-8.2L20.44,13.52z M19.85,13.56
	l-0.73,1.5l-0.78-0.76l0.93-1.07L19.85,13.56z M17.63,14.3l-0.78,0.76l-0.74-1.5l0.58-0.32L17.63,14.3z M17.03,12.83l0.04-0.35
	c0.28,0.12,0.59,0.2,0.92,0.2c0.32,0,0.63-0.08,0.91-0.2l0.05,0.35L18,13.93L17.03,12.83z M17.62,15.03l0.37-0.37l0.37,0.37
	l0.53,4.88L18,21.09l-0.89-1.18L17.62,15.03z M19.69,10.46c-0.01,0.94-0.76,1.69-1.69,1.69c-0.94,0-1.7-0.77-1.7-1.7V8.82
	c0.57-0.07,2.04-0.29,2.96-0.93c0.16,0.16,0.42,0.44,0.55,0.74L19.69,10.46z M15.56,8.87l-0.03-0.1c-0.06-0.23-0.1-0.47-0.1-0.7
	c0-1.41,1.15-2.56,2.56-2.56s2.56,1.15,2.56,2.56c0,0.24-0.04,0.47-0.1,0.7l-0.03,0.1l0.56,1.01c-0.09,0.16-0.31,0.43-0.76,0.38
	l0.1-1.69L20.3,8.52c-0.23-0.62-0.85-1.12-0.87-1.14l-0.17-0.13L19.1,7.38c-0.97,0.79-3.07,0.97-3.09,0.97l-0.23,0.02v1.89
	c-0.47,0.05-0.69-0.22-0.78-0.38L15.56,8.87z M15.11,10.66L15.11,10.66c0.2,0.09,0.42,0.13,0.69,0.11c0.08,0.57,0.37,1.06,0.8,1.41
	l-0.08,0.58l-1.07,0.61l0.08,0.16l-1.98,1.07l-0.56-2.67l0.23,0.23l0.92-1.88L15.11,10.66z M13.81,9.78l-0.73,1.5l-0.78-0.76
	l0.93-1.06L13.81,9.78z M11.95,10.13L11,9.04l0.07-0.52c0.28,0.11,0.58,0.18,0.89,0.18s0.61-0.06,0.89-0.17l0.07,0.51L11.95,10.13z
	 M14.29,6.78c0.01-0.04,0.01-0.06,0.01-0.1c0.06-0.03,0.12-0.05,0.18-0.09C14.41,6.67,14.36,6.73,14.29,6.78z M14.34,6.03V5.09
	c0.11,0.13,0.17,0.29,0.17,0.47S14.44,5.9,14.34,6.03z M9.43,6.6c0.05,0.04,0.12,0.06,0.18,0.09c0.01,0.04,0,0.06,0.01,0.1
	C9.55,6.73,9.49,6.67,9.43,6.6z M9.39,5.57c0-0.2,0.07-0.37,0.2-0.49L9.57,6.05C9.47,5.91,9.39,5.74,9.39,5.57z M9.83,4.18
	L9.76,4.36C9.63,4.4,9.51,4.47,9.4,4.55V3.82c0-1.41,1.15-2.57,2.56-2.57s2.56,1.15,2.56,2.57v0.74c-0.1-0.07-0.22-0.13-0.35-0.18
	c-0.22-0.2-0.43-0.45-0.61-0.74L13.4,3.38l-0.23,0.18c-0.87,0.68-2.03,0.95-3.13,0.68L9.83,4.18z M10.28,7.17
	c-0.13-0.26-0.2-0.55-0.2-0.85V4.93c0.02-0.05,0.04-0.09,0.06-0.13c1.09,0.21,2.22-0.04,3.12-0.65c0.16,0.24,0.35,0.46,0.56,0.64
	v1.54c0,0.29-0.07,0.59-0.2,0.85C13.3,7.81,12.66,8.2,11.95,8.2C11.24,8.19,10.61,7.8,10.28,7.17z M10.66,9.46l0.93,1.07l-0.78,0.76
	l-0.74-1.5L10.66,9.46z M9.55,9.85l0.02,0.02L9.54,9.88L9.55,9.85z M9.79,10.34l0.89,1.82l0.25-0.25l-0.52,2.68l-1.97-1.07
	l0.08-0.16l-1.07-0.61l-0.08-0.58c0.43-0.35,0.71-0.84,0.8-1.41c0.05,0.01,0.11,0.02,0.17,0.02c0.13,0,0.25-0.02,0.36-0.05l0,0
	l0.05-0.02c0.03-0.01,0.05-0.02,0.08-0.03L9.79,10.34z M5.99,14.68l0.37,0.37l0.53,4.88l-0.9,1.17L5.1,19.92l0.53-4.88L5.99,14.68z
	 M5.99,13.92l-0.95-1.09l0.04-0.35c0.29,0.12,0.59,0.2,0.91,0.2c0.32,0,0.63-0.08,0.92-0.2l0.05,0.35L5.99,13.92z M6.34,14.3
	l0.93-1.07l0.58,0.32l-0.73,1.5L6.34,14.3z M3.76,8.36v1.89c-0.46,0.06-0.69-0.22-0.78-0.38l0.56-1.01l-0.02-0.1
	c-0.06-0.23-0.1-0.46-0.1-0.7c0-1.41,1.15-2.56,2.56-2.56s2.56,1.15,2.56,2.56c0,0.24-0.04,0.47-0.1,0.7l-0.03,0.1l0.56,1.01
	c-0.09,0.16-0.31,0.43-0.76,0.38l0.1-1.69L8.3,8.51C8.06,7.9,7.45,7.4,7.42,7.37L7.26,7.24L7.1,7.36C6.13,8.15,4.03,8.33,4.01,8.33
	L3.76,8.36z M4.28,10.45V8.83c0.57-0.07,2.04-0.3,2.96-0.93C7.4,8.06,7.66,8.33,7.79,8.64l-0.11,1.83c-0.01,0.94-0.77,1.69-1.7,1.69
	C5.05,12.16,4.28,11.4,4.28,10.45z M4.7,13.23l0.93,1.07l-0.78,0.76l-0.73-1.5L4.7,13.23z M10.72,22.72H9.1v-6.73H8.59v6.73h-5.2
	v-6.73H2.87v6.73H1.25v-7.38l2.5-1.35l0.95,1.95l0.33-0.32l-0.48,4.46l1.43,1.88l1.43-1.88l-0.48-4.46l0.33,0.32l0.95-1.95l2.5,1.35
	L10.72,22.72L10.72,22.72z M12.73,19.94h-1.51v-2.49l0.76,1.4l0.75-1.4V19.94z M12.73,15.03v1.33l-0.76,1.41l-0.75-1.39v-1.34
	l-0.35-0.19l0.69-3.58l0.38-0.37l0.37,0.37l0.76,3.58L12.73,15.03z M22.72,22.72h-1.61v-6.73h-0.52v6.73h-5.21v-6.73h-0.52v6.73
	h-1.61v-7.38l2.5-1.35l0.95,1.95l0.33-0.32l-0.48,4.46l1.43,1.88l1.43-1.88l-0.48-4.46l0.33,0.32l0.95-1.95l2.5,1.35L22.72,22.72
	L22.72,22.72z"/>
</svg>
