<?xml version="1.0" encoding="utf-8"?>
<!-- Generator: Adobe Illustrator 25.3.1, SVG Export Plug-In . SVG Version: 6.00 Build 0)  -->
<svg version="1.1" id="Layer_1" xmlns="http://www.w3.org/2000/svg" xmlns:xlink="http://www.w3.org/1999/xlink" x="0px" y="0px"
	 viewBox="0 0 32 32" style="enable-background:new 0 0 32 32;" xml:space="preserve">
<style type="text/css">
	.st0{fill:#E90000;}
</style>
<path class="st0" d="M29.32,14.13c-0.31-2.26-1.2-4.4-2.58-6.22l1.19-1.19l-2.64-2.64L24.1,5.27C22.26,3.88,20.12,3,17.87,2.68V1
	h-3.74v1.68c-2.26,0.31-4.4,1.2-6.22,2.58L6.72,4.07L4.07,6.72l1.19,1.19C3.88,9.74,3,11.87,2.68,14.13H1v3.74h1.68
	c0.31,2.26,1.2,4.4,2.58,6.22l-1.19,1.19l2.64,2.64l1.19-1.19c1.83,1.38,3.96,2.26,6.22,2.58V31h3.74v-1.68
	c2.26-0.31,4.4-1.2,6.22-2.58l1.19,1.19l2.64-2.64l-1.19-1.19c1.38-1.83,2.26-3.97,2.58-6.22H31v-3.74h-1.68V14.13z M25.28,4.99
	l1.73,1.73l-1.73,1.73l-1.73-1.73L25.28,4.99z M14.78,1.65h2.44v2.44h-2.44C14.78,4.09,14.78,1.65,14.78,1.65z M4.99,6.72l1.73-1.73
	l1.73,1.73L6.72,8.44L4.99,6.72z M1.65,17.22v-2.44h2.44v2.44H1.65z M6.72,27.01l-1.73-1.73l1.73-1.73l1.73,1.73L6.72,27.01z
	 M17.22,30.35h-2.44v-2.44h2.44V30.35z M27.01,25.28l-1.73,1.73l-1.73-1.73l1.73-1.73L27.01,25.28z M26.27,23.64l-0.99-0.99
	l-2.64,2.64l0.99,0.99c-1.7,1.26-3.68,2.08-5.77,2.39v-1.4h-3.74v1.4c-2.09-0.3-4.07-1.12-5.77-2.39l0.99-0.99L6.7,22.65l-0.99,0.99
	c-1.26-1.7-2.08-3.68-2.39-5.77h1.42v-3.74h-1.4c0.3-2.09,1.12-4.07,2.39-5.77l0.99,0.99l2.64-2.64L8.37,5.72
	c1.7-1.26,3.68-2.08,5.77-2.39v1.4h3.74v-1.4c2.09,0.3,4.07,1.12,5.77,2.39l-0.99,0.99l2.64,2.64l0.99-0.99
	c1.26,1.7,2.08,3.68,2.39,5.77h-1.4v3.74h1.4C28.36,19.96,27.54,21.94,26.27,23.64z M30.35,17.22h-2.44v-2.44h2.44V17.22z M16,6.64
	c-5.16,0-9.37,4.2-9.37,9.37s4.2,9.37,9.37,9.37s9.37-4.2,9.37-9.37S21.16,6.64,16,6.64z M13.88,7.55
	c-0.85,0.79-1.56,2.03-2.05,3.59C10.82,11,9.92,10.8,9.17,10.57C10.36,9.11,12,8.03,13.88,7.55z M8.78,11.13
	c0.79,0.27,1.78,0.49,2.88,0.65c-0.3,1.17-0.47,2.49-0.5,3.9H7.29C7.36,13.99,7.89,12.43,8.78,11.13z M7.29,16.32h3.87
	c0.03,1.41,0.2,2.73,0.5,3.9c-1.11,0.16-2.09,0.38-2.88,0.65C7.89,19.57,7.36,18.01,7.29,16.32z M9.18,21.43
	c0.74-0.23,1.65-0.42,2.66-0.57c0.48,1.56,1.19,2.81,2.05,3.59C12,23.97,10.36,22.89,9.18,21.43z M15.68,24.68
	c-1.3-0.22-2.46-1.73-3.16-3.91c0.99-0.11,2.06-0.17,3.16-0.19V24.68z M15.68,19.94c-1.17,0.01-2.3,0.09-3.35,0.21
	c-0.31-1.15-0.49-2.45-0.52-3.82h3.87C15.68,16.33,15.68,19.94,15.68,19.94z M15.68,15.68h-3.87c0.03-1.37,0.21-2.67,0.52-3.82
	c1.05,0.12,2.18,0.19,3.35,0.21V15.68z M15.68,11.41c-1.11-0.01-2.17-0.08-3.16-0.19c0.7-2.18,1.86-3.69,3.16-3.91V11.41z
	 M16.32,7.32c1.3,0.22,2.46,1.73,3.16,3.91c-0.99,0.11-2.06,0.17-3.16,0.19V7.32z M16.32,12.06c1.17-0.01,2.3-0.09,3.35-0.21
	c0.31,1.15,0.49,2.45,0.52,3.82h-3.87V12.06z M16.32,16.32h3.87c-0.03,1.37-0.21,2.67-0.52,3.82c-1.05-0.12-2.18-0.19-3.35-0.21
	C16.32,19.93,16.32,16.32,16.32,16.32z M16.32,24.68v-4.09c1.11,0.01,2.17,0.08,3.16,0.19C18.78,22.95,17.63,24.46,16.32,24.68z
	 M18.11,24.45c0.85-0.79,1.56-2.03,2.05-3.59c1.01,0.14,1.91,0.34,2.66,0.57C21.63,22.89,19.99,23.97,18.11,24.45z M23.22,20.87
	c-0.79-0.27-1.78-0.49-2.88-0.65c0.3-1.17,0.47-2.49,0.5-3.9h3.87C24.64,18.01,24.1,19.57,23.22,20.87z M24.7,15.68h-3.87
	c-0.03-1.41-0.2-2.73-0.5-3.9c1.11-0.16,2.09-0.38,2.88-0.65C24.1,12.43,24.64,13.99,24.7,15.68z M20.16,11.14
	c-0.48-1.56-1.19-2.81-2.05-3.59c1.88,0.47,3.52,1.55,4.7,3.02C22.06,10.81,21.17,11.01,20.16,11.14z"/>
</svg>
