<?xml version="1.0" encoding="utf-8"?>
<!-- Generator: Adobe Illustrator 25.3.1, SVG Export Plug-In . SVG Version: 6.00 Build 0)  -->
<svg version="1.1" id="Layer_1" xmlns="http://www.w3.org/2000/svg" xmlns:xlink="http://www.w3.org/1999/xlink" x="0px" y="0px"
	 viewBox="0 0 32 32" style="enable-background:new 0 0 32 32;" xml:space="preserve">
<style type="text/css">
	.st0{fill:#E90000;}
</style>
<path class="st0" d="M31,1h-3.85v6.35l-0.04,0.03C24.42,3.91,20.4,1.92,16,1.92c-6.11,0-11.58,4.04-13.42,9.84H1v6.85v0.35v3.42
	h1.29c0.16,0.94,0.98,1.66,1.97,1.66c0.05,0,0.11-0.01,0.16-0.02c2.45,3.53,6.4,5.75,10.67,6.03V31h5.07h0.68h4.39h0.68H31v-3.01
	c0-0.82-0.44-1.55-1.14-1.93c0.16-0.29,0.27-0.61,0.27-0.97c0-1.09-0.88-1.98-1.96-2c1.25-2.14,1.91-4.58,1.91-7.08
	c0-0.5-0.04-1-0.08-1.49h1C31,14.52,31,1,31,1z M27.15,8.16v5.66h-3.32v-3.54L27.15,8.16z M1.7,12.45h8.47v5.82H1.7V12.45z
	 M1.7,21.68v-2.73h9.16v-3.82h2.07l2.74,2.7v3.85h-0.71c-0.16-0.94-0.98-1.66-1.97-1.66s-1.8,0.72-1.97,1.66H6.24
	c-0.16-0.94-0.98-1.66-1.97-1.66s-1.8,0.72-1.97,1.66C2.3,21.68,1.7,21.68,1.7,21.68z M14.3,22.02c0,0.72-0.59,1.32-1.32,1.32
	s-1.32-0.6-1.32-1.32s0.59-1.32,1.32-1.32S14.3,21.29,14.3,22.02z M4.27,23.34c-0.72,0-1.32-0.6-1.32-1.32s0.59-1.32,1.32-1.32
	s1.32,0.6,1.32,1.32S4.99,23.34,4.27,23.34z M20.17,30.3h-4.38v-2.33c0-0.6,0.37-1.13,0.91-1.37c0.35,0.29,0.8,0.48,1.28,0.48
	c0.49,0,0.93-0.18,1.28-0.48c0.54,0.25,0.91,0.77,0.91,1.37C20.17,27.97,20.17,30.3,20.17,30.3z M16.67,25.08
	c0-0.72,0.59-1.32,1.32-1.32s1.32,0.6,1.32,1.32s-0.59,1.32-1.32,1.32C17.25,26.39,16.67,25.8,16.67,25.08z M25.24,30.3h-4.38V29
	c0-0.6,0.37-1.13,0.91-1.37c0.35,0.29,0.8,0.48,1.28,0.48c0.49,0,0.93-0.18,1.28-0.48c0.54,0.25,0.91,0.77,0.91,1.37
	C25.24,29,25.24,30.3,25.24,30.3z M21.73,26.1c0-0.72,0.59-1.32,1.32-1.32s1.32,0.6,1.32,1.32s-0.59,1.32-1.32,1.32
	S21.73,26.83,21.73,26.1z M25.31,27.47c-0.15-0.16-0.32-0.29-0.52-0.39c0.03-0.05,0.06-0.1,0.08-0.16c0.48-0.38,0.92-0.82,1.34-1.26
	c0.05,0.14,0.1,0.27,0.16,0.38C25.84,26.35,25.45,26.87,25.31,27.47z M30.31,27.98v2.33h-4.38v-2.33c0-0.6,0.37-1.13,0.91-1.37
	c0.35,0.29,0.8,0.48,1.28,0.48c0.49,0,0.93-0.18,1.28-0.48C29.95,26.84,30.31,27.36,30.31,27.98z M29.43,25.08
	c0,0.72-0.59,1.32-1.32,1.32s-1.32-0.6-1.32-1.32s0.59-1.32,1.32-1.32C28.85,23.76,29.43,24.35,29.43,25.08z M27.24,23.29
	c-0.56,0.27-0.97,0.81-1.08,1.44c-0.35,0.4-0.72,0.78-1.13,1.14c-0.12-0.99-0.95-1.77-1.98-1.77c-1.11,0-2.01,0.9-2.01,2.01
	c0,0.36,0.1,0.69,0.27,0.97c-0.19,0.11-0.37,0.24-0.52,0.39c-0.14-0.6-0.52-1.13-1.07-1.43c0.16-0.29,0.27-0.61,0.27-0.97
	c0-1.11-0.9-2.01-2.01-2.01s-2.01,0.9-2.01,2.01c0,0.36,0.1,0.69,0.27,0.97c-0.69,0.38-1.14,1.11-1.14,1.93v1.36
	c-3.97-0.27-7.63-2.31-9.96-5.53c0.57-0.27,0.98-0.81,1.09-1.45h4.78c0.16,0.94,0.98,1.66,1.97,1.66s1.8-0.72,1.97-1.66h1.4v-4.82
	l-3.14-3.1h-2.35v-2.69H3.31C5.11,6.35,10.27,2.6,16,2.6c4.16,0,7.98,1.88,10.53,5.14l-2.69,1.71V6.91l-4,2.55V6.91L15.15,9.9v4.61
	h4h0.69h3.32h0.69h3.32h0.69h1.47C29.38,15,29.42,15.5,29.42,16C29.4,18.6,28.65,21.12,27.24,23.29z M23.15,8.16v1.73v3.92h-3.32
	v-3.54L23.15,8.16z M19.15,8.16v1.73v3.92h-3.32v-3.54L19.15,8.16z M30.31,13.81h-2.47v-4.5h2.47V13.81z M30.31,8.63h-2.47V6.92V1.7
	h2.47V8.63z M25.92,12.46h-0.69v-1.47h0.69V12.46z M21.92,12.46h-0.69v-1.47h0.69V12.46z M17.91,12.46h-0.69v-1.47h0.69V12.46z"/>
</svg>
