<?xml version="1.0" encoding="utf-8"?>
<!-- Generator: Adobe Illustrator 25.3.1, SVG Export Plug-In . SVG Version: 6.00 Build 0)  -->
<svg version="1.1" id="Layer_1" xmlns="http://www.w3.org/2000/svg" xmlns:xlink="http://www.w3.org/1999/xlink" x="0px" y="0px"
	 viewBox="0 0 32 32" style="enable-background:new 0 0 32 32;" xml:space="preserve">
<style type="text/css">
	.st0{fill:#E90000;}
</style>
<path class="st0" d="M27.25,18.03l0.11-0.22L25.93,17l-0.1-0.77c0.57-0.46,0.95-1.12,1.06-1.88c0.07,0.01,0.15,0.02,0.22,0.02
	c0.92,0,1.42-0.68,1.57-1.11l0.05-0.15l-0.78-1.37c0.08-0.32,0.12-0.65,0.12-0.99c0-2.26-1.84-4.09-4.09-4.09s-4.09,1.84-4.09,4.09
	c0,0.33,0.04,0.66,0.12,0.99l-0.77,1.36l-0.07-0.03l0.16-0.31l-1.43-0.81l-0.12-0.93c0.38-0.27,0.71-0.62,0.94-1.04
	c0.81-0.27,1.44-0.9,1.71-1.71l0.05-0.14L20.42,8c-0.24-0.46-0.37-0.97-0.37-1.52V5.1c0-2.26-1.84-4.1-4.09-4.1s-4.09,1.84-4.09,4.1
	v1.4c0,0.55-0.12,1.06-0.37,1.52l-0.06,0.13l0.05,0.14C11.76,9.11,12.4,9.73,13.2,10c0.24,0.42,0.55,0.77,0.93,1.04L14,11.97
	l-1.43,0.81l0.1,0.21l-0.7-1.23c0.08-0.32,0.12-0.65,0.12-0.99c0-2.26-1.84-4.09-4.09-4.09s-4.1,1.84-4.1,4.09
	c0,0.33,0.04,0.67,0.12,0.99l-0.78,1.37l0.05,0.15c0.16,0.47,0.74,1.21,1.79,1.09c0.1,0.76,0.49,1.41,1.06,1.88l-0.1,0.77
	l-1.43,0.81l0.11,0.22L1,20.06V31h3.16h0.35h6.94h0.35h3.19v-3.69h2V31h3.19h0.35h6.94h0.35H31V20.06L27.25,18.03z M26.47,18.08
	l-0.98,2l-1.04-1.02l1.24-1.42L26.47,18.08z M23.51,19.06l-1.04,1.02l-0.98-2l0.77-0.43L23.51,19.06z M22.7,17.1l0.06-0.47
	c0.38,0.16,0.78,0.27,1.22,0.27c0.43,0,0.84-0.1,1.22-0.27l0.06,0.47l-1.27,1.46L22.7,17.1z M23.49,20.04l0.49-0.49l0.49,0.49
	l0.71,6.5l-1.19,1.57l-1.19-1.57L23.49,20.04z M26.25,13.95c-0.01,1.25-1.02,2.25-2.26,2.25c-1.25,0-2.27-1.02-2.27-2.27v-2.17
	c0.76-0.09,2.72-0.39,3.95-1.24c0.22,0.21,0.56,0.58,0.73,0.99L26.25,13.95z M20.74,11.83l-0.04-0.14c-0.08-0.3-0.13-0.62-0.13-0.93
	c0-1.88,1.53-3.41,3.41-3.41s3.41,1.53,3.41,3.41c0,0.32-0.05,0.63-0.13,0.93l-0.04,0.14l0.75,1.34c-0.12,0.21-0.41,0.58-1.02,0.51
	l0.14-2.26l-0.03-0.07c-0.31-0.82-1.13-1.49-1.16-1.52l-0.22-0.17l-0.22,0.17c-1.29,1.05-4.09,1.29-4.12,1.29l-0.31,0.03v2.52
	c-0.62,0.07-0.92-0.29-1.04-0.5L20.74,11.83z M20.15,14.21L20.15,14.21c0.26,0.12,0.56,0.17,0.92,0.14c0.1,0.76,0.49,1.41,1.06,1.88
	L22.03,17l-1.43,0.81l0.11,0.22l-2.64,1.43l-0.75-3.56l0.31,0.3l1.23-2.51L20.15,14.21z M18.41,13.04l-0.98,2l-1.04-1.02l1.24-1.42
	L18.41,13.04z M15.93,13.51l-1.27-1.46l0.09-0.69c0.37,0.15,0.77,0.24,1.19,0.24c0.41,0,0.82-0.08,1.19-0.23l0.09,0.68L15.93,13.51z
	 M19.05,9.04c0.01-0.05,0.01-0.08,0.01-0.13c0.08-0.04,0.16-0.07,0.24-0.12C19.22,8.89,19.15,8.98,19.05,9.04z M19.12,8.04V6.78
	c0.15,0.17,0.23,0.39,0.23,0.63C19.35,7.66,19.26,7.87,19.12,8.04z M12.57,8.8c0.07,0.05,0.16,0.08,0.24,0.12
	c0.01,0.05,0,0.08,0.01,0.13C12.73,8.98,12.65,8.89,12.57,8.8z M12.52,7.42c0-0.26,0.1-0.49,0.26-0.66l-0.02,1.3
	C12.62,7.88,12.52,7.66,12.52,7.42z M13.11,5.58l-0.09,0.24c-0.18,0.05-0.34,0.14-0.49,0.25V5.09c0-1.88,1.53-3.42,3.41-3.42
	s3.41,1.53,3.41,3.42v0.99c-0.14-0.1-0.29-0.17-0.47-0.24c-0.3-0.27-0.57-0.6-0.81-0.99l-0.2-0.34l-0.31,0.24
	c-1.16,0.91-2.71,1.27-4.17,0.9L13.11,5.58z M13.71,9.56c-0.17-0.35-0.27-0.74-0.27-1.13V6.58c0.03-0.06,0.05-0.12,0.08-0.18
	c1.45,0.28,2.96-0.05,4.16-0.87c0.22,0.32,0.47,0.61,0.74,0.85v2.05c0,0.39-0.09,0.78-0.27,1.13c-0.43,0.84-1.28,1.36-2.23,1.36
	C14.99,10.92,14.14,10.4,13.71,9.56z M14.22,12.61l1.24,1.42l-1.04,1.02l-0.98-2L14.22,12.61z M12.73,13.13l0.02,0.03l-0.03,0.01
	L12.73,13.13z M13.05,13.78l1.19,2.43l0.34-0.33l-0.69,3.58l-2.63-1.42l0.11-0.22l-1.43-0.81l-0.1-0.77
	c0.57-0.46,0.95-1.12,1.06-1.88c0.07,0.01,0.15,0.02,0.22,0.02c0.17,0,0.33-0.03,0.48-0.07l0,0l0.06-0.02
	c0.04-0.01,0.07-0.03,0.11-0.04L13.05,13.78z M7.98,19.57l0.49,0.49l0.71,6.5l-1.19,1.57L6.8,26.56l0.71-6.5L7.98,19.57z
	 M7.98,18.56L6.71,17.1l0.06-0.47c0.38,0.16,0.78,0.27,1.22,0.27c0.43,0,0.84-0.1,1.22-0.27l0.06,0.47L7.98,18.56z M8.45,19.06
	l1.24-1.42l0.77,0.43l-0.98,2L8.45,19.06z M5.02,11.15v2.52c-0.62,0.08-0.92-0.29-1.04-0.5l0.75-1.34L4.7,11.69
	c-0.08-0.3-0.13-0.61-0.13-0.93c0-1.88,1.53-3.41,3.41-3.41s3.41,1.53,3.41,3.41c0,0.32-0.05,0.63-0.13,0.93l-0.04,0.14l0.75,1.34
	c-0.12,0.21-0.42,0.58-1.02,0.51l0.14-2.26l-0.03-0.07c-0.31-0.82-1.13-1.49-1.16-1.52L9.68,9.65L9.46,9.82
	c-1.29,1.05-4.09,1.29-4.12,1.29L5.02,11.15z M5.71,13.94v-2.17c0.76-0.09,2.72-0.39,3.95-1.24c0.22,0.21,0.56,0.58,0.73,0.99
	l-0.15,2.44c-0.01,1.25-1.02,2.25-2.26,2.25C6.73,16.22,5.71,15.2,5.71,13.94z M6.27,17.64l1.24,1.42l-1.04,1.02l-0.98-2L6.27,17.64
	z M14.29,30.29h-2.15v-8.97h-0.69v8.97H4.51v-8.97H3.82v8.97H1.67v-9.84l3.34-1.8l1.27,2.6l0.44-0.43l-0.64,5.95l1.91,2.5l1.91-2.5
	l-0.64-5.95l0.44,0.43l1.27-2.6l3.33,1.8L14.29,30.29L14.29,30.29z M16.98,26.59h-2.01v-3.32l1.01,1.86l1-1.87V26.59z M16.98,20.04
	v1.77l-1.01,1.88l-1-1.85v-1.79L14.5,19.8l0.92-4.77l0.5-0.49l0.5,0.49l1.01,4.77L16.98,20.04z M30.29,30.29h-2.15v-8.97h-0.69v8.97
	h-6.94v-8.97h-0.69v8.97h-2.15v-9.84l3.33-1.8l1.27,2.6l0.44-0.43l-0.64,5.95l1.91,2.5l1.91-2.5l-0.64-5.95l0.44,0.43l1.27-2.6
	l3.33,1.8L30.29,30.29L30.29,30.29z"/>
</svg>
