<?xml version="1.0" encoding="utf-8"?>
<!-- Generator: Adobe Illustrator 25.3.1, SVG Export Plug-In . SVG Version: 6.00 Build 0)  -->
<svg version="1.1" id="Layer_1" xmlns="http://www.w3.org/2000/svg" xmlns:xlink="http://www.w3.org/1999/xlink" x="0px" y="0px"
	 viewBox="0 0 512 512" style="enable-background:new 0 0 512 512;" xml:space="preserve">
<path d="M436,288.48l1.76-3.52L414.88,272l-1.6-12.32c9.12-7.36,15.2-17.92,16.96-30.08c1.12,0.16,2.4,0.32,3.52,0.32
	c14.72,0,22.72-10.88,25.12-17.76l0.8-2.4l-12.48-21.92c1.28-5.12,1.92-10.4,1.92-15.84c0-36.16-29.44-65.44-65.44-65.44
	S318.24,136,318.24,172c0,5.28,0.64,10.56,1.92,15.84l-12.32,21.76l-1.12-0.48l2.56-4.96L286.4,191.2l-1.92-14.88
	c6.08-4.32,11.36-9.92,15.04-16.64c12.96-4.32,23.04-14.4,27.36-27.36l0.8-2.24l-0.96-2.08c-3.84-7.36-5.92-15.52-5.92-24.32V81.6
	c0-36.16-29.44-65.6-65.44-65.6s-65.44,29.44-65.44,65.6V104c0,8.8-1.92,16.96-5.92,24.32l-0.96,2.08l0.8,2.24
	c4.32,13.12,14.56,23.04,27.36,27.36c3.84,6.72,8.8,12.32,14.88,16.64L224,191.52l-22.88,12.96l1.6,3.36l-11.2-19.68
	c1.28-5.12,1.92-10.4,1.92-15.84c0-36.16-29.44-65.44-65.44-65.44s-65.6,29.44-65.6,65.44c0,5.28,0.64,10.72,1.92,15.84
	l-12.48,21.92l0.8,2.4c2.56,7.52,11.84,19.36,28.64,17.44c1.6,12.16,7.84,22.56,16.96,30.08l-1.6,12.32l-22.88,12.96l1.76,3.52
	L16,320.96V496h50.56h5.6H183.2h5.6h51.04v-59.04h32V496h51.04h5.6h111.04h5.6H496V320.96L436,288.48z M423.52,289.28l-15.68,32
	l-16.64-16.32l19.84-22.72L423.52,289.28z M376.16,304.96l-16.64,16.32l-15.68-32l12.32-6.88L376.16,304.96z M363.2,273.6l0.96-7.52
	c6.08,2.56,12.48,4.32,19.52,4.32c6.88,0,13.44-1.6,19.52-4.32l0.96,7.52l-20.32,23.36L363.2,273.6z M375.84,320.64l7.84-7.84
	l7.84,7.84l11.36,104l-19.04,25.12l-19.04-25.12L375.84,320.64z M420,223.2c-0.16,20-16.32,36-36.16,36
	c-20,0-36.32-16.32-36.32-36.32v-34.72c12.16-1.44,43.52-6.24,63.2-19.84c3.52,3.36,8.96,9.28,11.68,15.84L420,223.2z
	 M331.84,189.28l-0.64-2.24c-1.28-4.8-2.08-9.92-2.08-14.88c0-30.08,24.48-54.56,54.56-54.56s54.56,24.48,54.56,54.56
	c0,5.12-0.8,10.08-2.08,14.88l-0.64,2.24l12,21.44c-1.92,3.36-6.56,9.28-16.32,8.16l2.24-36.16l-0.48-1.12
	c-4.96-13.12-18.08-23.84-18.56-24.32l-3.52-2.72l-3.52,2.72c-20.64,16.8-65.44,20.64-65.92,20.64l-4.96,0.48v40.32
	c-9.92,1.12-14.72-4.64-16.64-8L331.84,189.28z M322.4,227.36L322.4,227.36c4.16,1.92,8.96,2.72,14.72,2.24
	c1.6,12.16,7.84,22.56,16.96,30.08l-1.6,12.32l-22.88,12.96l1.76,3.52l-42.24,22.88l-12-56.96l4.96,4.8l19.68-40.16L322.4,227.36z
	 M294.56,208.64l-15.68,32l-16.64-16.32l19.84-22.72L294.56,208.64z M254.88,216.16l-20.32-23.36l1.44-11.04
	c5.92,2.4,12.32,3.84,19.04,3.84c6.56,0,13.12-1.28,19.04-3.68l1.44,10.88L254.88,216.16z M304.8,144.64
	c0.16-0.8,0.16-1.28,0.16-2.08c1.28-0.64,2.56-1.12,3.84-1.92C307.52,142.24,306.4,143.68,304.8,144.64z M305.92,128.64v-20.16
	c2.4,2.72,3.68,6.24,3.68,10.08C309.6,122.56,308.16,125.92,305.92,128.64z M201.12,140.8c1.12,0.8,2.56,1.28,3.84,1.92
	c0.16,0.8,0,1.28,0.16,2.08C203.68,143.68,202.4,142.24,201.12,140.8z M200.32,118.72c0-4.16,1.6-7.84,4.16-10.56l-0.32,20.8
	C201.92,126.08,200.32,122.56,200.32,118.72z M209.76,89.28l-1.44,3.84c-2.88,0.8-5.44,2.24-7.84,4V81.44
	c0-30.08,24.48-54.72,54.56-54.72S309.6,51.2,309.6,81.44v15.84c-2.24-1.6-4.64-2.72-7.52-3.84c-4.8-4.32-9.12-9.6-12.96-15.84
	l-3.2-5.44L280.96,76c-18.56,14.56-43.36,20.32-66.72,14.4L209.76,89.28z M219.36,152.96c-2.72-5.6-4.32-11.84-4.32-18.08v-29.6
	c0.48-0.96,0.8-1.92,1.28-2.88c23.2,4.48,47.36-0.8,66.56-13.92c3.52,5.12,7.52,9.76,11.84,13.6v32.8c0,6.24-1.44,12.48-4.32,18.08
	c-6.88,13.44-20.48,21.76-35.68,21.76C239.84,174.72,226.24,166.4,219.36,152.96z M227.52,201.76l19.84,22.72l-16.64,16.32
	l-15.68-32L227.52,201.76z M203.68,210.08l0.32,0.48l-0.48,0.16L203.68,210.08z M208.8,220.48l19.04,38.88l5.44-5.28l-11.04,57.28
	l-42.08-22.72l1.76-3.52l-22.88-12.96l-1.6-12.32c9.12-7.36,15.2-17.92,16.96-30.08c1.12,0.16,2.4,0.32,3.52,0.32
	c2.72,0,5.28-0.48,7.68-1.12l0,0l0.96-0.32c0.64-0.16,1.12-0.48,1.76-0.64L208.8,220.48z M127.68,313.12l7.84,7.84l11.36,104
	l-19.04,25.12l-19.04-25.12l11.36-104L127.68,313.12z M127.68,296.96l-20.32-23.36l0.96-7.52c6.08,2.56,12.48,4.32,19.52,4.32
	c6.88,0,13.44-1.6,19.52-4.32l0.96,7.52L127.68,296.96z M135.2,304.96l19.84-22.72l12.32,6.88l-15.68,32L135.2,304.96z M80.32,178.4
	v40.32c-9.92,1.28-14.72-4.64-16.64-8l12-21.44l-0.48-2.24c-1.28-4.8-2.08-9.76-2.08-14.88c0-30.08,24.48-54.56,54.56-54.56
	s54.56,24.48,54.56,54.56c0,5.12-0.8,10.08-2.08,14.88l-0.64,2.24l12,21.44c-1.92,3.36-6.72,9.28-16.32,8.16l2.24-36.16l-0.48-1.12
	c-4.96-13.12-18.08-23.84-18.56-24.32l-3.52-2.88l-3.52,2.72c-20.64,16.8-65.44,20.64-65.92,20.64L80.32,178.4z M91.36,223.04
	v-34.72c12.16-1.44,43.52-6.24,63.2-19.84c3.52,3.36,8.96,9.28,11.68,15.84l-2.4,39.04c-0.16,20-16.32,36-36.16,36
	C107.68,259.52,91.36,243.2,91.36,223.04z M100.32,282.24l19.84,22.72l-16.64,16.32l-15.68-32L100.32,282.24z M228.64,484.64h-34.4
	V341.12H183.2v143.52H72.16V341.12H61.12v143.52h-34.4V327.2l53.44-28.8l20.32,41.6l7.04-6.88l-10.24,95.2l30.56,40l30.56-40
	l-10.24-95.2l7.04,6.88l20.32-41.6l53.28,28.8L228.64,484.64L228.64,484.64z M271.68,425.44h-32.16v-53.12l16.16,29.76l16-29.92
	V425.44z M271.68,320.64v28.32l-16.16,30.08l-16-29.6V320.8l-7.52-4l14.72-76.32l8-7.84l8,7.84l16.16,76.32L271.68,320.64z
	 M484.64,484.64h-34.4V341.12H439.2v143.52H328.16V341.12h-11.04v143.52h-34.4V327.2L336,298.4l20.32,41.6l7.04-6.88l-10.24,95.2
	l30.56,40l30.56-40L404,333.12l7.04,6.88l20.32-41.6l53.28,28.8L484.64,484.64L484.64,484.64z"/>
</svg>
