<?xml version="1.0" encoding="utf-8"?>
<!-- Generator: Adobe Illustrator 25.3.1, SVG Export Plug-In . SVG Version: 6.00 Build 0)  -->
<svg version="1.1" id="Layer_1" xmlns="http://www.w3.org/2000/svg" xmlns:xlink="http://www.w3.org/1999/xlink" x="0px" y="0px"
	 viewBox="0 0 512 512" style="enable-background:new 0 0 512 512;" xml:space="preserve">
<path d="M496,16h-61.6v101.6l-0.64,0.48C390.72,62.56,326.4,30.72,256,30.72c-97.76,0-185.28,64.64-214.72,157.44H16v109.6v5.6
	v54.72h20.64c2.56,15.04,15.68,26.56,31.52,26.56c0.8,0,1.76-0.16,2.56-0.32c39.2,56.48,102.4,92,170.72,96.48V496h81.12h10.88
	h70.24h10.88H496v-48.16c0-13.12-7.04-24.8-18.24-30.88c2.56-4.64,4.32-9.76,4.32-15.52c0-17.44-14.08-31.68-31.36-32
	c20-34.24,30.56-73.28,30.56-113.28c0-8-0.64-16-1.28-23.84h16C496,232.32,496,16,496,16z M434.4,130.56v90.56h-53.12v-56.64
	L434.4,130.56z M27.2,199.2h135.52v93.12H27.2V199.2z M27.2,346.88V303.2h146.56v-61.12h33.12l43.84,43.2v61.6h-11.36
	c-2.56-15.04-15.68-26.56-31.52-26.56s-28.8,11.52-31.52,26.56H99.84c-2.56-15.04-15.68-26.56-31.52-26.56s-28.8,11.52-31.52,26.56
	C36.8,346.88,27.2,346.88,27.2,346.88z M228.8,352.32c0,11.52-9.44,21.12-21.12,21.12s-21.12-9.6-21.12-21.12
	s9.44-21.12,21.12-21.12S228.8,340.64,228.8,352.32z M68.32,373.44c-11.52,0-21.12-9.6-21.12-21.12s9.44-21.12,21.12-21.12
	s21.12,9.6,21.12,21.12S79.84,373.44,68.32,373.44z M322.72,484.8h-70.08v-37.28c0-9.6,5.92-18.08,14.56-21.92
	c5.6,4.64,12.8,7.68,20.48,7.68c7.84,0,14.88-2.88,20.48-7.68c8.64,4,14.56,12.32,14.56,21.92
	C322.72,447.52,322.72,484.8,322.72,484.8z M266.72,401.28c0-11.52,9.44-21.12,21.12-21.12s21.12,9.6,21.12,21.12
	s-9.44,21.12-21.12,21.12C276,422.24,266.72,412.8,266.72,401.28z M403.84,484.8h-70.08V464c0-9.6,5.92-18.08,14.56-21.92
	c5.6,4.64,12.8,7.68,20.48,7.68c7.84,0,14.88-2.88,20.48-7.68c8.64,4,14.56,12.32,14.56,21.92C403.84,464,403.84,484.8,403.84,484.8
	z M347.68,417.6c0-11.52,9.44-21.12,21.12-21.12s21.12,9.6,21.12,21.12s-9.44,21.12-21.12,21.12S347.68,429.28,347.68,417.6z
	 M404.96,439.52c-2.4-2.56-5.12-4.64-8.32-6.24c0.48-0.8,0.96-1.6,1.28-2.56c7.68-6.08,14.72-13.12,21.44-20.16
	c0.8,2.24,1.6,4.32,2.56,6.08C413.44,421.6,407.2,429.92,404.96,439.52z M484.96,447.68v37.28h-70.08v-37.28
	c0-9.6,5.92-18.08,14.56-21.92c5.6,4.64,12.8,7.68,20.48,7.68c7.84,0,14.88-2.88,20.48-7.68
	C479.2,429.44,484.96,437.76,484.96,447.68z M470.88,401.28c0,11.52-9.44,21.12-21.12,21.12s-21.12-9.6-21.12-21.12
	s9.44-21.12,21.12-21.12C461.6,380.16,470.88,389.6,470.88,401.28z M435.84,372.64c-8.96,4.32-15.52,12.96-17.28,23.04
	c-5.6,6.4-11.52,12.48-18.08,18.24c-1.92-15.84-15.2-28.32-31.68-28.32c-17.76,0-32.16,14.4-32.16,32.16
	c0,5.76,1.6,11.04,4.32,15.52c-3.04,1.76-5.92,3.84-8.32,6.24c-2.24-9.6-8.32-18.08-17.12-22.88c2.56-4.64,4.32-9.76,4.32-15.52
	c0-17.76-14.4-32.16-32.16-32.16s-32.16,14.4-32.16,32.16c0,5.76,1.6,11.04,4.32,15.52c-11.04,6.08-18.24,17.76-18.24,30.88v21.76
	c-63.52-4.32-122.08-36.96-159.36-88.48c9.12-4.32,15.68-12.96,17.44-23.2h76.48c2.56,15.04,15.68,26.56,31.52,26.56
	s28.8-11.52,31.52-26.56h22.4v-77.12l-50.24-49.6h-37.6v-43.04H52.96C81.76,101.6,164.32,41.6,256,41.6
	c66.56,0,127.68,30.08,168.48,82.24l-43.04,27.36v-40.64l-64,40.8v-40.8L242.4,158.4v73.76h64h11.04h53.12h11.04h53.12h11.04h23.52
	c0.8,7.84,1.44,15.84,1.44,23.84C470.4,297.6,458.4,337.92,435.84,372.64z M370.4,130.56v27.68v62.72h-53.12v-56.64L370.4,130.56z
	 M306.4,130.56v27.68v62.72h-53.12v-56.64L306.4,130.56z M484.96,220.96h-39.52v-72h39.52V220.96z M484.96,138.08h-39.52v-27.36
	V27.2h39.52V138.08z M414.72,199.36h-11.04v-23.52h11.04V199.36z M350.72,199.36h-11.04v-23.52h11.04V199.36z M286.56,199.36h-11.04
	v-23.52h11.04V199.36z"/>
</svg>
