<?xml version="1.0" encoding="utf-8"?>
<!-- Generator: Adobe Illustrator 25.3.1, SVG Export Plug-In . SVG Version: 6.00 Build 0)  -->
<svg version="1.1" id="Layer_1" xmlns="http://www.w3.org/2000/svg" xmlns:xlink="http://www.w3.org/1999/xlink" x="0px" y="0px"
	 viewBox="0 0 512 512" style="enable-background:new 0 0 512 512;" xml:space="preserve">
<path d="M256.16,16L16,136v360h29.28h136.8h11.04h125.76h11.04h136.8H496V136L256.16,16z M182.24,484.8H56.48V359.04h28.16v71.04
	l34.88,17.44l34.88-17.44v-71.2h28.16V484.8H182.24z M95.52,423.36v-64.32h47.68v64.32l-23.68,11.84L95.52,423.36z M182.24,348
	h-28.16h-69.6H56.32V222.24h28.16v71.2l34.88,17.44l34.88-17.44v-71.2h28.16L182.24,348L182.24,348z M95.52,286.72V222.4h47.68
	v64.32l-23.68,11.84L95.52,286.72z M319.04,484.8H193.28V359.04h28.16v71.04l34.88,17.44l34.88-17.44v-71.2h28.16V484.8H319.04z
	 M232.32,423.36v-64.32H280v64.32l-23.68,11.84L232.32,423.36z M319.04,348h-28.16h-69.6h-28.16V222.24h28.16v71.2l34.88,17.44
	l34.88-17.44v-71.2h28.16L319.04,348L319.04,348z M232.32,286.72V222.4H280v64.32l-23.68,11.84L232.32,286.72z M456,484.8H330.24
	V359.04h28.16v71.04l34.88,17.44l34.88-17.44v-71.2h28.16V484.8H456z M369.12,423.36v-64.32h47.68v64.32l-23.68,11.84L369.12,423.36
	z M456,348h-28.16h-69.6h-28.16V222.24h28.16v71.2l34.88,17.44L428,293.44v-71.2h28.16L456,348L456,348z M369.12,286.72V222.4h47.68
	v64.32l-23.68,11.84L369.12,286.72z M456,211.2h-28.16h-69.6h-28.16h-11.04h-28.16h-69.6h-28.16h-11.04h-28.16h-69.6H56.16v-13.44
	h399.52v13.44H456z M456,186.72H56.48v-13.44H456V186.72z M485.28,484.8h-18.4V359.04V348V211.2v-48.8H45.44v48.8V348v11.04V484.8
	H27.2V142.88L256.16,28.32l228.96,114.56L485.28,484.8L485.28,484.8z M132.16,233.12h-25.6v40.32h25.6V233.12z M121.12,262.4h-3.68
	V244h3.68V262.4z M269.12,233.12h-25.6v40.32h25.6V233.12z M258.08,262.4h-3.68V244h3.68V262.4z M192.32,139.36h128.32V84.32H192.32
	V139.36z M203.36,95.36H309.6v32.96H203.36V95.36z M405.76,233.12h-25.6v40.32h25.6V233.12z M394.88,262.4h-3.68V244h3.68V262.4z
	 M132.16,370.08h-25.6v40.32h25.6V370.08z M121.12,399.36h-3.68v-18.4h3.68V399.36z M269.12,370.08h-25.6v40.32h25.6V370.08z
	 M258.08,399.36h-3.68v-18.4h3.68V399.36z M405.76,370.08h-25.6v40.32h25.6V370.08z M394.88,399.36h-3.68v-18.4h3.68V399.36z"/>
</svg>
