<?xml version="1.0" encoding="utf-8"?>
<!-- Generator: Adobe Illustrator 25.3.1, SVG Export Plug-In . SVG Version: 6.00 Build 0)  -->
<svg version="1.1" id="Layer_1" xmlns="http://www.w3.org/2000/svg" xmlns:xlink="http://www.w3.org/1999/xlink" x="0px" y="0px"
	 viewBox="0 0 512 512" style="enable-background:new 0 0 512 512;" xml:space="preserve">
<path d="M184.23,311.46H64.33v134.58h119.73V311.46H184.23z M172.97,435.11H75.58V322.88h97.39V435.11z M447.67,311.46H327.94
	v134.58h119.73V311.46z M436.42,435.11h-97.22V322.88h97.22C436.42,322.88,436.42,435.11,436.42,435.11z M240.83,408.03h-20.39
	v-11.26h20.39V408.03z M471.49,113.76c0-10.93,8.97-19.9,19.9-19.9h9.3v-33.6H377.04V11.31H135.12v48.94H11.48v33.77h9.3
	c10.93,0,19.9,8.97,19.9,19.9v5.71v52.53H11.31v56.28h29.2v261H17.02v11.26h179.76h118.59h179.76v-11.26h-23.65v-261h29.2v-56.28
	h-29.2v-52.69V113.76z M146.22,22.4h219.4v104.73h-219.4C146.22,127.13,146.22,22.4,146.22,22.4z M377.04,138.39V119.3h83.19v52.53
	H51.77V119.3h83.19v18.92h242.08V138.39z M22.73,82.76V71.34h112.56v36.87H51.28C48.83,94.18,37.09,83.58,22.73,82.76z
	 M304.12,489.27h-96.24V285.53h96.24V489.27z M460.23,489.27H315.38v-215H196.79v215H51.77v-261h408.47V489.27z M489.43,183.08
	v33.93H22.73v-33.93H489.43z M460.72,108.21h-83.85V71.18h112.56V82.6C474.91,83.58,463.17,94.18,460.72,108.21z M235.12,42.96
	h76.34L295.8,99.07h-67.04l-15.5-55.14h-11.42V32.68h19.74l15.33,55.14h50.08l9.46-33.6h-61.5L235.12,42.96L235.12,42.96z
	 M256.49,113.76c0,5.87-4.73,10.6-10.6,10.6c-5.87,0-10.6-4.73-10.6-10.6c0-5.87,4.73-10.6,10.6-10.6
	C251.6,103.15,256.49,107.88,256.49,113.76z M289.28,113.76c0,5.87-4.73,10.6-10.6,10.6c-5.87,0-10.6-4.73-10.6-10.6
	c0-5.87,4.73-10.6,10.6-10.6C284.55,103.15,289.28,107.88,289.28,113.76z"/>
</svg>
