<?xml version="1.0" encoding="utf-8"?>
<!-- Generator: Adobe Illustrator 25.3.1, SVG Export Plug-In . SVG Version: 6.00 Build 0)  -->
<svg version="1.1" id="Layer_1" xmlns="http://www.w3.org/2000/svg" xmlns:xlink="http://www.w3.org/1999/xlink" x="0px" y="0px"
	 viewBox="0 0 512 512" style="enable-background:new 0 0 512 512;" xml:space="preserve">
<style type="text/css">
	.st0{fill:#E90000;}
</style>
<path class="st0" d="M469.12,226.08c-4.96-36.16-19.2-70.4-41.28-99.52l19.04-19.04l-42.24-42.24L385.6,84.32
	C356.16,62.08,321.92,48,285.92,42.88V16h-59.84v26.88c-36.16,4.96-70.4,19.2-99.52,41.28l-19.04-19.04l-42.4,42.4l19.04,19.04
	C62.08,155.84,48,189.92,42.88,226.08H16v59.84h26.88c4.96,36.16,19.2,70.4,41.28,99.52l-19.04,19.04l42.24,42.24l19.04-19.04
	c29.28,22.08,63.36,36.16,99.52,41.28V496h59.84v-26.88c36.16-4.96,70.4-19.2,99.52-41.28l19.04,19.04l42.24-42.24l-19.04-19.04
	c22.08-29.28,36.16-63.52,41.28-99.52H496v-59.84h-26.88V226.08z M404.48,79.84l27.68,27.68l-27.68,27.68l-27.68-27.68L404.48,79.84
	z M236.48,26.4h39.04v39.04h-39.04C236.48,65.44,236.48,26.4,236.48,26.4z M79.84,107.52l27.68-27.68l27.68,27.68l-27.68,27.52
	L79.84,107.52z M26.4,275.52v-39.04h39.04v39.04H26.4z M107.52,432.16l-27.68-27.68l27.68-27.68l27.68,27.68L107.52,432.16z
	 M275.52,485.6h-39.04v-39.04h39.04V485.6z M432.16,404.48l-27.68,27.68l-27.68-27.68l27.68-27.68L432.16,404.48z M420.32,378.24
	l-15.84-15.84l-42.24,42.24l15.84,15.84c-27.2,20.16-58.88,33.28-92.32,38.24v-22.4h-59.84v22.4c-33.44-4.8-65.12-17.92-92.32-38.24
	l15.84-15.84L107.2,362.4l-15.84,15.84c-20.16-27.2-33.28-58.88-38.24-92.32h22.72v-59.84h-22.4c4.8-33.44,17.92-65.12,38.24-92.32
	l15.84,15.84l42.24-42.24l-15.84-15.84c27.2-20.16,58.88-33.28,92.32-38.24v22.4h59.84v-22.4c33.44,4.8,65.12,17.92,92.32,38.24
	l-15.84,15.84l42.24,42.24l15.84-15.84c20.16,27.2,33.28,58.88,38.24,92.32h-22.4v59.84h22.4
	C453.76,319.36,440.64,351.04,420.32,378.24z M485.6,275.52h-39.04v-39.04h39.04V275.52z M256,106.24
	c-82.56,0-149.92,67.2-149.92,149.92S173.28,406.08,256,406.08s149.92-67.2,149.92-149.92S338.56,106.24,256,106.24z M222.08,120.8
	c-13.6,12.64-24.96,32.48-32.8,57.44c-16.16-2.24-30.56-5.44-42.56-9.12C165.76,145.76,192,128.48,222.08,120.8z M140.48,178.08
	c12.64,4.32,28.48,7.84,46.08,10.4c-4.8,18.72-7.52,39.84-8,62.4h-61.92C117.76,223.84,126.24,198.88,140.48,178.08z M116.64,261.12
	h61.92c0.48,22.56,3.2,43.68,8,62.4c-17.76,2.56-33.44,6.08-46.08,10.4C126.24,313.12,117.76,288.16,116.64,261.12z M146.88,342.88
	c11.84-3.68,26.4-6.72,42.56-9.12c7.68,24.96,19.04,44.96,32.8,57.44C192,383.52,165.76,366.24,146.88,342.88z M250.88,394.88
	c-20.8-3.52-39.36-27.68-50.56-62.56c15.84-1.76,32.96-2.72,50.56-3.04V394.88z M250.88,319.04c-18.72,0.16-36.8,1.44-53.6,3.36
	c-4.96-18.4-7.84-39.2-8.32-61.12h61.92C250.88,261.28,250.88,319.04,250.88,319.04z M250.88,250.88h-61.92
	c0.48-21.92,3.36-42.72,8.32-61.12c16.8,1.92,34.88,3.04,53.6,3.36V250.88z M250.88,182.56c-17.76-0.16-34.72-1.28-50.56-3.04
	c11.2-34.88,29.76-59.04,50.56-62.56V182.56z M261.12,117.12c20.8,3.52,39.36,27.68,50.56,62.56c-15.84,1.76-32.96,2.72-50.56,3.04
	V117.12z M261.12,192.96c18.72-0.16,36.8-1.44,53.6-3.36c4.96,18.4,7.84,39.2,8.32,61.12h-61.92V192.96z M261.12,261.12h61.92
	c-0.48,21.92-3.36,42.72-8.32,61.12c-16.8-1.92-34.88-3.04-53.6-3.36C261.12,318.88,261.12,261.12,261.12,261.12z M261.12,394.88
	v-65.44c17.76,0.16,34.72,1.28,50.56,3.04C300.48,367.2,282.08,391.36,261.12,394.88z M289.76,391.2
	c13.6-12.64,24.96-32.48,32.8-57.44c16.16,2.24,30.56,5.44,42.56,9.12C346.08,366.24,319.84,383.52,289.76,391.2z M371.52,333.92
	c-12.64-4.32-28.48-7.84-46.08-10.4c4.8-18.72,7.52-39.84,8-62.4h61.92C394.24,288.16,385.6,313.12,371.52,333.92z M395.2,250.88
	h-61.92c-0.48-22.56-3.2-43.68-8-62.4c17.76-2.56,33.44-6.08,46.08-10.4C385.6,198.88,394.24,223.84,395.2,250.88z M322.56,178.24
	c-7.68-24.96-19.04-44.96-32.8-57.44c30.08,7.52,56.32,24.8,75.2,48.32C352.96,172.96,338.72,176.16,322.56,178.24z"/>
</svg>
