<?xml version="1.0" encoding="utf-8"?>
<!-- Generator: Adobe Illustrator 25.3.1, SVG Export Plug-In . SVG Version: 6.00 Build 0)  -->
<svg version="1.1" id="Layer_1" xmlns="http://www.w3.org/2000/svg" xmlns:xlink="http://www.w3.org/1999/xlink" x="0px" y="0px"
	 viewBox="0 0 512 512" style="enable-background:new 0 0 512 512;" xml:space="preserve">
<style type="text/css">
	.st0{fill:#E90000;}
</style>
<path class="st0" d="M16,16v304.16h225.12c0.16,5.76,2.24,11.2,6.08,15.52l73.44,81.44V496h128.8V320.16H496V16H16L16,16z
	 M438.56,484.96H331.68v-72l-76.32-84.64c-2.4-2.56-3.52-5.92-3.2-9.28c0.16-3.36,1.6-6.56,4.32-8.8c2.56-2.4,5.76-3.52,9.28-3.2
	c3.36,0.16,6.56,1.6,8.8,4.32l46.24,51.2V229.92c0-7.04,5.76-12.96,12.96-12.96s12.96,5.76,12.96,12.96v121.76h11.04v-46.56
	c0-6.24,5.12-11.36,11.36-11.36s11.36,5.12,11.36,11.36v46.56h11.04V308c0-5.44,4.32-9.92,9.92-9.92c5.44,0,9.76,4.32,9.76,9.92
	v43.68h11.04v-38.56c0-4.64,3.84-8.32,8.48-8.32s8.32,3.84,8.32,8.32L438.56,484.96L438.56,484.96z M333.44,205.92
	c-13.12,0-23.68,10.72-23.68,23.68v1.76h-41.12V198.4h134.88v32.96h-46.08v-1.76C357.12,216.64,346.4,205.92,333.44,205.92z
	 M357.12,283.52h4.96c-1.76,0.64-3.52,1.28-4.96,2.24V283.52z M357.12,272.64v-30.08h56.96v-55.04h-156.8v55.04h52.16v30.08H78.24
	V63.68h355.52v208.96H357.12z M485.12,309.28H448.8c-1.92-8.8-9.28-15.52-18.56-15.52c-4.32,0-7.84,1.6-11.2,4
	c-3.52-6.4-10.24-10.72-18.24-10.72c-5.28,0-10.08,2.08-13.76,5.44c-2.88-4.16-7.2-7.2-12.16-8.64h69.92V52.8H67.36v230.88h242.4
	v50.24L282.72,304c-4.32-4.64-10.08-7.52-16.48-7.84c-6.4-0.32-12.48,1.92-17.12,6.08c-2.24,2.08-4.16,4.48-5.44,7.2H27.2V27.36
	h458.08L485.12,309.28L485.12,309.28z M52.64,224.8H41.6V111.52h11.04V224.8z M470.56,263.52h-11.04v-42.56h11.04V263.52z
	 M470.56,189.44h-11.04v-42.56h11.04V189.44z M470.56,115.36h-11.04v-42.4h11.04V115.36z M257.44,93.76h156.8v11.04h-156.8V93.76z
	 M257.44,122.72h156.8v11.04h-156.8V122.72z M257.44,151.68h156.8v11.04h-156.8V151.68z M139.2,231.52h58.4v11.04h-58.4
	C139.2,242.56,139.2,231.52,139.2,231.52z M225.28,165.76H203.2v-43.84h-69.6v44h-22.08v29.28h-14.4v11.04h14.56h113.6h14.56V195.2
	h-14.56V165.76z M144.64,132.8h47.68v32.96h-47.68L144.64,132.8L144.64,132.8z M214.24,195.2h-91.68v-18.4h11.04h69.6h11.04V195.2z"
	/>
</svg>
