<?xml version="1.0" encoding="utf-8"?>
<!-- Generator: Adobe Illustrator 25.3.1, SVG Export Plug-In . SVG Version: 6.00 Build 0)  -->
<svg version="1.1" id="Layer_1" xmlns="http://www.w3.org/2000/svg" xmlns:xlink="http://www.w3.org/1999/xlink" x="0px" y="0px"
	 viewBox="0 0 512 512" style="enable-background:new 0 0 512 512;" xml:space="preserve">
<style type="text/css">
	.st0{fill:#E90000;}
</style>
<path class="st0" d="M133.59,141.68c12.16,0,21.92-9.76,21.92-21.92s-9.76-22.08-21.92-22.08s-21.92,9.76-21.92,21.92
	S121.43,141.68,133.59,141.68z M133.59,108.72c6.08,0,11.04,4.96,11.04,11.04s-5.12,10.88-11.04,10.88
	c-6.08,0-11.04-4.96-11.04-11.04S127.35,108.72,133.59,108.72z M447.51,290.16c-12.16,0-21.92,9.76-21.92,21.92
	S435.35,334,447.51,334s21.92-9.76,21.92-21.92S459.67,290.16,447.51,290.16z M447.51,323.28c-6.08,0-11.04-4.96-11.04-11.04
	s4.96-11.04,11.04-11.04c6.08,0,11.04,4.96,11.04,11.04S453.43,323.28,447.51,323.28z M485.91,282.64
	c-10.56-13.6-27.2-20.16-43.2-18.4c0.16-2.72,0.32-5.44,0.32-8.16c0-37.12-10.88-72.64-31.2-103.52c19.04-31.68,17.44-72-5.44-101.6
	c-30.4-39.2-86.88-46.4-126.4-16.32c-12.16,9.44-21.28,21.28-27.04,34.4c-28.48,0.48-56.48,7.52-81.44,20.16
	c-16.48-20.32-46.4-24-67.36-7.84c-20.96,16-25.12,46.4-8.48,68.48l3.52,4.48c-18.4,28.32-28.64,60.8-29.92,94.72H15.99v125.12v5.6
	V458h29.44c2.88,21.28,20.8,37.92,43.04,37.92s40.16-16.64,42.88-37.92h113.6c2.88,21.28,20.8,37.92,43.04,37.92
	s40.16-16.64,42.88-37.92h60.96v-60.64l-4.16-8.8c11.2-11.2,20.8-23.52,28.96-36.96l30.88,40.16l37.44-48.48l0.64-0.64
	C499.35,324.88,499.51,300.24,485.91,282.64z M286.55,43.12c14.4-11.04,31.36-16.48,48.16-16.48c23.68,0,47.2,10.56,62.72,30.72
	c22.08,28.8,21.92,69.12-0.8,97.76l4.32,3.36l-4.64-3.04l-61.28,79.68l-62.08-80.32l-1.28-1.44
	C245.91,118.8,252.47,69.36,286.55,43.12z M110.55,90c6.88-5.28,14.88-7.84,22.88-7.84c11.36,0,22.4,4.96,29.76,14.56
	c10.56,13.6,10.4,32.8-0.48,46.4l4.32,3.36l-4.48-3.2l-28.96,37.76l-30.24-38.72C91.19,126,94.39,102.64,110.55,90z M26.71,260.08
	h213.44v108.64H26.71V260.08z M88.15,484.88c-17.92,0-32.48-14.72-32.48-32.48c0-17.92,14.72-32.48,32.48-32.48
	s32.48,14.72,32.48,32.48C120.63,470.48,106.23,484.88,88.15,484.88z M287.83,484.88c-17.92,0-32.48-14.72-32.48-32.48
	c0-17.92,14.72-32.48,32.48-32.48s32.48,14.72,32.48,32.48C320.31,470.48,305.75,484.88,287.83,484.88z M380.79,446.96h-49.92
	c-2.72-21.44-20.8-37.92-42.88-37.92s-40.16,16.64-42.88,37.92H131.19c-2.72-21.44-20.8-37.92-42.88-37.92s-40.16,16.64-42.88,37.92
	H26.87v-67.2h224.48V292.4h78.88l50.56,106.08L380.79,446.96L380.79,446.96z M382.71,377.68l-45.6-96.48h-85.76v-32.32H79.99
	c1.12-30.4,10.08-59.68,26.08-85.44l27.52,35.68l37.44-48.64l0.48-0.64c11.68-14.88,13.6-34.88,5.6-51.52
	c22.08-11.2,46.56-17.44,71.68-18.4c-7.84,26.56-3.52,56.16,14.4,79.84l71.84,93.12l69.44-90.24l0.64-0.64
	c17.6,28,27.04,60.16,27.04,93.6c0,3.68-0.16,7.2-0.48,10.72c-4.8,1.6-9.6,4-13.76,7.2c-20.8,16.16-24.96,46.24-8.48,68.32
	C401.91,354.96,392.95,366.96,382.71,377.68z M476.79,335.6l4.32,3.36l-4.48-3.2l-28.96,37.76l-30.08-38.88
	c-12.32-16.48-9.12-39.84,7.04-52.32c6.88-5.28,14.88-7.84,22.88-7.84c11.36,0,22.4,4.96,29.76,14.56
	C487.67,302.96,487.51,322,476.79,335.6z M334.87,169.2c35.04,0,63.52-28.48,63.52-63.52s-28.48-63.52-63.52-63.52
	s-63.52,28.48-63.52,63.52S299.83,169.2,334.87,169.2z M334.87,53.2c28.96,0,52.48,23.68,52.48,52.48s-23.68,52.48-52.48,52.48
	c-28.96,0-52.48-23.68-52.48-52.48S305.75,53.2,334.87,53.2z M227.67,220.88h18.08v11.04h-18.08V220.88z M194.55,220.88h18.08v11.04
	h-18.08V220.88z M161.43,220.88h18.08v11.04h-18.08V220.88z"/>
</svg>
