<?xml version="1.0" encoding="utf-8"?>
<!-- Generator: Adobe Illustrator 25.3.1, SVG Export Plug-In . SVG Version: 6.00 Build 0)  -->
<svg version="1.1" id="Layer_1" xmlns="http://www.w3.org/2000/svg" xmlns:xlink="http://www.w3.org/1999/xlink" x="0px" y="0px"
	 viewBox="0 0 24 24" style="enable-background:new 0 0 24 24;" xml:space="preserve">
<path d="M23.25,5.46v-1.9L12,0.75L0.75,3.56v1.9l1.37-0.34v4.8H0.75v6.4v0.52v6.4h0.26h6.16h0.52h6.41h8.9v-0.52h-1.11V5.12
	L23.25,5.46z M7.16,22.73H1.28v-5.9H2.6v3.43h3.26v-3.43h1.31V22.73z M3.1,19.76v-2.92h2.23v2.92H3.1z M7.16,16.33H5.84H2.59H1.27
	v-5.89h1.32v3.44h3.26v-3.44h1.32L7.16,16.33L7.16,16.33z M3.1,13.35v-2.92h2.23v2.92H3.1z M13.58,22.73h-5.9v-5.9H9v3.43h3.26
	v-3.43h1.32L13.58,22.73L13.58,22.73z M9.51,19.76v-2.92h2.23v2.92H9.51z M18.56,22.73h-4.46v-6.41h-1.84H8.99H7.67v-1.96h10.88
	L18.56,22.73L18.56,22.73z M18.56,13.84H7.68v-1.03h10.88V13.84z M18.56,12.29H7.68v-1.03h10.88V12.29z M18.56,10.75H7.68V9.91H5.84
	h-0.4v-0.2h13.1L18.56,10.75L18.56,10.75z M18.56,9.19H5.45V8.57h13.1L18.56,9.19L18.56,9.19z M21.36,22.73h-2.29V8.05H4.94v1.86
	H2.65V4.98l9.35-2.34l9.35,2.34V22.73L21.36,22.73z M12,2.12L1.28,4.8V3.96L12,1.28l10.72,2.68V4.8L12,2.12z M9.02,6.49h6.01V3.92
	H9.02V6.49z M9.52,4.44h4.98v1.55H9.52V4.44z M5.33,15.12h0.52v0.71H5.33V15.12z M5.33,21.53h0.52v0.7H5.33V21.53z M11.74,21.53
	h0.52v0.7h-0.52C11.75,22.24,11.75,21.53,11.74,21.53z"/>
</svg>
