<?xml version="1.0" encoding="utf-8"?>
<!-- Generator: Adobe Illustrator 25.3.1, SVG Export Plug-In . SVG Version: 6.00 Build 0)  -->
<svg version="1.1" id="Layer_1" xmlns="http://www.w3.org/2000/svg" xmlns:xlink="http://www.w3.org/1999/xlink" x="0px" y="0px"
	 viewBox="0 0 24 24" style="enable-background:new 0 0 24 24;" xml:space="preserve">
<style type="text/css">
	.st0{fill:#FFB700;}
</style>
<g>
	<path class="st0" d="M17.62,5.92h-7.58c-1.27,0-2.29,1.03-2.29,2.29v11.24c0,1.27,1.03,2.3,2.29,2.3h7.58c1.27,0,2.3-1.03,2.3-2.3
		V8.21C19.91,6.95,18.89,5.92,17.62,5.92z M18.41,19.45c0,0.43-0.36,0.8-0.79,0.8h-7.58c-0.43,0-0.8-0.36-0.8-0.8V8.21
		c0-0.43,0.36-0.8,0.8-0.8h7.58c0.43,0,0.79,0.36,0.79,0.8V19.45z"/>
	<path class="st0" d="M15.5,2.25H6.37c-1.26,0-2.29,1.02-2.29,2.28v12.8h1.5V4.53c0-0.43,0.35-0.78,0.79-0.78h9.14v-1.5
		C15.51,2.25,15.5,2.25,15.5,2.25z"/>
</g>
</svg>
