<?xml version="1.0" encoding="utf-8"?>
<!-- Generator: Adobe Illustrator 25.3.1, SVG Export Plug-In . SVG Version: 6.00 Build 0)  -->
<svg version="1.1" id="Layer_1" xmlns="http://www.w3.org/2000/svg" xmlns:xlink="http://www.w3.org/1999/xlink" x="0px" y="0px"
	 viewBox="0 0 32 32" style="enable-background:new 0 0 32 32;" xml:space="preserve">
<path d="M28.71,27.29l-5.66-5.66c1.66-1.97,2.66-4.51,2.66-7.28C25.71,8.09,20.61,3,14.35,3C8.09,3,3,8.09,3,14.35
	c0,6.26,5.09,11.35,11.35,11.35c2.77,0,5.31-1,7.28-2.66l5.66,5.66L28.71,27.29z M14.35,23.71C9.2,23.71,5,19.51,5,14.35
	S9.2,5,14.35,5s9.35,4.2,9.35,9.35S19.51,23.71,14.35,23.71z"/>
</svg>
