<?xml version="1.0" encoding="utf-8"?>
<!-- Generator: Adobe Illustrator 25.3.1, SVG Export Plug-In . SVG Version: 6.00 Build 0)  -->
<svg version="1.1" id="Layer_1" xmlns="http://www.w3.org/2000/svg" xmlns:xlink="http://www.w3.org/1999/xlink" x="0px" y="0px"
	 viewBox="0 0 32 32" style="enable-background:new 0 0 32 32;" xml:space="preserve">
<path d="M1,1v19.01h14.07c0.01,0.36,0.14,0.7,0.38,0.97l4.59,5.09V31h8.05V20.01H31V1L1,1L1,1z M27.41,30.31h-6.68v-4.5l-4.77-5.29
	c-0.15-0.16-0.22-0.37-0.2-0.58c0.01-0.21,0.1-0.41,0.27-0.55c0.16-0.15,0.36-0.22,0.58-0.2c0.21,0.01,0.41,0.1,0.55,0.27l2.89,3.2
	v-8.29c0-0.44,0.36-0.81,0.81-0.81s0.81,0.36,0.81,0.81v7.61h0.69v-2.91c0-0.39,0.32-0.71,0.71-0.71s0.71,0.32,0.71,0.71v2.91h0.69
	v-2.73c0-0.34,0.27-0.62,0.62-0.62c0.34,0,0.61,0.27,0.61,0.62v2.73h0.69v-2.41c0-0.29,0.24-0.52,0.53-0.52
	c0.29,0,0.52,0.24,0.52,0.52L27.41,30.31L27.41,30.31z M20.84,12.87c-0.82,0-1.48,0.67-1.48,1.48v0.11h-2.57V12.4h8.43v2.06h-2.88
	v-0.11C22.32,13.54,21.65,12.87,20.84,12.87z M22.32,17.72h0.31c-0.11,0.04-0.22,0.08-0.31,0.14V17.72z M22.32,17.04v-1.88h3.56
	v-3.44h-9.8v3.44h3.26v1.88H4.89V3.98h22.22v13.06H22.32z M30.32,19.33h-2.27c-0.12-0.55-0.58-0.97-1.16-0.97
	c-0.27,0-0.49,0.1-0.7,0.25c-0.22-0.4-0.64-0.67-1.14-0.67c-0.33,0-0.63,0.13-0.86,0.34c-0.18-0.26-0.45-0.45-0.76-0.54h4.37V3.3
	H4.21v14.43h15.15v3.14L17.67,19c-0.27-0.29-0.63-0.47-1.03-0.49c-0.4-0.02-0.78,0.12-1.07,0.38c-0.14,0.13-0.26,0.28-0.34,0.45H1.7
	V1.71h28.63L30.32,19.33L30.32,19.33z M3.29,14.05H2.6V6.97h0.69V14.05z M29.41,16.47h-0.69v-2.66h0.69V16.47z M29.41,11.84h-0.69
	V9.18h0.69V11.84z M29.41,7.21h-0.69V4.56h0.69V7.21z M16.09,5.86h9.8v0.69h-9.8V5.86z M16.09,7.67h9.8v0.69h-9.8V7.67z M16.09,9.48
	h9.8v0.69h-9.8V9.48z M8.7,14.47h3.65v0.69H8.7V14.47z M14.08,10.36H12.7V7.62H8.35v2.75H6.97v1.83H6.07v0.69h0.91h7.1h0.91V12.2
	h-0.91V10.36z M9.04,8.3h2.98v2.06H9.04L9.04,8.3L9.04,8.3z M13.39,12.2H7.66v-1.15h0.69h4.35h0.69V12.2z"/>
</svg>
