<?xml version="1.0" encoding="utf-8"?>
<!-- Generator: Adobe Illustrator 25.3.1, SVG Export Plug-In . SVG Version: 6.00 Build 0)  -->
<svg version="1.1" id="Layer_1" xmlns="http://www.w3.org/2000/svg" xmlns:xlink="http://www.w3.org/1999/xlink" x="0px" y="0px"
	 viewBox="0 0 32 32" style="enable-background:new 0 0 32 32;" xml:space="preserve">
<path d="M11.6,19.4H4.25v8.25h7.34V19.4z M10.91,26.98H4.94V20.1h5.97V26.98z M27.75,19.4h-7.34v8.25h7.34V19.4z M27.06,26.98H21.1
	V20.1h5.96V26.98z M15.07,25.32h-1.25v-0.69h1.25V25.32z M29.21,7.28c0-0.67,0.55-1.22,1.22-1.22H31V4h-7.58V1H8.59v3H1.01v2.07
	h0.57c0.67,0,1.22,0.55,1.22,1.22v0.35v3.22H1v3.45h1.79v16H1.35V31h11.02h7.27h11.02v-0.69h-1.45v-16H31v-3.45h-1.79V7.63V7.28z
	 M9.27,1.68h13.45V8.1H9.27V1.68z M23.42,8.79V7.62h5.1v3.22H3.48V7.62h5.1v1.16H23.42z M1.7,5.38v-0.7h6.9v2.26H3.45
	C3.3,6.08,2.58,5.43,1.7,5.38z M18.95,30.3h-5.9V17.81h5.9V30.3z M28.52,30.3h-8.88V17.12h-7.27V30.3H3.48v-16h25.04V30.3z
	 M30.31,11.53v2.08H1.7v-2.08H30.31z M28.55,6.94h-5.14V4.67h6.9v0.7C29.42,5.43,28.7,6.08,28.55,6.94z M14.72,2.94h4.68l-0.96,3.44
	h-4.11L13.38,3h-0.7V2.31h1.21l0.94,3.38h3.07l0.58-2.06h-3.77L14.72,2.94L14.72,2.94z M16.03,7.28c0,0.36-0.29,0.65-0.65,0.65
	c-0.36,0-0.65-0.29-0.65-0.65c0-0.36,0.29-0.65,0.65-0.65C15.73,6.63,16.03,6.92,16.03,7.28z M18.04,7.28
	c0,0.36-0.29,0.65-0.65,0.65c-0.36,0-0.65-0.29-0.65-0.65c0-0.36,0.29-0.65,0.65-0.65C17.75,6.63,18.04,6.92,18.04,7.28z"/>
</svg>
