<?xml version="1.0" encoding="utf-8"?>
<!-- Generator: Adobe Illustrator 25.3.1, SVG Export Plug-In . SVG Version: 6.00 Build 0)  -->
<svg version="1.1" id="Layer_1" xmlns="http://www.w3.org/2000/svg" xmlns:xlink="http://www.w3.org/1999/xlink" x="0px" y="0px"
	 viewBox="0 0 32 32" style="enable-background:new 0 0 32 32;" xml:space="preserve">
<style type="text/css">
	.st0{fill:#FFFFFF;}
</style>
<path class="st0" d="M8.25,21.46c-0.53,0-0.95,0.43-0.95,0.95c0,0.53,0.43,0.95,0.95,0.95s0.95-0.43,0.95-0.95
	C9.21,21.89,8.77,21.46,8.25,21.46z M8.11,22.42c0-0.08,0.06-0.14,0.14-0.14s0.14,0.06,0.14,0.14C8.4,22.57,8.11,22.57,8.11,22.42z
	 M26.33,21.46c-0.53,0-0.95,0.43-0.95,0.95c0,0.53,0.43,0.95,0.95,0.95s0.95-0.43,0.95-0.95C27.27,21.89,26.85,21.46,26.33,21.46z
	 M26.19,22.42c0-0.08,0.06-0.14,0.14-0.14s0.14,0.06,0.14,0.14C26.47,22.57,26.19,22.57,26.19,22.42z M11.68,20.64H22.9v0.81H11.68
	V20.64z M29.66,16.9l-2.54-1.21l-2.55-5.33C23.54,8.2,21.32,6.8,18.92,6.8H1.81v13.84H1v2.72h4.64c0.39,1.07,1.41,1.83,2.61,1.83
	s2.22-0.76,2.61-1.83h12.86c0.39,1.07,1.41,1.83,2.61,1.83s2.22-0.76,2.61-1.83h0.76c0.72,0,1.31-0.59,1.31-1.31v-3.01
	C31.02,18.13,30.49,17.29,29.66,16.9z M26.19,15.59h-5.75c-0.48,0-0.87-0.39-0.87-0.87l0.01-3.05h4.75L26.19,15.59z M4.12,22.57
	H1.81v-1.11h2.32v1.11H4.12z M8.25,24.4c-1.09,0-1.98-0.89-1.98-1.98s0.89-1.98,1.98-1.98s1.98,0.89,1.98,1.98S9.35,24.4,8.25,24.4z
	 M26.33,24.4c-1.09,0-1.98-0.89-1.98-1.98s0.89-1.98,1.98-1.98s1.98,0.89,1.98,1.98S27.42,24.4,26.33,24.4z M30.21,22.05
	c0,0.28-0.23,0.51-0.51,0.51h-0.6c0-0.05,0.01-0.1,0.01-0.15c0-0.34-0.06-0.66-0.18-0.96h1.28V22.05z M30.21,20.64h-1.74
	c-0.52-0.61-1.27-1.02-2.14-1.02c-1.54,0-2.79,1.25-2.79,2.79c0,0.05,0.01,0.1,0.01,0.15H11.01c0-0.05,0.01-0.1,0.01-0.15
	c0-1.54-1.25-2.79-2.79-2.79s-2.79,1.25-2.79,2.79c0,0.05,0.01,0.1,0.01,0.15H4.92v-1.92h-2.3V7.61h16.3c2.09,0,4.02,1.22,4.92,3.1
	l0.08,0.15h-4.36c-0.45,0-0.82,0.37-0.82,0.82v3.04c0,0.93,0.75,1.68,1.68,1.68h6.3l2.58,1.23c0.54,0.26,0.89,0.81,0.89,1.41v1.6
	H30.21z"/>
</svg>
