<?xml version="1.0" encoding="utf-8"?>
<!-- Generator: Adobe Illustrator 25.3.1, SVG Export Plug-In . SVG Version: 6.00 Build 0)  -->
<svg version="1.1" id="Layer_1" xmlns="http://www.w3.org/2000/svg" xmlns:xlink="http://www.w3.org/1999/xlink" x="0px" y="0px"
	 viewBox="0 0 24 24" style="enable-background:new 0 0 24 24;" xml:space="preserve">
<path d="M6.26,6.64c0.57,0,1.03-0.46,1.03-1.03S6.83,4.58,6.26,4.58c-0.57,0-1.03,0.46-1.03,1.03S5.69,6.64,6.26,6.64z M6.26,5.1
	c0.29,0,0.52,0.23,0.52,0.52c0,0.28-0.24,0.51-0.52,0.51c-0.29,0-0.52-0.23-0.52-0.52C5.75,5.32,5.97,5.1,6.26,5.1z M20.98,13.6
	c-0.57,0-1.03,0.46-1.03,1.03c0,0.57,0.46,1.03,1.03,1.03c0.57,0,1.03-0.46,1.03-1.03C22.01,14.06,21.55,13.6,20.98,13.6z
	 M20.98,15.16c-0.28,0-0.52-0.23-0.52-0.52c0-0.29,0.23-0.52,0.52-0.52s0.52,0.23,0.52,0.52C21.49,14.92,21.26,15.16,20.98,15.16z
	 M22.78,13.25c-0.49-0.64-1.27-0.95-2.02-0.86c0.01-0.13,0.01-0.26,0.01-0.38c0-1.74-0.51-3.4-1.46-4.85
	c0.89-1.49,0.82-3.38-0.26-4.76c-1.42-1.84-4.07-2.18-5.92-0.77c-0.57,0.44-1,1-1.27,1.61c-1.34,0.02-2.65,0.35-3.82,0.94
	C7.27,3.23,5.86,3.06,4.88,3.82C3.9,4.57,3.7,5.99,4.49,7.03l0.16,0.21c-0.86,1.33-1.34,2.85-1.4,4.44h-2.5v5.86v0.26v3.67h1.38
	c0.13,1,0.97,1.78,2.02,1.78s1.88-0.78,2.01-1.78h5.32c0.14,1,0.98,1.78,2.02,1.78s1.88-0.78,2.01-1.78h2.86v-2.84l-0.19-0.41
	c0.52-0.52,0.97-1.1,1.36-1.73l1.45,1.88l1.76-2.27l0.03-0.03C23.41,15.23,23.41,14.08,22.78,13.25z M13.43,2.03
	c0.68-0.52,1.47-0.77,2.26-0.77c1.11,0,2.21,0.5,2.94,1.44c1.03,1.35,1.03,3.24-0.04,4.58l0.2,0.16l-0.22-0.14l-2.87,3.73L12.8,7.26
	l-0.06-0.07C11.53,5.57,11.84,3.26,13.43,2.03z M5.18,4.22c0.32-0.25,0.7-0.37,1.07-0.37c0.53,0,1.05,0.23,1.39,0.68
	c0.49,0.64,0.49,1.54-0.02,2.17l0.2,0.16L7.62,6.72L6.26,8.49L4.85,6.67C4.27,5.91,4.43,4.82,5.18,4.22z M1.25,12.19h10.01v5.09
	H1.25V12.19z M4.13,22.73c-0.84,0-1.52-0.69-1.52-1.52c0-0.84,0.69-1.52,1.52-1.52s1.52,0.69,1.52,1.52
	C5.65,22.06,4.98,22.73,4.13,22.73z M13.49,22.73c-0.84,0-1.52-0.69-1.52-1.52c0-0.84,0.69-1.52,1.52-1.52s1.52,0.69,1.52,1.52
	C15.02,22.06,14.33,22.73,13.49,22.73z M17.85,20.95h-2.34c-0.13-1-0.97-1.78-2.01-1.78s-1.88,0.78-2.01,1.78H6.15
	c-0.13-1-0.97-1.78-2.01-1.78s-1.88,0.78-2.01,1.78H1.26V17.8h10.52v-4.09h3.7l2.37,4.97V20.95L17.85,20.95z M17.94,17.71
	l-2.14-4.52h-4.02v-1.51H3.75c0.05-1.43,0.47-2.8,1.22-4.01l1.29,1.67l1.75-2.28l0.02-0.03c0.55-0.7,0.64-1.64,0.26-2.41
	c1.03-0.53,2.18-0.82,3.36-0.86c-0.37,1.24-0.16,2.63,0.68,3.74l3.37,4.36l3.26-4.23l0.03-0.03c0.83,1.31,1.27,2.82,1.27,4.39
	c0,0.17-0.01,0.34-0.02,0.5c-0.22,0.07-0.45,0.19-0.65,0.34c-0.97,0.76-1.17,2.17-0.4,3.2C18.84,16.64,18.42,17.2,17.94,17.71z
	 M22.35,15.73l0.2,0.16L22.35,15.73l-1.36,1.78l-1.41-1.82c-0.58-0.77-0.43-1.87,0.33-2.45c0.32-0.25,0.7-0.37,1.07-0.37
	c0.53,0,1.05,0.23,1.4,0.68C22.86,14.2,22.85,15.1,22.35,15.73z M15.7,7.93c1.64,0,2.98-1.33,2.98-2.98s-1.33-2.98-2.98-2.98
	s-2.98,1.33-2.98,2.98S14.06,7.93,15.7,7.93z M15.7,2.5c1.36,0,2.46,1.11,2.46,2.46s-1.11,2.46-2.46,2.46
	c-1.36,0-2.46-1.11-2.46-2.46S14.33,2.5,15.7,2.5z M10.67,10.36h0.85v0.52h-0.85V10.36z M9.12,10.36h0.85v0.52H9.12V10.36z
	 M7.57,10.36h0.85v0.52H7.57V10.36z"/>
</svg>
