<?xml version="1.0" encoding="utf-8"?>
<!-- Generator: Adobe Illustrator 25.3.1, SVG Export Plug-In . SVG Version: 6.00 Build 0)  -->
<svg version="1.1" id="Layer_1" xmlns="http://www.w3.org/2000/svg" xmlns:xlink="http://www.w3.org/1999/xlink" x="0px" y="0px"
	 viewBox="0 0 24 24" style="enable-background:new 0 0 24 24;" xml:space="preserve">
<path d="M21.99,10.6c-0.23-1.69-0.9-3.3-1.93-4.66l0.89-0.89l-1.98-1.98l-0.89,0.89c-1.38-1.04-2.99-1.7-4.67-1.94V0.75h-2.8v1.26
	c-1.7,0.23-3.3,0.9-4.66,1.93L5.04,3.05L3.05,5.04l0.89,0.89C2.91,7.3,2.25,8.9,2.01,10.6H0.75v2.81h1.26
	c0.23,1.7,0.9,3.3,1.93,4.67l-0.89,0.89l1.98,1.98l0.89-0.89c1.37,1.03,2.97,1.69,4.66,1.93v1.27h2.81v-1.26
	c1.69-0.23,3.3-0.9,4.66-1.93l0.89,0.89l1.98-1.98l-0.89-0.89c1.03-1.37,1.7-2.98,1.93-4.66h1.28v-2.8L21.99,10.6L21.99,10.6z
	 M18.96,3.74l1.3,1.3l-1.3,1.3l-1.3-1.3L18.96,3.74z M11.09,1.24h1.83v1.83h-1.83C11.08,3.07,11.08,1.24,11.09,1.24z M3.74,5.04
	l1.3-1.3l1.3,1.3l-1.3,1.29L3.74,5.04z M1.24,12.91v-1.83h1.83v1.83H1.24z M5.04,20.26l-1.3-1.3l1.3-1.3l1.3,1.3L5.04,20.26z
	 M12.91,22.76h-1.83v-1.83h1.83V22.76z M20.26,18.96l-1.3,1.3l-1.3-1.3l1.3-1.3L20.26,18.96z M19.7,17.73l-0.74-0.74l-1.98,1.98
	l0.74,0.74c-1.27,0.94-2.76,1.56-4.33,1.79v-1.05h-2.81v1.05c-1.57-0.22-3.05-0.84-4.33-1.79l0.74-0.74l-1.98-1.98l-0.74,0.74
	c-0.95-1.28-1.56-2.76-1.79-4.33h1.06v-2.8H2.5C2.73,9.03,3.34,7.54,4.3,6.27l0.74,0.74l1.98-1.98L6.28,4.29
	C7.55,3.35,9.04,2.73,10.6,2.5v1.05h2.81V2.5c1.57,0.23,3.05,0.84,4.33,1.79l-0.74,0.74l1.98,1.98l0.74-0.74
	c0.94,1.28,1.56,2.76,1.79,4.33h-1.05v2.8h1.05C21.27,14.97,20.66,16.45,19.7,17.73z M22.76,12.91h-1.83v-1.83h1.83V12.91z M12,4.98
	c-3.87,0-7.03,3.15-7.03,7.03s3.15,7.03,7.03,7.03s7.03-3.15,7.03-7.03S15.87,4.98,12,4.98z M10.41,5.66
	C9.77,6.26,9.24,7.18,8.87,8.36C8.11,8.25,7.44,8.1,6.88,7.93C7.77,6.83,9,6.02,10.41,5.66z M6.59,8.35
	c0.59,0.2,1.33,0.37,2.16,0.49c-0.23,0.88-0.35,1.87-0.38,2.93h-2.9C5.52,10.49,5.92,9.32,6.59,8.35z M5.47,12.24h2.9
	c0.02,1.06,0.15,2.05,0.38,2.92c-0.83,0.12-1.57,0.28-2.16,0.49C5.92,14.68,5.52,13.51,5.47,12.24z M6.89,16.07
	c0.55-0.17,1.24-0.32,1.99-0.43c0.36,1.17,0.89,2.11,1.54,2.69C9,17.98,7.77,17.17,6.89,16.07z M11.76,18.51
	c-0.98-0.16-1.85-1.3-2.37-2.93c0.74-0.08,1.54-0.13,2.37-0.14V18.51z M11.76,14.95c-0.88,0.01-1.73,0.07-2.51,0.16
	c-0.23-0.86-0.37-1.84-0.39-2.86h2.9C11.76,12.25,11.76,14.95,11.76,14.95z M11.76,11.76h-2.9c0.02-1.03,0.16-2,0.39-2.86
	c0.79,0.09,1.64,0.14,2.51,0.16V11.76z M11.76,8.56c-0.83-0.01-1.63-0.06-2.37-0.14c0.52-1.64,1.39-2.77,2.37-2.93V8.56z
	 M12.24,5.49c0.97,0.16,1.84,1.3,2.37,2.93c-0.74,0.08-1.54,0.13-2.37,0.14V5.49z M12.24,9.05c0.88-0.01,1.72-0.07,2.51-0.16
	c0.23,0.86,0.37,1.84,0.39,2.86h-2.9V9.05z M12.24,12.24h2.9c-0.02,1.03-0.16,2-0.39,2.86c-0.79-0.09-1.64-0.14-2.51-0.16
	C12.24,14.95,12.24,12.24,12.24,12.24z M12.24,18.51v-3.07c0.83,0.01,1.63,0.06,2.37,0.14C14.09,17.21,13.22,18.34,12.24,18.51z
	 M13.58,18.34c0.64-0.59,1.17-1.52,1.54-2.69c0.76,0.1,1.43,0.26,1.99,0.43C16.22,17.17,14.99,17.98,13.58,18.34z M17.41,15.65
	c-0.59-0.2-1.34-0.37-2.16-0.49c0.22-0.88,0.35-1.87,0.38-2.92h2.9C18.48,13.51,18.08,14.68,17.41,15.65z M18.53,11.76h-2.9
	c-0.02-1.06-0.15-2.05-0.38-2.92c0.83-0.12,1.57-0.29,2.16-0.49C18.08,9.32,18.48,10.49,18.53,11.76z M15.12,8.36
	c-0.36-1.17-0.89-2.11-1.54-2.69c1.41,0.35,2.64,1.16,3.53,2.26C16.55,8.11,15.88,8.26,15.12,8.36z"/>
</svg>
