<?xml version="1.0" encoding="utf-8"?>
<!-- Generator: Adobe Illustrator 25.3.1, SVG Export Plug-In . SVG Version: 6.00 Build 0)  -->
<svg version="1.1" id="Layer_1" xmlns="http://www.w3.org/2000/svg" xmlns:xlink="http://www.w3.org/1999/xlink" x="0px" y="0px"
	 viewBox="0 0 24 24" style="enable-background:new 0 0 24 24;" xml:space="preserve">
<path d="M23.25,0.75h-2.89v4.76l-0.03,0.02C18.32,2.93,15.3,1.44,12,1.44c-4.58,0-8.68,3.03-10.07,7.38H0.75v5.14v0.26v2.56h0.97
	c0.12,0.71,0.73,1.25,1.48,1.25c0.04,0,0.08-0.01,0.12-0.02c1.84,2.65,4.8,4.31,8,4.52v0.71h3.8h0.51h3.29h0.51h3.82v-2.26
	c0-0.61-0.33-1.16-0.85-1.45c0.12-0.22,0.2-0.46,0.2-0.73c0-0.82-0.66-1.49-1.47-1.5c0.94-1.61,1.43-3.44,1.43-5.31
	c0-0.38-0.03-0.75-0.06-1.12h0.75C23.25,10.89,23.25,0.75,23.25,0.75z M20.36,6.12v4.24h-2.49V7.71L20.36,6.12z M1.28,9.34h6.35
	v4.37H1.28V9.34z M1.28,16.26v-2.05h6.87v-2.86H9.7l2.06,2.03v2.89h-0.53c-0.12-0.71-0.73-1.25-1.48-1.25
	c-0.74,0-1.35,0.54-1.48,1.25H4.68c-0.12-0.71-0.74-1.25-1.48-1.25s-1.35,0.54-1.48,1.25C1.72,16.26,1.28,16.26,1.28,16.26z
	 M10.73,16.51c0,0.54-0.44,0.99-0.99,0.99s-0.99-0.45-0.99-0.99c0-0.54,0.44-0.99,0.99-0.99S10.73,15.97,10.73,16.51z M3.2,17.51
	c-0.54,0-0.99-0.45-0.99-0.99c0-0.54,0.44-0.99,0.99-0.99s0.99,0.45,0.99,0.99C4.19,17.06,3.74,17.51,3.2,17.51z M15.13,22.72h-3.29
	v-1.75c0-0.45,0.28-0.85,0.68-1.03c0.26,0.22,0.6,0.36,0.96,0.36c0.37,0,0.7-0.13,0.96-0.36c0.41,0.19,0.68,0.58,0.68,1.03
	C15.13,20.98,15.13,22.72,15.13,22.72z M12.5,18.81c0-0.54,0.44-0.99,0.99-0.99c0.55,0,0.99,0.45,0.99,0.99s-0.44,0.99-0.99,0.99
	C12.94,19.79,12.5,19.35,12.5,18.81z M18.93,22.72h-3.28v-0.97c0-0.45,0.28-0.85,0.68-1.03c0.26,0.22,0.6,0.36,0.96,0.36
	c0.37,0,0.7-0.14,0.96-0.36c0.41,0.19,0.68,0.58,0.68,1.03C18.93,21.75,18.93,22.72,18.93,22.72z M16.3,19.58
	c0-0.54,0.44-0.99,0.99-0.99c0.55,0,0.99,0.45,0.99,0.99c0,0.54-0.44,0.99-0.99,0.99C16.74,20.57,16.3,20.12,16.3,19.58z
	 M18.98,20.6c-0.11-0.12-0.24-0.22-0.39-0.29c0.02-0.04,0.05-0.07,0.06-0.12c0.36-0.28,0.69-0.61,1-0.95
	c0.04,0.1,0.08,0.2,0.12,0.28C19.38,19.76,19.09,20.15,18.98,20.6z M22.73,20.99v1.75h-3.28v-1.75c0-0.45,0.28-0.85,0.68-1.03
	c0.26,0.22,0.6,0.36,0.96,0.36c0.37,0,0.7-0.14,0.96-0.36C22.46,20.13,22.73,20.52,22.73,20.99z M22.07,18.81
	c0,0.54-0.44,0.99-0.99,0.99s-0.99-0.45-0.99-0.99s0.44-0.99,0.99-0.99C21.64,17.82,22.07,18.26,22.07,18.81z M20.43,17.47
	c-0.42,0.2-0.73,0.61-0.81,1.08c-0.26,0.3-0.54,0.59-0.85,0.85c-0.09-0.74-0.71-1.33-1.49-1.33c-0.83,0-1.51,0.67-1.51,1.51
	c0,0.27,0.08,0.52,0.2,0.73c-0.14,0.08-0.28,0.18-0.39,0.29c-0.1-0.45-0.39-0.85-0.8-1.07c0.12-0.22,0.2-0.46,0.2-0.73
	c0-0.83-0.68-1.51-1.51-1.51s-1.51,0.67-1.51,1.51c0,0.27,0.08,0.52,0.2,0.73c-0.52,0.28-0.86,0.83-0.86,1.45V22
	c-2.98-0.2-5.72-1.73-7.47-4.15c0.43-0.2,0.74-0.61,0.82-1.09h3.59c0.12,0.7,0.73,1.25,1.48,1.25c0.74,0,1.35-0.54,1.48-1.25h1.05
	v-3.61l-2.36-2.33H8.15V8.8H2.48C3.83,4.76,7.7,1.95,12,1.95c3.12,0,5.99,1.41,7.9,3.86l-2.02,1.28v-1.9l-3,1.91V5.18l-3.52,2.24
	v3.46h3h0.52h2.49h0.52h2.49h0.52H22c0.04,0.37,0.07,0.74,0.07,1.12C22.05,13.95,21.49,15.84,20.43,17.47z M17.36,6.12v1.3v2.94
	h-2.49V7.7L17.36,6.12z M14.36,6.12v1.3v2.94h-2.49V7.7L14.36,6.12z M22.73,10.36h-1.85V6.98h1.85V10.36z M22.73,6.47h-1.85V5.19
	V1.28h1.85V6.47z M19.44,9.35h-0.52v-1.1h0.52V9.35z M16.44,9.35h-0.52v-1.1h0.52V9.35z M13.43,9.35h-0.52v-1.1h0.52V9.35z"/>
</svg>
