<?xml version="1.0" encoding="utf-8"?>
<!-- Generator: Adobe Illustrator 25.3.1, SVG Export Plug-In . SVG Version: 6.00 Build 0)  -->
<svg version="1.1" id="Layer_1" xmlns="http://www.w3.org/2000/svg" xmlns:xlink="http://www.w3.org/1999/xlink" x="0px" y="0px"
	 viewBox="0 0 1080 401.61" style="enable-background:new 0 0 1080 401.61;" xml:space="preserve">
<style type="text/css">
	.st0{fill:#008C28;}
	.st1{fill:#FFB700;}
	.st2{fill:#FFFFFF;}
	.st3{fill:#E90000;stroke:#E90000;stroke-width:7.4856;stroke-linecap:round;stroke-linejoin:round;stroke-miterlimit:10;}
	.st4{fill:#E90000;}
</style>
<g>
	<path class="st0" d="M20.2,251.62l-3.78,8.01c0,0-2.97,5.64-0.3,6.83h31.76c0,0,4.82,0.52,6.38-3.49
		c0,0,125.99-197.89,438.52-213.47c0,0,2.45-1.56,0.22-3.34c0,0-114.19,0.89-222.82,37.62c0,0-94.16,28.05-201.23,112.41
		c0,0-4.45,3.12-4.23-1.78c0,0,38.51-106.62,40.96-114.86s2.23-15.8-1.56-17.81c0,0-2.23,2-3.12,4.01L20.2,251.62z"/>
	<g>
		<path class="st1" d="M172.77,116.67c0.07,0.64-0.15,0.72-0.49,0.17L119.2,31.13c-0.34-0.55-0.14-1.23,0.44-1.51l40.19-19.67
			c0.58-0.28,1.11,0.01,1.18,0.65L172.77,116.67z"/>
	</g>
	<g>
		<path class="st1" d="M186.09,158.07c-0.28-0.58-0.54-0.53-0.58,0.11l-7.41,107.63c-0.04,0.64,0.45,1.17,1.09,1.17l57.76,0.43
			c0.64,0,0.94-0.47,0.67-1.05L186.09,158.07z"/>
	</g>
	<path class="st0" d="M355.65,232.03l-0.02-0.02c-9.18,12.55-23.9,20.79-40.64,20.79c-27.87,0-50.46-22.59-50.46-50.46
		c0-27.87,22.59-50.46,50.46-50.46c16.82,0,31.61,8.31,40.78,20.96l15.12-6.25c-11.82-18.44-32.38-30.74-55.9-30.74
		c-36.72,0-66.48,29.76-66.48,66.48s29.76,66.48,66.48,66.48c23.42,0,43.92-12.18,55.76-30.48L355.65,232.03z"/>
	<path class="st0" d="M454.04,140.1c0,0-19.37-3.45-34.87,8.93V66.71h-16.32v199.45h16.32v-95.87c4.07-5.71,13.82-16.09,30.87-15.28
		c0,0,27.82,0.89,30.27,29.38l0.3,80.88h16.03v-83.99C496.63,181.28,493.51,144.25,454.04,140.1z"/>
	<rect x="536.85" y="146.33" class="st0" width="16.69" height="119.54"/>
	<circle class="st0" cx="545.31" cy="119.17" r="13.13"/>
	<path class="st0" d="M658.53,135.87c-19.65,0-37.24,8.56-49.42,22.1v-96.3h-15.73v203.9h15.73v-18.54
		c12.18,13.54,29.77,22.1,49.42,22.1c36.8,0,66.63-29.83,66.63-66.63S695.33,135.87,658.53,135.87z M658.53,253.1
		c-24.27,0-44.49-17.1-49.42-39.89v-21.43c4.92-22.79,25.15-39.89,49.42-39.89c27.95,0,50.6,22.66,50.6,50.6
		C709.14,230.45,686.48,253.1,658.53,253.1z"/>
	<path class="st0" d="M860.21,232.03l-0.02-0.02c-9.18,12.55-23.9,20.79-40.64,20.79c-12.37,0-23.55-4.62-32.32-12.01l71.25-69.96
		c0.01,0.02,0.04,0.03,0.05,0.05l11.57-11.46c-12.17-14.37-30.24-23.56-50.55-23.56c-36.72,0-66.48,29.76-66.48,66.48
		s29.76,66.48,66.48,66.48c23.42,0,43.92-12.18,55.76-30.48L860.21,232.03z M769.09,202.35c0-27.87,22.59-50.46,50.46-50.46
		c10.8,0,20.54,3.69,28.66,9.54l-70.74,68.68C772.2,222.15,769.09,212.62,769.09,202.35z"/>
	<path class="st0" d="M956.89,176.6l14.91-5.34c0,0-4.23-29.16-32.05-28.72s-34.28,38.06-21.37,49.64
		c12.91,11.58,38.51,21.37,41.63,35.17c0,0,3.12,20.03-17.14,25.6c0,0-26.49,1.34-25.15-24.71l-16.03,4.45
		c0,0,1.78,28.27,29.38,34.95c0,0,23.6,4.9,37.4-14.91c0,0,9.57-10.02,6.01-28.72c0,0-1.56-14.25-19.59-25.82
		c-18.03-11.58-33.39-14.91-25.6-33.83c0,0,12.91-14.69,24.04,1.11L956.89,176.6z"/>
	<polygon class="st0" points="1065,146.25 1041.26,146.25 1041.26,61.37 1025.23,61.37 1025.23,146.25 1002.38,146.25 
		1002.38,161.69 1025.23,161.69 1025.23,265.86 1041.26,265.86 1041.26,161.69 1065,161.69 	"/>
	<rect x="619.51" y="61.67" class="st1" width="397.71" height="60.55"/>
	<g>
		<path class="st2" d="M639.99,111.22V73.91h22.4v6.31h-14.86v8.83h13.75v6.32h-13.75v15.85H639.99z"/>
		<path class="st2" d="M740.4,92.79c0-3.8,0.56-6.99,1.66-9.57c0.83-1.9,1.97-3.6,3.39-5.11c1.44-1.51,3-2.63,4.71-3.36
			c2.27-0.99,4.89-1.47,7.84-1.47c5.36,0,9.65,1.7,12.86,5.11c3.23,3.41,4.83,8.15,4.83,14.23c0,6.02-1.59,10.74-4.79,14.14
			c-3.19,3.4-7.46,5.1-12.81,5.1c-5.41,0-9.72-1.69-12.91-5.07C742,103.4,740.4,98.74,740.4,92.79z M747.97,92.54
			c0,4.23,0.95,7.43,2.85,9.61c1.9,2.18,4.33,3.27,7.25,3.27c2.93,0,5.33-1.09,7.22-3.25c1.87-2.16,2.81-5.4,2.81-9.73
			c0-4.28-0.91-7.47-2.74-9.57c-1.82-2.1-4.25-3.16-7.29-3.16c-3.03,0-5.47,1.06-7.31,3.19C748.89,85.04,747.97,88.25,747.97,92.54z
			"/>
		<path class="st2" d="M853.29,92.79c0-3.8,0.56-6.99,1.66-9.57c0.83-1.9,1.97-3.6,3.39-5.11c1.44-1.51,3-2.63,4.71-3.36
			c2.27-0.99,4.89-1.47,7.84-1.47c5.36,0,9.65,1.7,12.86,5.11c3.23,3.41,4.83,8.15,4.83,14.23c0,6.02-1.59,10.74-4.79,14.14
			c-3.19,3.4-7.46,5.1-12.81,5.1c-5.41,0-9.72-1.69-12.91-5.07C854.89,103.4,853.29,98.74,853.29,92.79z M860.86,92.54
			c0,4.23,0.95,7.43,2.85,9.61c1.9,2.18,4.33,3.27,7.25,3.27c2.93,0,5.33-1.09,7.22-3.25c1.87-2.16,2.81-5.4,2.81-9.73
			c0-4.28-0.91-7.47-2.74-9.57c-1.82-2.1-4.25-3.16-7.29-3.16c-3.03,0-5.47,1.06-7.31,3.19C861.78,85.04,860.86,88.25,860.86,92.54z
			"/>
		<path class="st2" d="M967.62,73.91h13.76c3.12,0,5.48,0.24,7.11,0.71c2.18,0.65,4.06,1.79,5.62,3.44
			c1.56,1.65,2.75,3.67,3.56,6.04c0.82,2.39,1.22,5.33,1.22,8.82c0,3.07-0.38,5.72-1.14,7.94c-0.93,2.71-2.27,4.91-3.99,6.59
			c-1.31,1.27-3.07,2.27-5.3,2.98c-1.66,0.52-3.88,0.79-6.66,0.79h-14.18V73.91z M975.14,80.22v24.72h5.63
			c2.1,0,3.62-0.12,4.55-0.35c1.22-0.31,2.24-0.82,3.05-1.55s1.46-1.93,1.96-3.6c0.51-1.67,0.77-3.95,0.77-6.83
			c0-2.89-0.25-5.1-0.77-6.64c-0.5-1.54-1.21-2.75-2.13-3.62c-0.92-0.86-2.09-1.45-3.49-1.75c-1.04-0.24-3.12-0.36-6.18-0.36H975.14
			z"/>
	</g>
	<g>
		<g>
			<path class="st3" d="M765.91,323.42l-25.78,2.33c0.4,2.93,1.36,5.15,2.89,6.66c1.53,1.51,3.88,2.12,7.04,1.84
				c1.58-0.14,3.39-0.53,5.42-1.17c2.03-0.63,4.35-1.59,6.96-2.85c2.37,2.05,4,4.97,4.87,8.75c-4.95,4.25-11.25,6.71-18.92,7.41
				c-4.16,0.38-7.71,0.03-10.64-1.04c-2.93-1.07-5.38-2.71-7.34-4.93c-1.97-2.22-3.46-4.92-4.48-8.09
				c-1.02-3.17-1.7-6.67-2.05-10.51c-0.33-3.7-0.2-7.16,0.41-10.38c0.61-3.22,1.72-6.07,3.32-8.55c1.61-2.48,3.76-4.5,6.45-6.08
				c2.69-1.58,5.92-2.53,9.68-2.88c3.17-0.29,6.08-0.02,8.72,0.81c2.64,0.83,4.94,2.09,6.89,3.77c1.95,1.69,3.52,3.78,4.71,6.27
				c1.19,2.49,1.92,5.26,2.2,8.3C766.64,317.12,766.52,320.56,765.91,323.42z M739.07,315.05l12.99-1.18l-0.1-1.09
				c-0.22-2.44-0.95-4.41-2.17-5.9c-1.23-1.49-2.92-2.13-5.08-1.94c-2.1,0.19-3.59,1.07-4.47,2.65
				C739.35,309.18,738.96,311.66,739.07,315.05z"/>
			<path class="st3" d="M800.09,290.34c1.68-0.55,3.78-0.94,6.29-1.17c2.51-0.23,4.99-0.08,7.43,0.43l0.49,0.96l-12.02,22.87
				l17.81,22.37c-3.23,2.62-6.53,4.09-9.9,4.39c-3.64,0.33-6.58-0.97-8.85-3.9l-7.33-9.23l-6.7,14.3c-1.22,0.51-3.37,0.9-6.44,1.18
				c-3.07,0.28-5.67,0.11-7.79-0.49l-0.58-0.85l13.02-25.06l-16.06-20.63c2.97-2.53,6.37-3.97,10.2-4.32
				c1.85-0.17,3.37,0.08,4.56,0.74c1.19,0.66,2.43,1.8,3.71,3.41l5.99,7.65L800.09,290.34z"/>
			<path class="st3" d="M850.42,336.66c-3.03,0.27-6.12-0.15-9.28-1.26l1.19,13.18c0.31,3.44-0.1,5.91-1.23,7.41
				c-1.13,1.5-3.28,2.4-6.45,2.68l-5.95,0.54l-0.76-0.63l-6.35-70.18l0.63-0.76l4.06-0.37c3.77-0.34,6.72,1.03,8.87,4.09
				c3.41-4.11,7.82-6.4,13.22-6.89c2.77-0.25,5.26,0.14,7.48,1.17c2.22,1.03,4.17,2.61,5.86,4.72c1.69,2.11,3.05,4.72,4.1,7.82
				c1.04,3.1,1.75,6.64,2.11,10.6c0.36,3.97,0.17,7.61-0.55,10.94c-0.73,3.33-1.88,6.2-3.45,8.61c-1.57,2.41-3.51,4.33-5.8,5.77
				C855.82,335.55,853.25,336.4,850.42,336.66z M844.99,297.27c-2.78,0.25-5.07,1.79-6.88,4.62l1.97,21.81
				c2.65,1.29,4.87,1.86,6.65,1.7c4.49-0.41,6.29-5.6,5.39-15.58C851.33,301.1,848.96,296.92,844.99,297.27z"/>
			<path class="st3" d="M872.6,290.98c0.21-1.35,0.7-2.88,1.48-4.58c0.78-1.7,1.6-2.96,2.46-3.77c6.12-0.09,10.62,2.54,13.5,7.87
				c1.97-6.17,5.83-9.52,11.58-10.04c1.72-0.16,3.92-0.09,6.61,0.2c0.19,2.05,0.06,4.51-0.38,7.38c-0.44,2.87-1.16,5.35-2.17,7.44
				c-1.16-0.29-2.88-0.47-5.15-0.53c-3.31,0.3-5.86,2.23-7.67,5.79l2.79,30.83c-2.14,0.59-4.69,1.02-7.63,1.29
				c-2.94,0.27-5.55,0.3-7.84,0.11l-2.9-32.02C876.85,295.99,875.29,292.67,872.6,290.98z"/>
			<path class="st3" d="M954.05,306.39l-25.78,2.33c0.4,2.93,1.36,5.15,2.89,6.66c1.53,1.51,3.88,2.12,7.04,1.84
				c1.58-0.14,3.39-0.53,5.42-1.17c2.03-0.63,4.35-1.59,6.96-2.85c2.37,2.05,4,4.97,4.87,8.75c-4.95,4.25-11.25,6.71-18.92,7.41
				c-4.16,0.38-7.71,0.03-10.64-1.04c-2.93-1.07-5.38-2.71-7.34-4.93c-1.97-2.22-3.46-4.92-4.48-8.09
				c-1.02-3.17-1.7-6.67-2.05-10.51c-0.33-3.7-0.2-7.16,0.41-10.38c0.61-3.22,1.72-6.07,3.32-8.55c1.61-2.48,3.76-4.5,6.45-6.08
				c2.69-1.58,5.92-2.53,9.68-2.88c3.17-0.29,6.08-0.02,8.72,0.81c2.64,0.83,4.94,2.09,6.89,3.77c1.95,1.69,3.52,3.78,4.71,6.27
				c1.19,2.49,1.92,5.26,2.2,8.3C954.78,300.1,954.66,303.54,954.05,306.39z M927.21,298.03l12.99-1.18l-0.1-1.09
				c-0.22-2.44-0.95-4.41-2.17-5.9c-1.23-1.49-2.92-2.13-5.09-1.94c-2.1,0.19-3.59,1.07-4.47,2.65
				C927.49,292.16,927.1,294.64,927.21,298.03z"/>
			<path class="st3" d="M962.27,322.14c-0.09-1.72,0.19-3.65,0.83-5.77c0.64-2.12,1.47-3.83,2.48-5.12
				c5.54,2.3,10.26,3.27,14.16,2.92c1.85-0.17,3.24-0.61,4.18-1.33c0.93-0.72,1.35-1.6,1.26-2.66c-0.18-1.98-1.83-3.33-4.96-4.05
				l-5.64-1.59c-8.54-2.29-13.11-6.87-13.74-13.75c-0.45-5.02,0.92-9.16,4.12-12.42c3.2-3.25,7.74-5.15,13.63-5.68
				c2.91-0.26,6.15-0.14,9.73,0.37c3.58,0.51,6.54,1.22,8.89,2.14c0.3,1.84,0.12,3.9-0.54,6.2c-0.66,2.29-1.58,3.96-2.75,5
				c-5.78-2.01-10.52-2.85-14.22-2.51c-1.32,0.12-2.3,0.51-2.94,1.17c-0.64,0.66-0.92,1.45-0.83,2.37c0.14,1.59,1.51,2.73,4.11,3.43
				l6.34,1.62c9.07,2.31,13.95,7.23,14.63,14.77c0.45,4.96-1.01,9.05-4.38,12.29c-3.37,3.24-8.43,5.16-15.17,5.77
				C974.7,325.91,968.31,324.86,962.27,322.14z"/>
			<path class="st3" d="M1006.18,318.17c-0.09-1.72,0.19-3.65,0.83-5.77c0.64-2.12,1.47-3.83,2.48-5.12
				c5.54,2.3,10.26,3.27,14.16,2.92c1.85-0.17,3.24-0.61,4.18-1.33c0.93-0.72,1.35-1.6,1.26-2.66c-0.18-1.98-1.83-3.33-4.96-4.05
				l-5.64-1.59c-8.54-2.29-13.11-6.87-13.74-13.75c-0.45-5.02,0.92-9.16,4.12-12.42c3.2-3.25,7.74-5.15,13.63-5.68
				c2.91-0.26,6.15-0.14,9.73,0.37c3.58,0.51,6.54,1.22,8.89,2.14c0.3,1.84,0.12,3.9-0.54,6.2c-0.66,2.29-1.58,3.96-2.75,5
				c-5.78-2.01-10.52-2.85-14.22-2.51c-1.32,0.12-2.3,0.51-2.94,1.17c-0.64,0.66-0.92,1.45-0.83,2.37c0.14,1.59,1.51,2.73,4.11,3.43
				l6.34,1.62c9.07,2.31,13.95,7.23,14.63,14.77c0.45,4.96-1.01,9.05-4.39,12.29c-3.37,3.24-8.43,5.16-15.17,5.77
				C1018.62,321.94,1012.22,320.89,1006.18,318.17z"/>
		</g>
		<g>
			<path class="st2" d="M765.91,323.42l-25.78,2.33c0.4,2.93,1.36,5.15,2.89,6.66c1.53,1.51,3.88,2.12,7.04,1.84
				c1.58-0.14,3.39-0.53,5.42-1.17c2.03-0.63,4.35-1.59,6.96-2.85c2.37,2.05,4,4.97,4.87,8.75c-4.95,4.25-11.25,6.71-18.92,7.41
				c-4.16,0.38-7.71,0.03-10.64-1.04c-2.93-1.07-5.38-2.71-7.34-4.93c-1.97-2.22-3.46-4.92-4.48-8.09
				c-1.02-3.17-1.7-6.67-2.05-10.51c-0.33-3.7-0.2-7.16,0.41-10.38c0.61-3.22,1.72-6.07,3.32-8.55c1.61-2.48,3.76-4.5,6.45-6.08
				c2.69-1.58,5.92-2.53,9.68-2.88c3.17-0.29,6.08-0.02,8.72,0.81c2.64,0.83,4.94,2.09,6.89,3.77c1.95,1.69,3.52,3.78,4.71,6.27
				c1.19,2.49,1.92,5.26,2.2,8.3C766.64,317.12,766.52,320.56,765.91,323.42z M739.07,315.05l12.99-1.18l-0.1-1.09
				c-0.22-2.44-0.95-4.41-2.17-5.9c-1.23-1.49-2.92-2.13-5.08-1.94c-2.1,0.19-3.59,1.07-4.47,2.65
				C739.35,309.18,738.96,311.66,739.07,315.05z"/>
			<path class="st2" d="M800.09,290.34c1.68-0.55,3.78-0.94,6.29-1.17c2.51-0.23,4.99-0.08,7.43,0.43l0.49,0.96l-12.02,22.87
				l17.81,22.37c-3.23,2.62-6.53,4.09-9.9,4.39c-3.64,0.33-6.58-0.97-8.85-3.9l-7.33-9.23l-6.7,14.3c-1.22,0.51-3.37,0.9-6.44,1.18
				c-3.07,0.28-5.67,0.11-7.79-0.49l-0.58-0.85l13.02-25.06l-16.06-20.63c2.97-2.53,6.37-3.97,10.2-4.32
				c1.85-0.17,3.37,0.08,4.56,0.74c1.19,0.66,2.43,1.8,3.71,3.41l5.99,7.65L800.09,290.34z"/>
			<path class="st2" d="M850.42,336.66c-3.03,0.27-6.12-0.15-9.28-1.26l1.19,13.18c0.31,3.44-0.1,5.91-1.23,7.41
				c-1.13,1.5-3.28,2.4-6.45,2.68l-5.95,0.54l-0.76-0.63l-6.35-70.18l0.63-0.76l4.06-0.37c3.77-0.34,6.72,1.03,8.87,4.09
				c3.41-4.11,7.82-6.4,13.22-6.89c2.77-0.25,5.26,0.14,7.48,1.17c2.22,1.03,4.17,2.61,5.86,4.72c1.69,2.11,3.05,4.72,4.1,7.82
				c1.04,3.1,1.75,6.64,2.11,10.6c0.36,3.97,0.17,7.61-0.55,10.94c-0.73,3.33-1.88,6.2-3.45,8.61c-1.57,2.41-3.51,4.33-5.8,5.77
				C855.82,335.55,853.25,336.4,850.42,336.66z M844.99,297.27c-2.78,0.25-5.07,1.79-6.88,4.62l1.97,21.81
				c2.65,1.29,4.87,1.86,6.65,1.7c4.49-0.41,6.29-5.6,5.39-15.58C851.33,301.1,848.96,296.92,844.99,297.27z"/>
			<path class="st2" d="M872.6,290.98c0.21-1.35,0.7-2.88,1.48-4.58c0.78-1.7,1.6-2.96,2.46-3.77c6.12-0.09,10.62,2.54,13.5,7.87
				c1.97-6.17,5.83-9.52,11.58-10.04c1.72-0.16,3.92-0.09,6.61,0.2c0.19,2.05,0.06,4.51-0.38,7.38c-0.44,2.87-1.16,5.35-2.17,7.44
				c-1.16-0.29-2.88-0.47-5.15-0.53c-3.31,0.3-5.86,2.23-7.67,5.79l2.79,30.83c-2.14,0.59-4.69,1.02-7.63,1.29
				c-2.94,0.27-5.55,0.3-7.84,0.11l-2.9-32.02C876.85,295.99,875.29,292.67,872.6,290.98z"/>
			<path class="st2" d="M954.05,306.39l-25.78,2.33c0.4,2.93,1.36,5.15,2.89,6.66c1.53,1.51,3.88,2.12,7.04,1.84
				c1.58-0.14,3.39-0.53,5.42-1.17c2.03-0.63,4.35-1.59,6.96-2.85c2.37,2.05,4,4.97,4.87,8.75c-4.95,4.25-11.25,6.71-18.92,7.41
				c-4.16,0.38-7.71,0.03-10.64-1.04c-2.93-1.07-5.38-2.71-7.34-4.93c-1.97-2.22-3.46-4.92-4.48-8.09
				c-1.02-3.17-1.7-6.67-2.05-10.51c-0.33-3.7-0.2-7.16,0.41-10.38c0.61-3.22,1.72-6.07,3.32-8.55c1.61-2.48,3.76-4.5,6.45-6.08
				c2.69-1.58,5.92-2.53,9.68-2.88c3.17-0.29,6.08-0.02,8.72,0.81c2.64,0.83,4.94,2.09,6.89,3.77c1.95,1.69,3.52,3.78,4.71,6.27
				c1.19,2.49,1.92,5.26,2.2,8.3C954.78,300.1,954.66,303.54,954.05,306.39z M927.21,298.03l12.99-1.18l-0.1-1.09
				c-0.22-2.44-0.95-4.41-2.17-5.9c-1.23-1.49-2.92-2.13-5.09-1.94c-2.1,0.19-3.59,1.07-4.47,2.65
				C927.49,292.16,927.1,294.64,927.21,298.03z"/>
			<path class="st2" d="M962.27,322.14c-0.09-1.72,0.19-3.65,0.83-5.77c0.64-2.12,1.47-3.83,2.48-5.12
				c5.54,2.3,10.26,3.27,14.16,2.92c1.85-0.17,3.24-0.61,4.18-1.33c0.93-0.72,1.35-1.6,1.26-2.66c-0.18-1.98-1.83-3.33-4.96-4.05
				l-5.64-1.59c-8.54-2.29-13.11-6.87-13.74-13.75c-0.45-5.02,0.92-9.16,4.12-12.42c3.2-3.25,7.74-5.15,13.63-5.68
				c2.91-0.26,6.15-0.14,9.73,0.37c3.58,0.51,6.54,1.22,8.89,2.14c0.3,1.84,0.12,3.9-0.54,6.2c-0.66,2.29-1.58,3.96-2.75,5
				c-5.78-2.01-10.52-2.85-14.22-2.51c-1.32,0.12-2.3,0.51-2.94,1.17c-0.64,0.66-0.92,1.45-0.83,2.37c0.14,1.59,1.51,2.73,4.11,3.43
				l6.34,1.62c9.07,2.31,13.95,7.23,14.63,14.77c0.45,4.96-1.01,9.05-4.38,12.29c-3.37,3.24-8.43,5.16-15.17,5.77
				C974.7,325.91,968.31,324.86,962.27,322.14z"/>
			<path class="st2" d="M1006.18,318.17c-0.09-1.72,0.19-3.65,0.83-5.77c0.64-2.12,1.47-3.83,2.48-5.12
				c5.54,2.3,10.26,3.27,14.16,2.92c1.85-0.17,3.24-0.61,4.18-1.33c0.93-0.72,1.35-1.6,1.26-2.66c-0.18-1.98-1.83-3.33-4.96-4.05
				l-5.64-1.59c-8.54-2.29-13.11-6.87-13.74-13.75c-0.45-5.02,0.92-9.16,4.12-12.42c3.2-3.25,7.74-5.15,13.63-5.68
				c2.91-0.26,6.15-0.14,9.73,0.37c3.58,0.51,6.54,1.22,8.89,2.14c0.3,1.84,0.12,3.9-0.54,6.2c-0.66,2.29-1.58,3.96-2.75,5
				c-5.78-2.01-10.52-2.85-14.22-2.51c-1.32,0.12-2.3,0.51-2.94,1.17c-0.64,0.66-0.92,1.45-0.83,2.37c0.14,1.59,1.51,2.73,4.11,3.43
				l6.34,1.62c9.07,2.31,13.95,7.23,14.63,14.77c0.45,4.96-1.01,9.05-4.39,12.29c-3.37,3.24-8.43,5.16-15.17,5.77
				C1018.62,321.94,1012.22,320.89,1006.18,318.17z"/>
		</g>
	</g>
	<path class="st4" d="M1061.08,354.74v17.7c0,0-149.18-21.93-374.57,19.74l11.84-5.92C698.34,386.26,939.4,332.27,1061.08,354.74z"
		/>
</g>
</svg>
