<?xml version="1.0" encoding="utf-8"?>
<!-- Generator: Adobe Illustrator 25.3.1, SVG Export Plug-In . SVG Version: 6.00 Build 0)  -->
<svg version="1.1" id="Layer_1" xmlns="http://www.w3.org/2000/svg" xmlns:xlink="http://www.w3.org/1999/xlink" x="0px" y="0px"
	 viewBox="0 0 512 512" style="enable-background:new 0 0 512 512;" xml:space="preserve">
<style type="text/css">
	.st0{fill:#FFFFFF;}
</style>
<path class="st0" d="M496,116.48V76L256,16L16,76v40.64l29.28-7.36v102.4H16v136.64v11.04V496h5.6h131.36H164h136.64h189.92v-11.04
	h-23.68V109.12L496,116.48z M152.8,484.96H27.2V359.2h28.16v73.28h69.44V359.2h28V484.96z M66.08,421.6v-62.24h47.68v62.24H66.08z
	 M152.8,348.32h-28.16H55.2H27.04V222.56H55.2v73.28h69.6v-73.28h28.16v125.76H152.8z M66.08,284.8v-62.24h47.68v62.24H66.08z
	 M289.6,484.96H163.84V359.2H192v73.28h69.6V359.2h28.16L289.6,484.96L289.6,484.96z M202.88,421.6v-62.24h47.68v62.24H202.88z
	 M395.84,484.96h-95.2V348.32h-39.2h-69.6h-28.16V306.4h232L395.84,484.96L395.84,484.96z M395.84,295.36h-232v-22.08h232V295.36z
	 M395.84,262.24h-232v-22.08h232V262.24z M395.84,229.28h-232v-17.76h-39.2h-8.48v-4.32h279.52v22.08H395.84z M395.84,196.16H116.16
	v-13.44h279.52v13.44H395.84z M455.68,484.96h-48.8V171.68H105.44v39.68h-48.8V106.24l199.52-49.92l199.52,49.92V484.96
	L455.68,484.96z M256,45.12L27.2,102.4V84.48L256,27.2l228.8,57.28v17.92L256,45.12z M192.32,138.56h128.16V83.68H192.32V138.56z
	 M203.2,94.72h106.24v32.96H203.2V94.72z M113.76,322.56h11.04v15.04h-11.04V322.56z M113.76,459.36h11.04v15.04h-11.04V459.36z
	 M250.56,459.36h11.04v15.04h-11.04C250.56,474.4,250.56,459.36,250.56,459.36z"/>
</svg>
