<?xml version="1.0" encoding="utf-8"?>
<!-- Generator: Adobe Illustrator 25.3.1, SVG Export Plug-In . SVG Version: 6.00 Build 0)  -->
<svg version="1.1" id="Layer_1" xmlns="http://www.w3.org/2000/svg" xmlns:xlink="http://www.w3.org/1999/xlink" x="0px" y="0px"
	 viewBox="0 0 32 32" style="enable-background:new 0 0 32 32;" xml:space="preserve">
<path d="M20.22,7.82h-0.69V5.13h0.69V7.82z M17.28,4.02h-0.69v2.69h0.69V4.02z M14.33,5.13h-0.69v2.69h0.69V5.13z M28.32,16.75v5.71
	h0.59c1.15,0,2.1,0.94,2.1,2.1v1.49c0,1.3-1.06,2.36-2.36,2.36h-1.73c-0.35,0-0.65-0.21-0.79-0.51h-2.04l0.22,1.99H15.9
	C15.75,30.52,15.17,31,14.48,31H5.16c-0.81,0-1.46-0.66-1.46-1.46s0.66-1.46,1.46-1.46h0.77c-0.88-0.54-1.55-1.36-1.9-2.34H2.77
	C1.8,25.75,1,24.96,1,23.98c0-0.98,0.79-1.77,1.77-1.77h3.51c0.03-2.64,2.18-4.77,4.82-4.77c0.36,0,0.7-0.11,1.01-0.3
	c0.28-0.19,0.49-0.48,0.62-0.79c-0.98-1.04-1.58-2.43-1.58-3.96l0,0v-0.02v-0.35v-0.45v-0.84v-3.2c-0.67-0.55-1.06-1.37-1.06-2.24
	c0-1.6,1.3-2.9,2.9-2.9h0.94C14.67,1.51,15.75,1,16.92,1s2.25,0.51,2.99,1.4h0.94c1.6,0,2.9,1.3,2.9,2.9c0,0.86-0.39,1.69-1.06,2.24
	v3.2v0.82v0.46v0.35v0.02l0,0c0,1.53-0.6,2.92-1.58,3.96c0.14,0.31,0.34,0.6,0.62,0.79c0.29,0.2,0.64,0.3,1.01,0.3
	c2.66,0,4.82,2.17,4.82,4.83v0.18h0.06v-5.71h-1.18c-0.83,0-1.5-0.68-1.5-1.5v-4.49c0-0.83,0.68-1.5,1.5-1.5h3.05
	c0.83,0,1.5,0.68,1.5,1.5v4.49c0,0.83-0.68,1.5-1.5,1.5L28.32,16.75L28.32,16.75z M3.84,25.05c-0.05-0.28-0.09-0.58-0.09-0.88v-1.28
	H2.79c-0.6,0-1.08,0.49-1.08,1.08c0,0.6,0.49,1.08,1.08,1.08L3.84,25.05L3.84,25.05z M21.31,20.92h1.09v-2.83
	c-0.28-0.04-0.55-0.13-0.81-0.27c-0.09,0.08-0.18,0.16-0.28,0.24V20.92z M22.02,11.09c-0.02-0.01-0.04-0.02-0.05-0.03
	c-0.33-0.22-0.69-0.41-1.05-0.59c-0.05-0.03-0.1-0.05-0.16-0.07c0.15,0.61,0.63,1.1,1.25,1.23V11.09z M11.7,7.08l0.14,0.1v3.09
	c0.1-0.05,0.2-0.11,0.3-0.16c0.08-0.05,0.16-0.09,0.26-0.14c0.31-0.16,0.62-0.31,0.95-0.44l0.39-0.16v0.02c2.06-0.7,4.3-0.7,6.35,0
	V9.37l0.39,0.16c0,0,0,0,0.01,0c0.34,0.14,0.67,0.28,0.99,0.45c0.05,0.03,0.11,0.05,0.16,0.09c0.12,0.06,0.24,0.13,0.36,0.19V7.18
	l0.14-0.1c0.59-0.43,0.92-1.08,0.92-1.8c0-1.22-0.99-2.22-2.22-2.22h-1.28l-0.1-0.14c-0.61-0.81-1.55-1.26-2.55-1.26
	s-1.94,0.46-2.55,1.26l-0.1,0.14h-1.28c-1.22,0-2.22,0.99-2.22,2.22C10.79,6.01,11.12,6.66,11.7,7.08z M12.93,10.48
	c-0.31,0.15-0.6,0.31-0.89,0.49c-0.06,0.04-0.14,0.08-0.19,0.12v0.54c0.62-0.13,1.11-0.61,1.25-1.23
	C13.04,10.44,12.98,10.46,12.93,10.48z M16.93,17.47c2.8,0,5.08-2.28,5.08-5.08v-0.05c-1.1-0.16-1.94-1.09-1.98-2.23
	c-2-0.71-4.21-0.71-6.22,0c-0.04,1.14-0.88,2.06-1.98,2.23v0.05l0,0C11.85,15.19,14.13,17.47,16.93,17.47z M21.02,17.42
	c-0.17-0.16-0.32-0.37-0.44-0.58c-1,0.82-2.27,1.31-3.65,1.31s-2.65-0.49-3.65-1.31c-0.12,0.21-0.27,0.4-0.44,0.58
	c1.15,0.95,2.58,1.48,4.09,1.48C18.44,18.9,19.87,18.38,21.02,17.42z M16.93,19.59c-1.32,0-2.59-0.37-3.7-1.04v2.38h7.4v-2.38
	C19.52,19.22,18.25,19.59,16.93,19.59z M11.45,20.92h1.09v-2.85c-0.1-0.07-0.19-0.16-0.28-0.24c-0.26,0.13-0.52,0.22-0.81,0.27
	L11.45,20.92L11.45,20.92z M6.98,22.21h3.42l0.14-1.28h0.23v-2.77C8.67,18.33,7.01,20.07,6.98,22.21z M8.32,28.07h3.02
	c2.15,0,3.89-1.75,3.89-3.89v-1.28H4.42v1.28C4.43,26.32,6.18,28.07,8.32,28.07z M15.27,29.53c0-0.43-0.35-0.77-0.77-0.77h-3.15
	H8.33H5.18c-0.43,0-0.77,0.35-0.77,0.77c0,0.42,0.35,0.77,0.77,0.77h9.33C14.92,30.3,15.27,29.96,15.27,29.53z M23.54,29.19
	l-0.84-7.58H11.15l-0.06,0.6h5.79c0.97,0,1.77,0.79,1.77,1.77s-0.79,1.77-1.77,1.77h-1.25c-0.36,0.98-1.03,1.8-1.9,2.34h0.77
	c0.69,0,1.26,0.48,1.42,1.12L23.54,29.19L23.54,29.19z M16.88,25.05c0.6,0,1.08-0.49,1.08-1.08c0-0.6-0.49-1.08-1.08-1.08h-0.96
	v1.28c0,0.3-0.04,0.6-0.09,0.88L16.88,25.05L16.88,25.05z M25.8,23.56c0-0.6,0.49-1.09,1.08-1.11v-0.19c0-2.16-1.68-3.93-3.8-4.1
	v2.77h0.23l0.7,6.27h2.11c0.02-0.05,0.05-0.08,0.08-0.13c-0.17-0.17-0.28-0.41-0.28-0.68c0-0.23,0.09-0.44,0.23-0.6
	c-0.19-0.19-0.3-0.45-0.3-0.74c0-0.27,0.11-0.5,0.27-0.7C25.93,24.15,25.8,23.87,25.8,23.56z M26.92,23.14
	c-0.24,0-0.43,0.19-0.43,0.43c0,0.24,0.19,0.43,0.43,0.43h0.61v0.69h-0.61c-0.2,0-0.37,0.16-0.37,0.37s0.16,0.37,0.37,0.37h0.61
	v0.69h-0.61c-0.16,0-0.29,0.13-0.29,0.29s0.13,0.29,0.29,0.29h0.61v0.69h-0.61c-0.09,0-0.17,0.07-0.17,0.17s0.07,0.17,0.17,0.17
	h1.73c0.92,0,1.68-0.75,1.68-1.68v-1.49c0-0.78-0.63-1.41-1.41-1.41L26.92,23.14L26.92,23.14z M29.5,16.06
	c0.45,0,0.81-0.37,0.81-0.82v-4.49c0-0.45-0.37-0.82-0.81-0.82h-3.05c-0.45,0-0.81,0.37-0.81,0.82v4.49c0,0.45,0.37,0.82,0.81,0.82
	H29.5z M8.74,13.82c0.48-0.49,1.02-1.04,1.02-2.11H9.07c0,0.8-0.38,1.18-0.81,1.63c-0.48,0.49-1.02,1.04-1.02,2.11h0.69
	C7.92,14.66,8.3,14.27,8.74,13.82z M5.43,16.08c0.48-0.49,1.02-1.04,1.02-2.11H5.76c0,0.8-0.38,1.18-0.81,1.63
	c-0.48,0.49-1.02,1.04-1.02,2.11h0.69C4.61,16.91,4.99,16.53,5.43,16.08z M15.93,12.33l0.41-0.55c-1.08-0.81-2.22-0.35-2.66,0
	l0.42,0.54C14.11,12.32,15.01,11.64,15.93,12.33z M19.76,12.32l0.42-0.54c-0.45-0.36-1.58-0.82-2.66,0l0.41,0.55
	C18.85,11.64,19.72,12.29,19.76,12.32z"/>
</svg>
