<?xml version="1.0" encoding="utf-8"?>
<!-- Generator: Adobe Illustrator 25.3.1, SVG Export Plug-In . SVG Version: 6.00 Build 0)  -->
<svg version="1.1" id="Layer_1" xmlns="http://www.w3.org/2000/svg" xmlns:xlink="http://www.w3.org/1999/xlink" x="0px" y="0px"
	 viewBox="0 0 32 32" style="enable-background:new 0 0 32 32;" xml:space="preserve">
<path d="M16.01,1L1,8.5V31h1.83h8.55h0.69h7.86h0.69h8.55H31V8.5L16.01,1z M11.39,30.3H3.53v-7.86h1.76v4.44l2.18,1.09l2.18-1.09
	v-4.45h1.76v7.87H11.39z M5.97,26.46v-4.02h2.98v4.02l-1.48,0.74L5.97,26.46z M11.39,21.75H9.63H5.28H3.52v-7.86h1.76v4.45
	l2.18,1.09l2.18-1.09v-4.45h1.76L11.39,21.75L11.39,21.75z M5.97,17.92v-4.02h2.98v4.02l-1.48,0.74L5.97,17.92z M19.94,30.3h-7.86
	v-7.86h1.76v4.44l2.18,1.09l2.18-1.09v-4.45h1.76v7.87H19.94z M14.52,26.46v-4.02h2.98v4.02l-1.48,0.74L14.52,26.46z M19.94,21.75
	h-1.76h-4.35h-1.76v-7.86h1.76v4.45l2.18,1.09l2.18-1.09v-4.45h1.76L19.94,21.75L19.94,21.75z M14.52,17.92v-4.02h2.98v4.02
	l-1.48,0.74L14.52,17.92z M28.5,30.3h-7.86v-7.86h1.76v4.44l2.18,1.09l2.18-1.09v-4.45h1.76v7.87H28.5z M23.07,26.46v-4.02h2.98
	v4.02l-1.48,0.74L23.07,26.46z M28.5,21.75h-1.76h-4.35h-1.76v-7.86h1.76v4.45l2.18,1.09l2.18-1.09v-4.45h1.76L28.5,21.75
	L28.5,21.75z M23.07,17.92v-4.02h2.98v4.02l-1.48,0.74L23.07,17.92z M28.5,13.2h-1.76h-4.35h-1.76h-0.69h-1.76h-4.35h-1.76h-0.69
	H9.62H5.27H3.51v-0.84h24.97v0.84H28.5z M28.5,11.67H3.53v-0.84H28.5V11.67z M30.33,30.3h-1.15v-7.86v-0.69v-8.55v-3.05H2.84v3.05
	v8.55v0.69v7.86H1.7V8.93l14.31-7.16l14.31,7.16L30.33,30.3L30.33,30.3z M8.26,14.57h-1.6v2.52h1.6V14.57z M7.57,16.4H7.34v-1.15
	h0.23V16.4z M16.82,14.57h-1.6v2.52h1.6V14.57z M16.13,16.4H15.9v-1.15h0.23V16.4z M12.02,8.71h8.02V5.27h-8.02V8.71z M12.71,5.96
	h6.64v2.06h-6.64V5.96z M25.36,14.57h-1.6v2.52h1.6V14.57z M24.68,16.4h-0.23v-1.15h0.23V16.4z M8.26,23.13h-1.6v2.52h1.6V23.13z
	 M7.57,24.96H7.34v-1.15h0.23V24.96z M16.82,23.13h-1.6v2.52h1.6V23.13z M16.13,24.96H15.9v-1.15h0.23V24.96z M25.36,23.13h-1.6
	v2.52h1.6V23.13z M24.68,24.96h-0.23v-1.15h0.23V24.96z"/>
</svg>
