<?xml version="1.0" encoding="utf-8"?>
<!-- Generator: Adobe Illustrator 25.3.1, SVG Export Plug-In . SVG Version: 6.00 Build 0)  -->
<svg version="1.1" id="Layer_1" xmlns="http://www.w3.org/2000/svg" xmlns:xlink="http://www.w3.org/1999/xlink" x="0px" y="0px"
	 viewBox="0 0 32 32" style="enable-background:new 0 0 32 32;" xml:space="preserve">
<path d="M5.27,20.65c-0.45,0-0.81,0.37-0.81,0.81c0,0.45,0.37,0.81,0.81,0.81s0.81-0.37,0.81-0.81C6.07,21.02,5.71,20.65,5.27,20.65
	z M5.15,21.47c0-0.06,0.05-0.12,0.12-0.12c0.06,0,0.12,0.05,0.12,0.12C5.39,21.6,5.15,21.6,5.15,21.47z M27.01,20.65
	c-0.45,0-0.81,0.37-0.81,0.81c0,0.45,0.37,0.81,0.81,0.81c0.45,0,0.81-0.37,0.81-0.81C27.81,21.02,27.45,20.65,27.01,20.65z
	 M26.89,21.47c0-0.06,0.05-0.12,0.12-0.12s0.12,0.05,0.12,0.12C27.13,21.6,26.89,21.6,26.89,21.47z M31,16.86L31,16.86v-0.34
	c0-0.44-0.21-0.84-0.57-1.1l-1.62-1.15l-0.6-2.24C27.89,10.83,26.8,10,25.57,10h-2.1V8.18H1v13.12h1.91c0,0.05-0.02,0.1-0.02,0.16
	c0,1.31,1.06,2.37,2.37,2.37s2.37-1.06,2.37-2.37c0-0.05-0.01-0.11-0.02-0.16h7.92v1h4.94v-1h4.17c0,0.05-0.02,0.1-0.02,0.16
	c0,1.31,1.06,2.37,2.37,2.37s2.37-1.06,2.37-2.37c0-0.05-0.01-0.11-0.02-0.16h0.51c0.58,0,1.04-0.44,1.1-1H31v-0.12l0,0l0,0v-1.15
	l0,0L31,16.86L31,16.86z M30.3,18.35h-0.41v-0.8h0.41V18.35z M23.47,10.7h2.1c0.93,0,1.73,0.62,1.97,1.51l0.52,1.93h-4.59V10.7z
	 M23.47,14.83h4.93l0.76,0.54h-5.68L23.47,14.83L23.47,14.83z M1.69,8.87h21.1v7.99H1.69L1.69,8.87L1.69,8.87z M5.27,23.15
	c-0.93,0-1.69-0.76-1.69-1.69c0-0.93,0.76-1.69,1.69-1.69s1.69,0.76,1.69,1.69C6.95,22.39,6.19,23.15,5.27,23.15z M15.55,20.62H7.48
	c-0.05-0.11-0.09-0.21-0.15-0.31h8.23L15.55,20.62L15.55,20.62z M19.8,21.62h-3.56v-1.31h3.56V21.62z M20.14,19.62h-4.25h-0.35h-8.8
	c-0.4-0.33-0.92-0.53-1.47-0.53c-1.01,0-1.87,0.63-2.21,1.53H1.68v-3.07h21.1v2.07h-2.3H20.14z M27.01,23.15
	c-0.93,0-1.69-0.76-1.69-1.69c0-0.93,0.76-1.69,1.69-1.69s1.69,0.76,1.69,1.69C28.69,22.39,27.93,23.15,27.01,23.15z M28.82,19.96
	c-0.44-0.52-1.08-0.87-1.82-0.87c-1.01,0-1.87,0.63-2.21,1.53h-4.31v-0.31h2.99v-4.26h6.61c0.14,0.13,0.22,0.29,0.22,0.48v0.34h-1.1
	v2.17h1.1v0.93L28.82,19.96L28.82,19.96z"/>
</svg>
