<?xml version="1.0" encoding="utf-8"?>
<!-- Generator: Adobe Illustrator 25.3.1, SVG Export Plug-In . SVG Version: 6.00 Build 0)  -->
<svg version="1.1" id="Layer_1" xmlns="http://www.w3.org/2000/svg" xmlns:xlink="http://www.w3.org/1999/xlink" x="0px" y="0px"
	 viewBox="0 0 24 24" style="enable-background:new 0 0 24 24;" xml:space="preserve">
<style type="text/css">
	.st0{fill:#FFFFFF;}
</style>
<path class="st0" d="M20.06,15.52V7.61c1.78-0.14,3.19-1.61,3.19-3.42c0-1.9-1.55-3.44-3.44-3.44c-1.81,0-3.28,1.41-3.42,3.19h-1.24
	V1.75h-3.56v-1H4.31v1H0.75v19.23H9.8v0.93h1.05c0.12,0.77,0.78,1.35,1.58,1.35s1.45-0.59,1.58-1.35h3.91
	c0.12,0.76,0.78,1.34,1.58,1.34s1.45-0.59,1.58-1.35h2.17v-2.21l-1.97-4.17L20.06,15.52L20.06,15.52z M19.79,1.26
	c1.61,0,2.92,1.31,2.92,2.92S21.4,7.1,19.79,7.1s-2.92-1.31-2.92-2.93S18.18,1.26,19.79,1.26z M15.14,4.45h1.24
	c0.13,1.69,1.47,3.04,3.16,3.16v7.9h-1.27v-1.15h-3.12C15.14,14.35,15.14,4.45,15.14,4.45z M17.74,14.88v3.72H10.3v-3.72H17.74z
	 M11.57,2.26h3.05v12.11h-1.34V3.59h-1.72L11.57,2.26L11.57,2.26z M4.83,1.26h6.24v2.82H4.83V1.26z M9.79,19.12v1.34H1.26V2.26h3.05
	V3.6H2.59v15.52H9.79L9.79,19.12z M9.79,18.61H3.11V4.1h1.21v0.49h7.27V4.1h1.21v10.27h-3L9.79,18.61L9.79,18.61z M12.42,22.72
	c-0.6,0-1.1-0.49-1.1-1.09c0-0.61,0.49-1.1,1.1-1.1c0.61,0,1.1,0.49,1.1,1.1C13.51,22.24,13.02,22.72,12.42,22.72z M19.49,22.72
	c-0.6,0-1.1-0.49-1.1-1.09c0-0.61,0.49-1.1,1.09-1.1s1.09,0.49,1.09,1.1C20.59,22.24,20.09,22.72,19.49,22.72z M22.72,21.38h-1.66
	c-0.12-0.76-0.78-1.35-1.58-1.35s-1.45,0.58-1.58,1.35h-3.91c-0.12-0.76-0.78-1.35-1.58-1.35s-1.46,0.58-1.58,1.35H10.3v-2.26h7.95
	v-3.1h2.69l1.77,3.72L22.72,21.38L22.72,21.38z M19.2,5.64l-0.93-0.93l0.37-0.37L19.2,4.9l1.7-1.7l0.37,0.37L19.2,5.64z M4.88,8.35
	L3.95,7.42l0.37-0.37l0.56,0.56l1.7-1.7l0.37,0.37L4.88,8.35z M4.88,12.39l-0.93-0.93l0.37-0.37l0.56,0.56l1.7-1.7l0.37,0.37
	L4.88,12.39z M3.88,17.93h4.13V13.8H3.89C3.89,13.8,3.89,17.93,3.88,17.93z M4.39,14.32h3.1v3.1h-3.1V14.32z M7.75,5.36h4.39v0.52
	H7.75V5.36z M7.75,6.78h3.18V7.3H7.75V6.78z M7.75,8.2h3.18v0.52H7.75V8.2z M7.75,9.61h3.18v0.52H7.75V9.61z M7.75,11.03h3.18v0.52
	H7.75V11.03z M7.75,12.45h3.18v0.52H7.75V12.45z"/>
</svg>
