<?xml version="1.0" encoding="utf-8"?>
<!-- Generator: Adobe Illustrator 25.3.1, SVG Export Plug-In . SVG Version: 6.00 Build 0)  -->
<svg version="1.1" id="Layer_1" xmlns="http://www.w3.org/2000/svg" xmlns:xlink="http://www.w3.org/1999/xlink" x="0px" y="0px"
	 viewBox="0 0 24 24" style="enable-background:new 0 0 24 24;" xml:space="preserve">
<style type="text/css">
	.st0{fill:#FFFFFF;}
</style>
<path class="st0" d="M23.25,16.4v-2.53l-3.01-5.56H15.6V3.84H0.75v7.9v3.57v2.26h2.66c-0.01,0.08-0.02,0.15-0.02,0.23
	c0,0.74,0.36,1.4,0.89,1.83H1v0.52h21.98v-0.52h-2.73c0.54-0.43,0.89-1.09,0.89-1.83c0-0.08-0.02-0.15-0.02-0.23h0.8L23.25,16.4z
	 M22.4,13.34h-5.36v-3.4h3.49L22.4,13.34z M1.27,12.26h1.18v2.54H1.27V12.26z M1.27,17.08v-1.75h1.69v-3.57H1.27V4.37h13.82v4.21
	v0.26v8.25H7.95c-0.31-0.93-1.18-1.6-2.21-1.6s-1.9,0.67-2.21,1.6L1.27,17.08L1.27,17.08z M5.73,19.65c-1.01,0-1.83-0.82-1.83-1.83
	s0.82-1.83,1.83-1.83s1.83,0.82,1.83,1.83C7.57,18.83,6.74,19.65,5.73,19.65z M7.18,19.65c0.54-0.44,0.89-1.09,0.89-1.83
	c0-0.08-0.02-0.15-0.02-0.22h8.44c-0.01,0.08-0.02,0.15-0.02,0.22c0,0.74,0.36,1.4,0.89,1.83H7.18z M18.82,19.65
	c-1.01,0-1.83-0.82-1.83-1.83s0.82-1.83,1.83-1.83s1.83,0.82,1.83,1.83S19.82,19.65,18.82,19.65z M21.03,17.08
	c-0.31-0.93-1.18-1.6-2.21-1.6s-1.91,0.67-2.21,1.6h-1V8.83h4.32l0.33,0.6h-3.73v4.43h6.16l0.05,0.09v2.24l-0.98,0.89H21.03z
	 M13.29,7.11H5.04V6.59h8.25V7.11z M9.46,8.31h3.82v0.52H9.46V8.31z M18.82,16.89c-0.52,0-0.93,0.42-0.93,0.93
	c0,0.52,0.42,0.93,0.93,0.93s0.93-0.42,0.93-0.93C19.75,17.3,19.33,16.89,18.82,16.89z M18.82,18.23c-0.23,0-0.41-0.19-0.41-0.41
	s0.19-0.41,0.41-0.41s0.41,0.19,0.41,0.41C19.23,18.05,19.04,18.23,18.82,18.23z M5.73,16.89c-0.52,0-0.93,0.42-0.93,0.93
	c0,0.52,0.42,0.93,0.93,0.93s0.93-0.42,0.93-0.93C6.67,17.3,6.25,16.89,5.73,16.89z M5.73,18.23c-0.23,0-0.41-0.19-0.41-0.41
	s0.19-0.41,0.41-0.41s0.41,0.19,0.41,0.41C6.15,18.05,5.96,18.23,5.73,18.23z"/>
</svg>
