<?xml version="1.0" encoding="utf-8"?>
<!-- Generator: Adobe Illustrator 25.3.1, SVG Export Plug-In . SVG Version: 6.00 Build 0)  -->
<svg version="1.1" id="Layer_1" xmlns="http://www.w3.org/2000/svg" xmlns:xlink="http://www.w3.org/1999/xlink" x="0px" y="0px"
	 viewBox="0 0 24 24" style="enable-background:new 0 0 24 24;" xml:space="preserve">
<style type="text/css">
	.st0{fill:#FFFFFF;}
</style>
<path class="st0" d="M21.06,20.68v-7.16c0.82-0.14,1.45-0.85,1.45-1.7v-1c0-0.37-0.12-0.71-0.33-1.02L20.4,7.35h-4.78V6.83h3.61
	V0.75H4.79v6.08H8.4v0.52H3.46L1.68,9.81c-0.21,0.29-0.33,0.64-0.33,1.02v1c0,0.91,0.71,1.65,1.6,1.72v7.15h-2.2v2.56h22.5v-2.57
	h-2.19V20.68z M21.99,11.83c0,0.67-0.54,1.22-1.22,1.22c-0.67,0-1.22-0.54-1.22-1.21V11.1h2.43L21.99,11.83L21.99,11.83z
	 M6.46,13.93v6.76H3.47v-7.18c0.46-0.1,0.85-0.4,1.09-0.79c0.3,0.5,0.86,0.84,1.48,0.84s1.17-0.34,1.48-0.84
	c0.3,0.5,0.86,0.84,1.48,0.84s1.17-0.34,1.48-0.84c0.3,0.5,0.86,0.84,1.48,0.84s1.17-0.34,1.48-0.84c0.3,0.5,0.85,0.84,1.48,0.84
	c0.62,0,1.17-0.34,1.48-0.84c0.3,0.5,0.85,0.84,1.48,0.84c0.62,0,1.17-0.34,1.48-0.84c0.27,0.44,0.71,0.74,1.25,0.81v7.16h-2.99
	v-6.76H6.46L6.46,13.93z M17.02,14.45v6.25h-4.76v-6.25C12.26,14.45,17.02,14.45,17.02,14.45z M11.75,14.45v6.25H6.99v-6.25
	C6.99,14.45,11.75,14.45,11.75,14.45z M4.82,11.83v-0.74h2.47c-0.02,0.25-0.04,0.5-0.04,0.74c0,0.67-0.54,1.22-1.21,1.22
	C5.36,13.04,4.82,12.49,4.82,11.83z M7.76,11.83c0-0.25,0.02-0.49,0.04-0.74h2.4v0.74c0,0.67-0.54,1.22-1.21,1.22
	C8.31,13.04,7.76,12.49,7.76,11.83z M8.91,7.36V6.83h6.18v0.53L8.91,7.36L8.91,7.36z M13.13,10.57h-2.41
	c0.01-0.2,0.02-0.39,0.04-0.58l0.29-2.12h1.75l0.28,2.12C13.12,10.18,13.12,10.37,13.13,10.57z M10.71,11.09h2.43v0.74
	c0,0.68-0.54,1.22-1.22,1.22c-0.67,0-1.22-0.54-1.22-1.22v-0.74H10.71z M13.66,11.83v-0.74h2.4c0.02,0.25,0.04,0.5,0.04,0.74
	c0,0.67-0.54,1.22-1.22,1.22C14.21,13.04,13.66,12.49,13.66,11.83z M16.58,11.09h2.47v0.74c0,0.68-0.54,1.22-1.22,1.22
	c-0.67,0-1.22-0.54-1.22-1.22C16.6,11.58,16.6,11.33,16.58,11.09z M20.14,7.88l1.62,2.25c0.1,0.14,0.16,0.29,0.2,0.45h-2.41
	c-0.01-0.22-0.06-0.43-0.15-0.63l-0.98-2.07H20.14z M17.84,7.88l1.08,2.29c0.06,0.13,0.09,0.27,0.1,0.4H16.5
	c-0.09-0.58-0.23-1.14-0.43-1.69l-0.38-1.01L17.84,7.88L17.84,7.88z M15.99,10.57h-2.34c-0.01-0.22-0.02-0.44-0.04-0.66l-0.28-2.04
	h1.81l0.45,1.19C15.77,9.55,15.91,10.06,15.99,10.57z M5.3,6.32V1.27h13.4v5.04h-3.1H8.4H5.3V6.32z M8.72,7.88h1.82l-0.29,2.04
	c-0.03,0.21-0.04,0.44-0.04,0.66H7.88c0.08-0.52,0.21-1.02,0.4-1.51L8.72,7.88z M8.17,7.88L7.79,8.89C7.58,9.44,7.43,10,7.35,10.57
	H4.83c0.01-0.14,0.04-0.28,0.11-0.4l1.09-2.29H8.17L8.17,7.88z M2.1,10.12l1.62-2.25h1.73L4.47,9.94c-0.1,0.2-0.13,0.41-0.15,0.63
	H1.91C1.94,10.41,2,10.25,2.1,10.12z M1.87,11.83v-0.74H4.3v0.74c0,0.67-0.54,1.22-1.22,1.22C2.41,13.04,1.87,12.49,1.87,11.83z
	 M22.74,22.73H1.27V21.2h1.68h3.51h11.08h3.51h1.68L22.74,22.73L22.74,22.73z M11.15,18.96h-0.52v-1.1h0.52V18.96z M13.37,18.96
	h-0.52v-1.1h0.52C13.37,17.86,13.37,18.96,13.37,18.96z M8.32,5.83c-0.6,0-1.09-0.49-1.09-1.09h0.52c0,0.32,0.26,0.57,0.57,0.57
	c0.32,0,0.57-0.26,0.57-0.57S8.64,4.17,8.32,4.17c-0.6,0-1.09-0.49-1.09-1.09s0.49-1.09,1.09-1.09s1.09,0.49,1.09,1.09H8.9
	c0-0.32-0.26-0.57-0.57-0.57c-0.31,0-0.57,0.25-0.57,0.57s0.26,0.57,0.57,0.57c0.6,0,1.09,0.49,1.09,1.09S8.93,5.83,8.32,5.83z
	 M13.47,5.83c0.6,0,1.09-0.49,1.09-1.09V3.08c0-0.6-0.49-1.09-1.09-1.09s-1.09,0.49-1.09,1.09v1.66
	C12.38,5.34,12.87,5.83,13.47,5.83z M12.89,3.08c0-0.32,0.25-0.57,0.57-0.57s0.57,0.25,0.57,0.57v1.66c0,0.32-0.25,0.57-0.57,0.57
	s-0.57-0.26-0.57-0.57V3.08z M15.46,4.16h0.57c0.6,0,1.09-0.49,1.09-1.09s-0.49-1.09-1.09-1.09h-1.09v3.58h0.52
	C15.46,5.56,15.46,4.16,15.46,4.16z M15.46,2.5h0.57c0.32,0,0.57,0.25,0.57,0.57s-0.26,0.57-0.57,0.57h-0.57
	C15.46,3.64,15.46,2.5,15.46,2.5z M10.33,5.57H9.81V2.25h0.52v1.4h1.15v-1.4H12v3.32h-0.52v-1.4h-1.15V5.57z"/>
</svg>
