<?xml version="1.0" encoding="utf-8"?>
<!-- Generator: Adobe Illustrator 25.3.1, SVG Export Plug-In . SVG Version: 6.00 Build 0)  -->
<svg version="1.1" id="Layer_1" xmlns="http://www.w3.org/2000/svg" xmlns:xlink="http://www.w3.org/1999/xlink" x="0px" y="0px"
	 viewBox="0 0 512 512" style="enable-background:new 0 0 512 512;" xml:space="preserve">
<style type="text/css">
	.st0{fill:#008C28;}
</style>
<g>
	<path class="st0" d="M376,126.24H214.4c-27.04,0-48.96,21.92-48.96,48.96v239.84c0,27.04,21.92,48.96,48.96,48.96H376
		c27.04,0,48.96-21.92,48.96-48.96V175.2C424.8,148.16,402.88,126.24,376,126.24z M392.8,415.04c0,9.28-7.68,16.96-16.96,16.96
		h-161.6c-9.28,0-16.96-7.68-16.96-16.96V175.2c0-9.28,7.68-16.96,16.96-16.96h161.6c9.28,0,16.96,7.68,16.96,16.96V415.04z"/>
	<path class="st0" d="M330.72,48H135.84c-26.88,0-48.8,21.76-48.8,48.64v273.12h32V96.64c0-9.12,7.52-16.64,16.8-16.64h194.88V48z"
		/>
</g>
</svg>
