<?xml version="1.0" encoding="utf-8"?>
<!-- Generator: Adobe Illustrator 25.3.1, SVG Export Plug-In . SVG Version: 6.00 Build 0)  -->
<svg version="1.1" id="Layer_1" xmlns="http://www.w3.org/2000/svg" xmlns:xlink="http://www.w3.org/1999/xlink" x="0px" y="0px"
	 viewBox="0 0 512 512" style="enable-background:new 0 0 512 512;" xml:space="preserve">
<style type="text/css">
	.st0{fill:#008C28;}
</style>
<path class="st0" d="M427.84,330.96V162.32c37.92-2.88,68-34.24,68-72.96c0-40.48-32.96-73.44-73.44-73.44
	c-38.72,0-70.08,30.08-72.96,68h-26.4V37.2h-76V15.92H92V37.2H16v410.24h192.96v19.84h22.4c2.56,16.32,16.64,28.8,33.76,28.8
	s31.04-12.48,33.76-28.8h83.52c2.56,16.16,16.64,28.64,33.6,28.64s31.04-12.48,33.76-28.8H496v-47.2l-41.92-88.96H427.84
	L427.84,330.96z M422.24,26.8c34.4,0,62.4,28,62.4,62.4s-28,62.4-62.4,62.4s-62.4-28-62.4-62.4S387.84,26.8,422.24,26.8z
	 M323.04,94.8h26.4c2.72,36,31.36,64.8,67.36,67.36v168.48h-27.2v-24.48h-66.56C323.04,306.16,323.04,94.8,323.04,94.8z
	 M378.56,317.36v79.36H219.84v-79.36H378.56z M246.88,48.08H312v258.4h-28.48V76.4h-36.8L246.88,48.08L246.88,48.08z M103.04,26.8
	h133.12v60.16H103.04V26.8z M208.8,407.92v28.48H26.88V48.24H92v28.48H55.2v331.2H208.8L208.8,407.92z M208.8,396.88H66.24V87.44H92
	v10.4h155.04v-10.4h25.76v219.04h-63.84L208.8,396.88L208.8,396.88z M264.96,484.72c-12.8,0-23.36-10.4-23.36-23.36
	S252,438,264.96,438s23.36,10.4,23.36,23.36C288.16,474.32,277.76,484.72,264.96,484.72z M415.84,484.72
	c-12.8,0-23.36-10.4-23.36-23.36S402.88,438,415.84,438s23.36,10.4,23.36,23.36C439.2,474.32,428.64,484.72,415.84,484.72z
	 M484.64,456.08h-35.36c-2.56-16.32-16.64-28.8-33.76-28.8s-31.04,12.48-33.76,28.8h-83.52c-2.56-16.32-16.64-28.8-33.76-28.8
	s-31.04,12.48-33.76,28.8h-11.36v-48.16h169.6v-66.08h57.44l37.76,79.36L484.64,456.08L484.64,456.08z M409.6,120.24l-19.84-19.84
	l7.84-7.84l12,12l36.32-36.32l7.84,7.84L409.6,120.24z M104,178l-19.68-19.84l7.84-7.84l12,12L140.48,126l7.84,7.84L104,178z
	 M104,264.24L84.16,244.4l7.84-7.84l12,12l36.32-36.32l7.84,7.84L104,264.24z M82.88,382.48h88v-88.16h-88
	C82.88,294.32,82.88,382.48,82.88,382.48z M93.76,305.36h66.08v66.08H93.76V305.36z M165.28,114.32h93.6v11.04h-93.6V114.32z
	 M165.28,144.56h67.84v11.04h-67.84V144.56z M165.28,174.8h67.84v11.04h-67.84V174.8z M165.28,205.04h67.84v11.04h-67.84V205.04z
	 M165.28,235.28h67.84v11.04h-67.84V235.28z M165.28,265.52h67.84v11.04h-67.84V265.52z"/>
</svg>
