<?xml version="1.0" encoding="utf-8"?>
<!-- Generator: Adobe Illustrator 25.3.1, SVG Export Plug-In . SVG Version: 6.00 Build 0)  -->
<svg version="1.1" id="Layer_1" xmlns="http://www.w3.org/2000/svg" xmlns:xlink="http://www.w3.org/1999/xlink" x="0px" y="0px"
	 viewBox="0 0 64 64" style="enable-background:new 0 0 64 64;" xml:space="preserve">
<style type="text/css">
	.st0{fill:#FFB700;}
</style>
<path class="st0" d="M53.48,41.38V20.3c4.74-0.36,8.5-4.28,8.5-9.12C61.98,6.12,57.86,2,52.8,2c-4.84,0-8.76,3.76-9.12,8.5h-3.3
	V4.66h-9.5V2H11.5v2.66H2v51.28h24.12v2.48h2.8c0.32,2.04,2.08,3.6,4.22,3.6s3.88-1.56,4.22-3.6H47.8C48.12,60.44,49.88,62,52,62
	s3.88-1.56,4.22-3.6H62v-5.9l-5.24-11.12H53.48L53.48,41.38z M52.78,3.36c4.3,0,7.8,3.5,7.8,7.8s-3.5,7.8-7.8,7.8s-7.8-3.5-7.8-7.8
	S48.48,3.36,52.78,3.36z M40.38,11.86h3.3c0.34,4.5,3.92,8.1,8.42,8.42v21.06h-3.4v-3.06h-8.32C40.38,38.28,40.38,11.86,40.38,11.86
	z M47.32,39.68v9.92H27.48v-9.92H47.32z M30.86,6.02H39v32.3h-3.56V9.56h-4.6L30.86,6.02L30.86,6.02z M12.88,3.36h16.64v7.52H12.88
	V3.36z M26.1,51v3.56H3.36V6.04h8.14V9.6H6.9V51H26.1L26.1,51z M26.1,49.62H8.28V10.94h3.22v1.3h19.38v-1.3h3.22v27.38h-7.98
	L26.1,49.62L26.1,49.62z M33.12,60.6c-1.6,0-2.92-1.3-2.92-2.92s1.3-2.92,2.92-2.92c1.62,0,2.92,1.3,2.92,2.92
	C36.02,59.3,34.72,60.6,33.12,60.6z M51.98,60.6c-1.6,0-2.92-1.3-2.92-2.92s1.3-2.92,2.92-2.92s2.92,1.3,2.92,2.92
	C54.9,59.3,53.58,60.6,51.98,60.6z M60.58,57.02h-4.42c-0.32-2.04-2.08-3.6-4.22-3.6s-3.88,1.56-4.22,3.6H37.28
	c-0.32-2.04-2.08-3.6-4.22-3.6s-3.88,1.56-4.22,3.6h-1.42V51h21.2v-8.26h7.18l4.72,9.92L60.58,57.02L60.58,57.02z M51.2,15.04
	l-2.48-2.48l0.98-0.98l1.5,1.5l4.54-4.54l0.98,0.98L51.2,15.04z M13,22.26l-2.46-2.48l0.98-0.98l1.5,1.5l4.54-4.54l0.98,0.98
	L13,22.26z M13,33.04l-2.48-2.48l0.98-0.98l1.5,1.5l4.54-4.54l0.98,0.98L13,33.04z M10.36,47.82h11V36.8h-11
	C10.36,36.8,10.36,47.82,10.36,47.82z M11.72,38.18h8.26v8.26h-8.26C11.72,46.44,11.72,38.18,11.72,38.18z M20.66,14.3h11.7v1.38
	h-11.7V14.3z M20.66,18.08h8.48v1.38h-8.48V18.08z M20.66,21.86h8.48v1.38h-8.48V21.86z M20.66,25.64h8.48v1.38h-8.48V25.64z
	 M20.66,29.42h8.48v1.38h-8.48V29.42z M20.66,33.2h8.48v1.38h-8.48V33.2z"/>
</svg>
