<?xml version="1.0" encoding="utf-8"?>
<!-- Generator: Adobe Illustrator 25.3.1, SVG Export Plug-In . SVG Version: 6.00 Build 0)  -->
<svg version="1.1" id="Layer_1" xmlns="http://www.w3.org/2000/svg" xmlns:xlink="http://www.w3.org/1999/xlink" x="0px" y="0px"
	 viewBox="0 0 64 64" style="enable-background:new 0 0 64 64;" xml:space="preserve">
<path d="M62,14.56V9.5L32,2L2,9.5v5.08l3.66-0.92v12.8H2v17.08v1.38V62h0.7h16.42h1.38h17.08h23.74v-1.38h-2.96V13.64L62,14.56z
	 M19.1,60.62H3.4V44.9h3.52v9.16h8.68V44.9h3.5V60.62z M8.26,52.7v-7.78h5.96v7.78H8.26z M19.1,43.54h-3.52H6.9H3.38V27.82H6.9v9.16
	h8.7v-9.16h3.52v15.72H19.1z M8.26,35.6v-7.78h5.96v7.78H8.26z M36.2,60.62H20.48V44.9H24v9.16h8.7V44.9h3.52L36.2,60.62L36.2,60.62
	z M25.36,52.7v-7.78h5.96v7.78H25.36z M49.48,60.62h-11.9V43.54h-4.9h-8.7h-3.52V38.3h29L49.48,60.62L49.48,60.62z M49.48,36.92h-29
	v-2.76h29V36.92z M49.48,32.78h-29v-2.76h29V32.78z M49.48,28.66h-29v-2.22h-4.9h-1.06V25.9h34.94v2.76H49.48z M49.48,24.52H14.52
	v-1.68h34.94v1.68H49.48z M56.96,60.62h-6.1V21.46H13.18v4.96h-6.1V13.28l24.94-6.24l24.94,6.24V60.62L56.96,60.62z M32,5.64
	L3.4,12.8v-2.24L32,3.4l28.6,7.16v2.24L32,5.64z M24.04,17.32h16.02v-6.86H24.04V17.32z M25.4,11.84h13.28v4.12H25.4V11.84z
	 M14.22,40.32h1.38v1.88h-1.38V40.32z M14.22,57.42h1.38v1.88h-1.38V57.42z M31.32,57.42h1.38v1.88h-1.38
	C31.32,59.3,31.32,57.42,31.32,57.42z"/>
</svg>
