<?xml version="1.0" encoding="utf-8"?>
<!-- Generator: Adobe Illustrator 25.3.1, SVG Export Plug-In . SVG Version: 6.00 Build 0)  -->
<svg version="1.1" id="Layer_1" xmlns="http://www.w3.org/2000/svg" xmlns:xlink="http://www.w3.org/1999/xlink" x="0px" y="0px"
	 viewBox="0 0 64 64" style="enable-background:new 0 0 64 64;" xml:space="preserve">
<path d="M23.2,38.8H8.5v16.5h14.68V38.8H23.2z M21.82,53.96H9.88V40.2h11.94V53.96z M55.5,38.8H40.82v16.5H55.5V38.8z M54.12,53.96
	H42.2V40.2h11.92C54.12,40.2,54.12,53.96,54.12,53.96z M30.14,50.64h-2.5v-1.38h2.5V50.64z M58.42,14.56c0-1.34,1.1-2.44,2.44-2.44
	H62V8H46.84V2H17.18v6H2.02v4.14h1.14c1.34,0,2.44,1.1,2.44,2.44v0.7v6.44H2v6.9h3.58v32H2.7V62h22.04h14.54h22.04v-1.38h-2.9v-32
	H62v-6.9h-3.58v-6.46V14.56z M18.54,3.36h26.9V16.2h-26.9V3.36z M46.84,17.58v-2.34h10.2v6.44H6.96v-6.44h10.2v2.32h29.68V17.58z
	 M3.4,10.76v-1.4h13.8v4.52H6.9C6.6,12.16,5.16,10.86,3.4,10.76z M37.9,60.6H26.1V35.62h11.8V60.6z M57.04,60.6H39.28V34.24H24.74
	V60.6H6.96v-32h50.08V60.6z M60.62,23.06v4.16H3.4v-4.16H60.62z M57.1,13.88H46.82V9.34h13.8v1.4C58.84,10.86,57.4,12.16,57.1,13.88
	z M29.44,5.88h9.36l-1.92,6.88h-8.22L26.76,6h-1.4V4.62h2.42l1.88,6.76h6.14l1.16-4.12h-7.54L29.44,5.88L29.44,5.88z M32.06,14.56
	c0,0.72-0.58,1.3-1.3,1.3s-1.3-0.58-1.3-1.3s0.58-1.3,1.3-1.3C31.46,13.26,32.06,13.84,32.06,14.56z M36.08,14.56
	c0,0.72-0.58,1.3-1.3,1.3c-0.72,0-1.3-0.58-1.3-1.3s0.58-1.3,1.3-1.3S36.08,13.84,36.08,14.56z"/>
</svg>
