<?xml version="1.0" encoding="utf-8"?>
<!-- Generator: Adobe Illustrator 25.3.1, SVG Export Plug-In . SVG Version: 6.00 Build 0)  -->
<svg version="1.1" id="Layer_1" xmlns="http://www.w3.org/2000/svg" xmlns:xlink="http://www.w3.org/1999/xlink" x="0px" y="0px"
	 viewBox="0 0 64 64" style="enable-background:new 0 0 64 64;" xml:space="preserve">
<path d="M10.54,41.3c-0.9,0-1.62,0.74-1.62,1.62c0,0.9,0.74,1.62,1.62,1.62s1.62-0.74,1.62-1.62C12.14,42.04,11.42,41.3,10.54,41.3z
	 M10.3,42.94c0-0.12,0.1-0.24,0.24-0.24c0.12,0,0.24,0.1,0.24,0.24C10.78,43.2,10.3,43.2,10.3,42.94z M54.02,41.3
	c-0.9,0-1.62,0.74-1.62,1.62c0,0.9,0.74,1.62,1.62,1.62c0.9,0,1.62-0.74,1.62-1.62C55.62,42.04,54.9,41.3,54.02,41.3z M53.78,42.94
	c0-0.12,0.1-0.24,0.24-0.24s0.24,0.1,0.24,0.24C54.26,43.2,53.78,43.2,53.78,42.94z M62,33.72L62,33.72v-0.68
	c0-0.88-0.42-1.68-1.14-2.2l-3.24-2.3l-1.2-4.48C55.78,21.66,53.6,20,51.14,20h-4.2v-3.64H2V42.6h3.82c0,0.1-0.04,0.2-0.04,0.32
	c0,2.62,2.12,4.74,4.74,4.74s4.74-2.12,4.74-4.74c0-0.1-0.02-0.22-0.04-0.32h15.84v2h9.88v-2h8.34c0,0.1-0.04,0.2-0.04,0.32
	c0,2.62,2.12,4.74,4.74,4.74s4.74-2.12,4.74-4.74c0-0.1-0.02-0.22-0.04-0.32h1.02c1.16,0,2.08-0.88,2.2-2H62v-0.24l0,0l0,0v-2.3l0,0
	V33.72L62,33.72z M60.6,36.7h-0.82v-1.6h0.82V36.7z M46.94,21.4h4.2c1.86,0,3.46,1.24,3.94,3.02l1.04,3.86h-9.18V21.4z M46.94,29.66
	h9.86l1.52,1.08H46.96L46.94,29.66L46.94,29.66z M3.38,17.74h42.2v15.98H3.38V17.74L3.38,17.74z M10.54,46.3
	c-1.86,0-3.38-1.52-3.38-3.38s1.52-3.38,3.38-3.38s3.38,1.52,3.38,3.38C13.9,44.78,12.38,46.3,10.54,46.3z M31.1,41.24H14.96
	c-0.1-0.22-0.18-0.42-0.3-0.62h16.46L31.1,41.24L31.1,41.24z M39.6,43.24h-7.12v-2.62h7.12V43.24z M40.28,39.24h-8.5h-0.7h-17.6
	c-0.8-0.66-1.84-1.06-2.94-1.06c-2.02,0-3.74,1.26-4.42,3.06H3.36V35.1h42.2v4.14h-4.6H40.28z M54.02,46.3
	c-1.86,0-3.38-1.52-3.38-3.38s1.52-3.38,3.38-3.38s3.38,1.52,3.38,3.38C57.38,44.78,55.86,46.3,54.02,46.3z M57.64,39.92
	c-0.88-1.04-2.16-1.74-3.64-1.74c-2.02,0-3.74,1.26-4.42,3.06h-8.62v-0.62h5.98V32.1h13.22c0.28,0.26,0.44,0.58,0.44,0.96v0.68h-2.2
	v4.34h2.2v1.86L57.64,39.92L57.64,39.92z"/>
</svg>
