<?xml version="1.0" encoding="utf-8"?>
<!-- Generator: Adobe Illustrator 26.3.1, SVG Export Plug-In . SVG Version: 6.00 Build 0)  -->
<svg version="1.1" id="Layer_1" xmlns="http://www.w3.org/2000/svg" xmlns:xlink="http://www.w3.org/1999/xlink" x="0px" y="0px"
	 viewBox="0 0 64 64" style="enable-background:new 0 0 64 64;" xml:space="preserve">
<style type="text/css">
	.st0{fill:none;stroke:#000000;stroke-width:2;stroke-linecap:round;stroke-linejoin:round;stroke-miterlimit:10;}
</style>
<g>
	<path class="st0" d="M55.12,52.3l-4.84,4.65c-2.91,2.79-6.95,4.15-10.94,3.53c-9.2-1.44-17.44-5.8-23.73-12.09
		C9.32,42.1,4.96,33.86,3.52,24.66c-0.62-3.99,0.74-8.03,3.53-10.94l4.65-4.84c1.21-1.26,3.21-1.28,4.44-0.05l8.29,8.3
		c1.3,1.29,1.2,3.42-0.21,4.59l-4.72,3.92c-1.41,1.18-1.8,3.21-0.86,4.79c0.26,0.44,0.53,0.87,0.81,1.3
		c0.27,0.43,0.56,0.86,0.86,1.28c2.9,4.16,6.52,7.78,10.68,10.68c0.42,0.3,0.85,0.59,1.28,0.86c0.43,0.28,0.86,0.55,1.3,0.81
		c1.58,0.94,3.61,0.55,4.79-0.86l3.92-4.72c1.17-1.41,3.3-1.5,4.59-0.21l8.3,8.29C56.4,49.09,56.38,51.09,55.12,52.3z"/>
	<path class="st0" d="M60.42,29.64C57.92,16.46,47.54,6.08,34.36,3.58"/>
	<path class="st0" d="M50.14,29.64C48,22.01,41.99,16,34.36,13.86"/>
</g>
</svg>
