<?xml version="1.0" encoding="utf-8"?>
<!-- Generator: Adobe Illustrator 25.3.1, SVG Export Plug-In . SVG Version: 6.00 Build 0)  -->
<svg version="1.1" id="Layer_1" xmlns="http://www.w3.org/2000/svg" xmlns:xlink="http://www.w3.org/1999/xlink" x="0px" y="0px"
	 viewBox="0 0 64 64" style="enable-background:new 0 0 64 64;" xml:space="preserve">
<style type="text/css">
	.st0{fill:#FFB700;}
</style>
<path class="st0" d="M40.44,15.64h-1.38v-5.38h1.38V15.64z M34.56,8.04h-1.38v5.38h1.38V8.04z M28.66,10.26h-1.38v5.38h1.38V10.26z
	 M56.64,33.5v11.42h1.18c2.3,0,4.2,1.88,4.2,4.2v2.98c0,2.6-2.12,4.72-4.72,4.72h-3.46c-0.7,0-1.3-0.42-1.58-1.02h-4.08l0.44,3.98
	H31.8C31.5,61.04,30.34,62,28.96,62H10.32C8.7,62,7.4,60.68,7.4,59.08s1.32-2.92,2.92-2.92h1.54c-1.76-1.08-3.1-2.72-3.8-4.68H5.54
	C3.6,51.5,2,49.92,2,47.96s1.58-3.54,3.54-3.54h7.02c0.06-5.28,4.36-9.54,9.64-9.54c0.72,0,1.4-0.22,2.02-0.6
	c0.56-0.38,0.98-0.96,1.24-1.58c-1.96-2.08-3.16-4.86-3.16-7.92l0,0v-0.04v-0.7v-0.9v-1.68v-6.4c-1.34-1.1-2.12-2.74-2.12-4.48
	c0-3.2,2.6-5.8,5.8-5.8h1.88C29.34,3.02,31.5,2,33.84,2s4.5,1.02,5.98,2.8h1.88c3.2,0,5.8,2.6,5.8,5.8c0,1.72-0.78,3.38-2.12,4.48
	v6.4v1.64v0.92v0.7v0.04l0,0c0,3.06-1.2,5.84-3.16,7.92c0.28,0.62,0.68,1.2,1.24,1.58c0.58,0.4,1.28,0.6,2.02,0.6
	c5.32,0,9.64,4.34,9.64,9.66v0.36h0.12V33.48h-2.36c-1.66,0-3-1.36-3-3V21.5c0-1.66,1.36-3,3-3h6.1c1.66,0,3,1.36,3,3v8.98
	c0,1.66-1.36,3-3,3L56.64,33.5L56.64,33.5z M7.68,50.1c-0.1-0.56-0.18-1.16-0.18-1.76v-2.56H5.58c-1.2,0-2.16,0.98-2.16,2.16
	c0,1.2,0.98,2.16,2.16,2.16H7.68L7.68,50.1z M42.62,41.84h2.18v-5.66c-0.56-0.08-1.1-0.26-1.62-0.54c-0.18,0.16-0.36,0.32-0.56,0.48
	V41.84z M44.04,22.18c-0.04-0.02-0.08-0.04-0.1-0.06c-0.66-0.44-1.38-0.82-2.1-1.18c-0.1-0.06-0.2-0.1-0.32-0.14
	c0.3,1.22,1.26,2.2,2.5,2.46v-1.08C44.02,22.18,44.04,22.18,44.04,22.18z M23.4,14.16l0.28,0.2v6.18c0.2-0.1,0.4-0.22,0.6-0.32
	c0.16-0.1,0.32-0.18,0.52-0.28c0.62-0.32,1.24-0.62,1.9-0.88l0.78-0.32v0.04c4.12-1.4,8.6-1.4,12.7,0v-0.04l0.78,0.32
	c0,0,0,0,0.02,0c0.68,0.28,1.34,0.56,1.98,0.9c0.1,0.06,0.22,0.1,0.32,0.18c0.24,0.12,0.48,0.26,0.72,0.38v-6.16l0.28-0.2
	c1.18-0.86,1.84-2.16,1.84-3.6c0-2.44-1.98-4.44-4.44-4.44h-2.56l-0.2-0.28c-1.22-1.62-3.1-2.52-5.1-2.52s-3.88,0.92-5.1,2.52
	l-0.2,0.28h-2.56c-2.44,0-4.44,1.98-4.44,4.44C21.58,12.02,22.24,13.32,23.4,14.16z M25.86,20.96c-0.62,0.3-1.2,0.62-1.78,0.98
	c-0.12,0.08-0.28,0.16-0.38,0.24v1.08c1.24-0.26,2.22-1.22,2.5-2.46C26.08,20.88,25.96,20.92,25.86,20.96z M33.86,34.94
	c5.6,0,10.16-4.56,10.16-10.16v-0.1c-2.2-0.32-3.88-2.18-3.96-4.46c-4-1.42-8.42-1.42-12.44,0c-0.08,2.28-1.76,4.12-3.96,4.46v0.1
	l0,0C23.7,30.38,28.26,34.94,33.86,34.94z M42.04,34.84c-0.34-0.32-0.64-0.74-0.88-1.16c-2,1.64-4.54,2.62-7.3,2.62
	s-5.3-0.98-7.3-2.62c-0.24,0.42-0.54,0.8-0.88,1.16c2.3,1.9,5.16,2.96,8.18,2.96S39.74,36.76,42.04,34.84z M33.86,39.18
	c-2.64,0-5.18-0.74-7.4-2.08v4.76h14.8V37.1C39.04,38.44,36.5,39.18,33.86,39.18z M22.9,41.84h2.18v-5.7
	c-0.2-0.14-0.38-0.32-0.56-0.48C24,35.92,23.48,36.1,22.9,36.2V41.84L22.9,41.84z M13.96,44.42h6.84l0.28-2.56h0.46v-5.54
	C17.34,36.66,14.02,40.14,13.96,44.42z M16.64,56.14h6.04c4.3,0,7.78-3.5,7.78-7.78V45.8H8.84v2.56
	C8.86,52.64,12.36,56.14,16.64,56.14z M30.54,59.06c0-0.86-0.7-1.54-1.54-1.54h-6.3h-6.04h-6.3c-0.86,0-1.54,0.7-1.54,1.54
	s0.7,1.54,1.54,1.54h18.66C29.84,60.6,30.54,59.92,30.54,59.06z M47.08,58.38L45.4,43.22H22.3l-0.12,1.2h11.58
	c1.94,0,3.54,1.58,3.54,3.54s-1.58,3.54-3.54,3.54h-2.5c-0.72,1.96-2.06,3.6-3.8,4.68H29c1.38,0,2.52,0.96,2.84,2.24L47.08,58.38
	L47.08,58.38z M33.76,50.1c1.2,0,2.16-0.98,2.16-2.16c0-1.2-0.98-2.16-2.16-2.16h-1.92v2.56c0,0.6-0.08,1.2-0.18,1.76H33.76
	L33.76,50.1z M51.6,47.12c0-1.2,0.98-2.18,2.16-2.22v-0.38c0-4.32-3.36-7.86-7.6-8.2v5.54h0.46l1.4,12.54h4.22
	c0.04-0.1,0.1-0.16,0.16-0.26c-0.34-0.34-0.56-0.82-0.56-1.36c0-0.46,0.18-0.88,0.46-1.2c-0.38-0.38-0.6-0.9-0.6-1.48
	c0-0.54,0.22-1,0.54-1.4C51.86,48.3,51.6,47.74,51.6,47.12z M53.84,46.28c-0.48,0-0.86,0.38-0.86,0.86S53.36,48,53.84,48h1.22v1.38
	h-1.22c-0.4,0-0.74,0.32-0.74,0.74s0.32,0.74,0.74,0.74h1.22v1.38h-1.22c-0.32,0-0.58,0.26-0.58,0.58s0.26,0.58,0.58,0.58h1.22v1.38
	h-1.22c-0.18,0-0.34,0.14-0.34,0.34s0.14,0.34,0.34,0.34h3.46c1.84,0,3.36-1.5,3.36-3.36v-2.98c0-1.56-1.26-2.82-2.82-2.82
	L53.84,46.28L53.84,46.28z M59,32.12c0.9,0,1.62-0.74,1.62-1.64V21.5c0-0.9-0.74-1.64-1.62-1.64h-6.1c-0.9,0-1.62,0.74-1.62,1.64
	v8.98c0,0.9,0.74,1.64,1.62,1.64H59z M17.48,27.64c0.96-0.98,2.04-2.08,2.04-4.22h-1.38c0,1.6-0.76,2.36-1.62,3.26
	c-0.96,0.98-2.04,2.08-2.04,4.22h1.38C15.84,29.32,16.6,28.54,17.48,27.64z M10.86,32.16c0.96-0.98,2.04-2.08,2.04-4.22h-1.38
	c0,1.6-0.76,2.36-1.62,3.26c-0.96,0.98-2.04,2.08-2.04,4.22h1.38C9.22,33.82,9.98,33.06,10.86,32.16z M31.86,24.66l0.82-1.1
	c-2.16-1.62-4.44-0.7-5.32,0l0.84,1.08C28.22,24.64,30.02,23.28,31.86,24.66z M39.52,24.64l0.84-1.08c-0.9-0.72-3.16-1.64-5.32,0
	l0.82,1.1C37.7,23.28,39.44,24.58,39.52,24.64z"/>
</svg>
