<?xml version="1.0" encoding="utf-8"?>
<!-- Generator: Adobe Illustrator 25.3.1, SVG Export Plug-In . SVG Version: 6.00 Build 0)  -->
<svg version="1.1" id="Layer_1" xmlns="http://www.w3.org/2000/svg" xmlns:xlink="http://www.w3.org/1999/xlink" x="0px" y="0px"
	 viewBox="0 0 64 64" style="enable-background:new 0 0 64 64;" xml:space="preserve">
<style type="text/css">
	.st0{fill:#FFB700;}
</style>
<path class="st0" d="M2,2v38.02h28.14c0.02,0.72,0.28,1.4,0.76,1.94l9.18,10.18V62h16.1V40.02H62V2H2L2,2z M54.82,60.62H41.46v-9
	l-9.54-10.58c-0.3-0.32-0.44-0.74-0.4-1.16c0.02-0.42,0.2-0.82,0.54-1.1c0.32-0.3,0.72-0.44,1.16-0.4c0.42,0.02,0.82,0.2,1.1,0.54
	l5.78,6.4V28.74c0-0.88,0.72-1.62,1.62-1.62s1.62,0.72,1.62,1.62v15.22h1.38v-5.82c0-0.78,0.64-1.42,1.42-1.42s1.42,0.64,1.42,1.42
	v5.82h1.38V38.5c0-0.68,0.54-1.24,1.24-1.24c0.68,0,1.22,0.54,1.22,1.24v5.46h1.38v-4.82c0-0.58,0.48-1.04,1.06-1.04
	s1.04,0.48,1.04,1.04L54.82,60.62L54.82,60.62z M41.68,25.74c-1.64,0-2.96,1.34-2.96,2.96v0.22h-5.14V24.8h16.86v4.12h-5.76V28.7
	C44.64,27.08,43.3,25.74,41.68,25.74z M44.64,35.44h0.62c-0.22,0.08-0.44,0.16-0.62,0.28V35.44z M44.64,34.08v-3.76h7.12v-6.88
	h-19.6v6.88h6.52v3.76H9.78V7.96h44.44v26.12H44.64z M60.64,38.66H56.1c-0.24-1.1-1.16-1.94-2.32-1.94c-0.54,0-0.98,0.2-1.4,0.5
	c-0.44-0.8-1.28-1.34-2.28-1.34c-0.66,0-1.26,0.26-1.72,0.68c-0.36-0.52-0.9-0.9-1.52-1.08h8.74V6.6H8.42v28.86h30.3v6.28L35.34,38
	c-0.54-0.58-1.26-0.94-2.06-0.98c-0.8-0.04-1.56,0.24-2.14,0.76c-0.28,0.26-0.52,0.56-0.68,0.9H3.4V3.42h57.26L60.64,38.66
	L60.64,38.66z M6.58,28.1H5.2V13.94h1.38V28.1z M58.82,32.94h-1.38v-5.32h1.38V32.94z M58.82,23.68h-1.38v-5.32h1.38V23.68z
	 M58.82,14.42h-1.38v-5.3h1.38V14.42z M32.18,11.72h19.6v1.38h-19.6V11.72z M32.18,15.34h19.6v1.38h-19.6V15.34z M32.18,18.96h19.6
	v1.38h-19.6V18.96z M17.4,28.94h7.3v1.38h-7.3C17.4,30.32,17.4,28.94,17.4,28.94z M28.16,20.72H25.4v-5.48h-8.7v5.5h-2.76v3.66h-1.8
	v1.38h1.82h14.2h1.82V24.4h-1.82V20.72z M18.08,16.6h5.96v4.12h-5.96L18.08,16.6L18.08,16.6z M26.78,24.4H15.32v-2.3h1.38h8.7h1.38
	C26.78,22.1,26.78,24.4,26.78,24.4z"/>
</svg>
