<?xml version="1.0" encoding="utf-8"?>
<!-- Generator: Adobe Illustrator 25.3.1, SVG Export Plug-In . SVG Version: 6.00 Build 0)  -->
<svg version="1.1" id="Layer_1" xmlns="http://www.w3.org/2000/svg" xmlns:xlink="http://www.w3.org/1999/xlink" x="0px" y="0px"
	 viewBox="0 0 64 64" style="enable-background:new 0 0 64 64;" xml:space="preserve">
<style type="text/css">
	.st0{fill:#E90000;}
</style>
<path class="st0" d="M62,2h-7.7v12.7l-0.08,0.06C48.84,7.82,40.8,3.84,32,3.84c-12.22,0-23.16,8.08-26.84,19.68H2v13.7v0.7v6.84
	h2.58c0.32,1.88,1.96,3.32,3.94,3.32c0.1,0,0.22-0.02,0.32-0.04c4.9,7.06,12.8,11.5,21.34,12.06V62h10.14h1.36h8.78h1.36H62v-6.02
	c0-1.64-0.88-3.1-2.28-3.86c0.32-0.58,0.54-1.22,0.54-1.94c0-2.18-1.76-3.96-3.92-4c2.5-4.28,3.82-9.16,3.82-14.16
	c0-1-0.08-2-0.16-2.98h2C62,29.04,62,2,62,2z M54.3,16.32v11.32h-6.64v-7.08L54.3,16.32z M3.4,24.9h16.94v11.64H3.4V24.9z
	 M3.4,43.36V37.9h18.32v-7.64h4.14l5.48,5.4v7.7h-1.42c-0.32-1.88-1.96-3.32-3.94-3.32s-3.6,1.44-3.94,3.32h-9.56
	c-0.32-1.88-1.96-3.32-3.94-3.32s-3.6,1.44-3.94,3.32C4.6,43.36,3.4,43.36,3.4,43.36z M28.6,44.04c0,1.44-1.18,2.64-2.64,2.64
	s-2.64-1.2-2.64-2.64s1.18-2.64,2.64-2.64S28.6,42.58,28.6,44.04z M8.54,46.68c-1.44,0-2.64-1.2-2.64-2.64s1.18-2.64,2.64-2.64
	s2.64,1.2,2.64,2.64S9.98,46.68,8.54,46.68z M40.34,60.6h-8.76v-4.66c0-1.2,0.74-2.26,1.82-2.74c0.7,0.58,1.6,0.96,2.56,0.96
	c0.98,0,1.86-0.36,2.56-0.96c1.08,0.5,1.82,1.54,1.82,2.74C40.34,55.94,40.34,60.6,40.34,60.6z M33.34,50.16
	c0-1.44,1.18-2.64,2.64-2.64s2.64,1.2,2.64,2.64s-1.18,2.64-2.64,2.64C34.5,52.78,33.34,51.6,33.34,50.16z M50.48,60.6h-8.76V58
	c0-1.2,0.74-2.26,1.82-2.74c0.7,0.58,1.6,0.96,2.56,0.96c0.98,0,1.86-0.36,2.56-0.96c1.08,0.5,1.82,1.54,1.82,2.74
	C50.48,58,50.48,60.6,50.48,60.6z M43.46,52.2c0-1.44,1.18-2.64,2.64-2.64s2.64,1.2,2.64,2.64s-1.18,2.64-2.64,2.64
	S43.46,53.66,43.46,52.2z M50.62,54.94c-0.3-0.32-0.64-0.58-1.04-0.78c0.06-0.1,0.12-0.2,0.16-0.32c0.96-0.76,1.84-1.64,2.68-2.52
	c0.1,0.28,0.2,0.54,0.32,0.76C51.68,52.7,50.9,53.74,50.62,54.94z M60.62,55.96v4.66h-8.76v-4.66c0-1.2,0.74-2.26,1.82-2.74
	c0.7,0.58,1.6,0.96,2.56,0.96c0.98,0,1.86-0.36,2.56-0.96C59.9,53.68,60.62,54.72,60.62,55.96z M58.86,50.16
	c0,1.44-1.18,2.64-2.64,2.64s-2.64-1.2-2.64-2.64s1.18-2.64,2.64-2.64C57.7,47.52,58.86,48.7,58.86,50.16z M54.48,46.58
	c-1.12,0.54-1.94,1.62-2.16,2.88c-0.7,0.8-1.44,1.56-2.26,2.28c-0.24-1.98-1.9-3.54-3.96-3.54c-2.22,0-4.02,1.8-4.02,4.02
	c0,0.72,0.2,1.38,0.54,1.94c-0.38,0.22-0.74,0.48-1.04,0.78c-0.28-1.2-1.04-2.26-2.14-2.86c0.32-0.58,0.54-1.22,0.54-1.94
	c0-2.22-1.8-4.02-4.02-4.02s-4.02,1.8-4.02,4.02c0,0.72,0.2,1.38,0.54,1.94c-1.38,0.76-2.28,2.22-2.28,3.86v2.72
	c-7.94-0.54-15.26-4.62-19.92-11.06c1.14-0.54,1.96-1.62,2.18-2.9h9.56c0.32,1.88,1.96,3.32,3.94,3.32s3.6-1.44,3.94-3.32h2.8v-9.64
	l-6.28-6.2h-4.7v-5.38H6.62C10.22,12.7,20.54,5.2,32,5.2c8.32,0,15.96,3.76,21.06,10.28l-5.38,3.42v-5.08l-8,5.1v-5.1L30.3,19.8
	v9.22h8h1.38h6.64h1.38h6.64h1.38h2.94C58.76,30,58.84,31,58.84,32C58.8,37.2,57.3,42.24,54.48,46.58z M46.3,16.32v3.46v7.84h-6.64
	v-7.08L46.3,16.32z M38.3,16.32v3.46v7.84h-6.64v-7.08L38.3,16.32z M60.62,27.62h-4.94v-9h4.94V27.62z M60.62,17.26h-4.94v-3.42V3.4
	h4.94V17.26z M51.84,24.92h-1.38v-2.94h1.38V24.92z M43.84,24.92h-1.38v-2.94h1.38V24.92z M35.82,24.92h-1.38v-2.94h1.38V24.92z"/>
</svg>
