<?xml version="1.0" encoding="utf-8"?>
<!-- Generator: Adobe Illustrator 25.3.1, SVG Export Plug-In . SVG Version: 6.00 Build 0)  -->
<svg version="1.1" id="Layer_1" xmlns="http://www.w3.org/2000/svg" xmlns:xlink="http://www.w3.org/1999/xlink" x="0px" y="0px"
	 viewBox="0 0 64 64" style="enable-background:new 0 0 64 64;" xml:space="preserve">
<style type="text/css">
	.st0{fill:#E90000;}
</style>
<path class="st0" d="M58.64,28.26c-0.62-4.52-2.4-8.8-5.16-12.44l2.38-2.38l-5.28-5.28l-2.38,2.38C44.52,7.76,40.24,6,35.74,5.36V2
	h-7.48v3.36c-4.52,0.62-8.8,2.4-12.44,5.16l-2.38-2.38l-5.3,5.3l2.38,2.38C7.76,19.48,6,23.74,5.36,28.26H2v7.48h3.36
	c0.62,4.52,2.4,8.8,5.16,12.44l-2.38,2.38l5.28,5.28l2.38-2.38c3.66,2.76,7.92,4.52,12.44,5.16V62h7.48v-3.36
	c4.52-0.62,8.8-2.4,12.44-5.16l2.38,2.38l5.28-5.28l-2.38-2.38c2.76-3.66,4.52-7.94,5.16-12.44H62v-7.48h-3.36V28.26z M50.56,9.98
	l3.46,3.46l-3.46,3.46l-3.46-3.46L50.56,9.98z M29.56,3.3h4.88v4.88h-4.88C29.56,8.18,29.56,3.3,29.56,3.3z M9.98,13.44l3.46-3.46
	l3.46,3.46l-3.46,3.44L9.98,13.44z M3.3,34.44v-4.88h4.88v4.88H3.3z M13.44,54.02l-3.46-3.46l3.46-3.46l3.46,3.46L13.44,54.02z
	 M34.44,60.7h-4.88v-4.88h4.88V60.7z M54.02,50.56l-3.46,3.46l-3.46-3.46l3.46-3.46L54.02,50.56z M52.54,47.28l-1.98-1.98
	l-5.28,5.28l1.98,1.98c-3.4,2.52-7.36,4.16-11.54,4.78v-2.8h-7.48v2.8c-4.18-0.6-8.14-2.24-11.54-4.78l1.98-1.98L13.4,45.3
	l-1.98,1.98c-2.52-3.4-4.16-7.36-4.78-11.54h2.84v-7.48h-2.8c0.6-4.18,2.24-8.14,4.78-11.54l1.98,1.98l5.28-5.28l-1.98-1.98
	c3.4-2.52,7.36-4.16,11.54-4.78v2.8h7.48v-2.8c4.18,0.6,8.14,2.24,11.54,4.78l-1.98,1.98l5.28,5.28l1.98-1.98
	c2.52,3.4,4.16,7.36,4.78,11.54h-2.8v7.48h2.8C56.72,39.92,55.08,43.88,52.54,47.28z M60.7,34.44h-4.88v-4.88h4.88V34.44z M32,13.28
	c-10.32,0-18.74,8.4-18.74,18.74S21.66,50.76,32,50.76s18.74-8.4,18.74-18.74S42.32,13.28,32,13.28z M27.76,15.1
	c-1.7,1.58-3.12,4.06-4.1,7.18c-2.02-0.28-3.82-0.68-5.32-1.14C20.72,18.22,24,16.06,27.76,15.1z M17.56,22.26
	c1.58,0.54,3.56,0.98,5.76,1.3c-0.6,2.34-0.94,4.98-1,7.8h-7.74C14.72,27.98,15.78,24.86,17.56,22.26z M14.58,32.64h7.74
	c0.06,2.82,0.4,5.46,1,7.8c-2.22,0.32-4.18,0.76-5.76,1.3C15.78,39.14,14.72,36.02,14.58,32.64z M18.36,42.86
	c1.48-0.46,3.3-0.84,5.32-1.14c0.96,3.12,2.38,5.62,4.1,7.18C24,47.94,20.72,45.78,18.36,42.86z M31.36,49.36
	c-2.6-0.44-4.92-3.46-6.32-7.82c1.98-0.22,4.12-0.34,6.32-0.38V49.36z M31.36,39.88c-2.34,0.02-4.6,0.18-6.7,0.42
	c-0.62-2.3-0.98-4.9-1.04-7.64h7.74C31.36,32.66,31.36,39.88,31.36,39.88z M31.36,31.36h-7.74c0.06-2.74,0.42-5.34,1.04-7.64
	c2.1,0.24,4.36,0.38,6.7,0.42V31.36z M31.36,22.82c-2.22-0.02-4.34-0.16-6.32-0.38c1.4-4.36,3.72-7.38,6.32-7.82V22.82z
	 M32.64,14.64c2.6,0.44,4.92,3.46,6.32,7.82c-1.98,0.22-4.12,0.34-6.32,0.38V14.64z M32.64,24.12c2.34-0.02,4.6-0.18,6.7-0.42
	c0.62,2.3,0.98,4.9,1.04,7.64h-7.74V24.12z M32.64,32.64h7.74c-0.06,2.74-0.42,5.34-1.04,7.64c-2.1-0.24-4.36-0.38-6.7-0.42
	C32.64,39.86,32.64,32.64,32.64,32.64z M32.64,49.36v-8.18c2.22,0.02,4.34,0.16,6.32,0.38C37.56,45.9,35.26,48.92,32.64,49.36z
	 M36.22,48.9c1.7-1.58,3.12-4.06,4.1-7.18c2.02,0.28,3.82,0.68,5.32,1.14C43.26,45.78,39.98,47.94,36.22,48.9z M46.44,41.74
	c-1.58-0.54-3.56-0.98-5.76-1.3c0.6-2.34,0.94-4.98,1-7.8h7.74C49.28,36.02,48.2,39.14,46.44,41.74z M49.4,31.36h-7.74
	c-0.06-2.82-0.4-5.46-1-7.8c2.22-0.32,4.18-0.76,5.76-1.3C48.2,24.86,49.28,27.98,49.4,31.36z M40.32,22.28
	c-0.96-3.12-2.38-5.62-4.1-7.18c3.76,0.94,7.04,3.1,9.4,6.04C44.12,21.62,42.34,22.02,40.32,22.28z"/>
</svg>
