<?xml version="1.0" encoding="utf-8"?>
<!-- Generator: Adobe Illustrator 25.3.1, SVG Export Plug-In . SVG Version: 6.00 Build 0)  -->
<svg version="1.1" id="Layer_1" xmlns="http://www.w3.org/2000/svg" xmlns:xlink="http://www.w3.org/1999/xlink" x="0px" y="0px"
	 viewBox="0 0 512 512" style="enable-background:new 0 0 512 512;" xml:space="preserve">
<style type="text/css">
	.st0{fill:#008C28;}
</style>
<path class="st0" d="M449.28,441.28v-152.8c17.44-2.88,30.88-18.08,30.88-36.32v-21.28c0-7.84-2.56-15.2-7.04-21.76L435.2,156.8
	H333.12v-11.2h77.12V16H102.08v129.6h77.12v11.2H73.76l-37.92,52.48c-4.48,6.24-7.04,13.76-7.04,21.76v21.28
	c0,19.52,15.04,35.2,34.08,36.64v152.48H16V496h480v-54.72H449.28L449.28,441.28z M469.12,252.32c0,14.4-11.52,25.92-25.92,25.92
	c-14.4,0-25.92-11.52-25.92-25.92v-15.84h51.84L469.12,252.32L469.12,252.32z M137.92,297.12v144.16H74.08V288.16
	c9.76-2.24,18.24-8.48,23.2-16.8c6.4,10.72,18.24,17.92,31.52,17.92s24.96-7.2,31.52-17.92c6.4,10.72,18.24,17.92,31.52,17.92
	s24.96-7.2,31.52-17.92c6.4,10.72,18.24,17.92,31.52,17.92c13.28,0,24.96-7.2,31.52-17.92c6.4,10.72,18.24,17.92,31.52,17.92
	s24.96-7.2,31.52-17.92c6.4,10.72,18.24,17.92,31.52,17.92s24.96-7.2,31.52-17.92c5.76,9.28,15.2,15.84,26.56,17.28v152.64H375.2
	V297.12H137.92L137.92,297.12z M363.2,308.16v133.28H261.6V308.16H363.2z M250.72,308.16v133.28h-101.6V308.16H250.72z
	 M102.72,252.32v-15.84h52.64c-0.48,5.28-0.8,10.56-0.8,15.84c0,14.4-11.52,25.92-25.92,25.92
	C114.4,278.24,102.72,266.56,102.72,252.32z M165.6,252.32c0-5.28,0.32-10.56,0.8-15.84h51.2v15.84c0,14.4-11.52,25.92-25.92,25.92
	C177.28,278.24,165.6,266.56,165.6,252.32z M190.08,156.96v-11.2h131.84v11.36H190.08V156.96z M280.16,225.6H228.8
	c0.16-4.32,0.32-8.32,0.8-12.48l6.08-45.12h37.44l6.08,45.12C279.84,217.12,280,221.28,280.16,225.6z M228.48,236.64h51.84v15.84
	c0,14.4-11.52,25.92-25.92,25.92c-14.4,0-25.92-11.52-25.92-25.92L228.48,236.64L228.48,236.64z M291.36,252.32v-15.84h51.2
	c0.48,5.28,0.8,10.56,0.8,15.84c0,14.4-11.52,25.92-25.92,25.92C303.2,278.24,291.36,266.56,291.36,252.32z M353.76,236.64h52.64
	v15.84c0,14.4-11.52,25.92-25.92,25.92c-14.4,0-25.92-11.52-25.92-25.92C354.24,247.04,354.08,241.76,353.76,236.64z M429.6,168
	l34.56,48c2.08,2.88,3.36,6.24,4.16,9.6h-51.36c-0.32-4.64-1.28-9.28-3.2-13.44L392.96,168H429.6z M380.64,168l23.04,48.8
	c1.28,2.72,1.92,5.76,2.24,8.64H352c-1.92-12.32-4.8-24.32-9.28-36l-8.16-21.6L380.64,168L380.64,168z M341.12,225.6H291.2
	c-0.16-4.64-0.32-9.44-0.8-14.08L284.32,168h38.72l9.6,25.44C336.48,203.84,339.36,214.56,341.12,225.6z M112.96,134.72V27.2h286.08
	v107.52h-66.08H179.2H112.96z M186.08,168h38.72l-6.08,43.52c-0.64,4.48-0.8,9.44-0.8,14.08H168c1.76-11.04,4.48-21.76,8.48-32.16
	L186.08,168z M174.24,168l-8.16,21.6c-4.32,11.68-7.52,23.68-9.28,36h-53.76c0.32-3.04,0.8-6.08,2.24-8.64l23.2-48.8L174.24,168
	L174.24,168z M44.8,215.84l34.56-48h36.8L95.36,212c-2.08,4.32-2.88,8.8-3.2,13.44H40.8C41.44,222.08,42.72,218.72,44.8,215.84z
	 M39.84,252.32v-15.84h51.84v15.84c0,14.4-11.52,25.92-25.92,25.92C51.52,278.24,39.84,266.56,39.84,252.32z M485.12,484.96H27.2
	v-32.64h35.84h74.88h236.32h74.88h35.84L485.12,484.96L485.12,484.96z M237.92,404.48h-11.04v-23.36h11.04V404.48z M285.28,404.48
	h-11.04v-23.36h11.04V404.48z M177.6,124.32c-12.8,0-23.2-10.4-23.2-23.2h11.04c0,6.72,5.44,12.16,12.16,12.16
	s12.16-5.6,12.16-12.16s-5.44-12.16-12.16-12.16c-12.8,0-23.2-10.4-23.2-23.2s10.4-23.2,23.2-23.2s23.2,10.4,23.2,23.2h-11.04
	c0-6.72-5.44-12.16-12.16-12.16s-12.16,5.44-12.16,12.16s5.44,12.16,12.16,12.16c12.8,0,23.2,10.4,23.2,23.2
	C200.96,113.92,190.56,124.32,177.6,124.32z M287.36,124.32c12.8,0,23.2-10.4,23.2-23.2V65.76c0-12.8-10.4-23.2-23.2-23.2
	c-12.8,0-23.2,10.4-23.2,23.2v35.52C264,113.92,274.56,124.32,287.36,124.32z M275.04,65.76c0-6.72,5.44-12.16,12.16-12.16
	s12.16,5.44,12.16,12.16v35.52c0,6.72-5.44,12.16-12.16,12.16s-12.16-5.6-12.16-12.16V65.76z M329.76,88.8h12.16
	c12.8,0,23.2-10.4,23.2-23.2s-10.4-23.2-23.2-23.2h-23.2v76.32h11.04V88.8z M329.76,53.44h12.16c6.72,0,12.16,5.44,12.16,12.16
	s-5.44,12.16-12.16,12.16h-12.16V53.44z M220.32,118.88h-11.04V48h11.04v29.92h24.48V48h11.04v70.88H244.8V88.96h-24.48V118.88z"/>
</svg>
