<?xml version="1.0" encoding="utf-8"?>
<!-- Generator: Adobe Illustrator 25.3.1, SVG Export Plug-In . SVG Version: 6.00 Build 0)  -->
<svg version="1.1" id="Layer_1" xmlns="http://www.w3.org/2000/svg" xmlns:xlink="http://www.w3.org/1999/xlink" x="0px" y="0px"
	 viewBox="0 0 512 512" style="enable-background:new 0 0 512 512;" xml:space="preserve">
<style type="text/css">
	.st0{fill:#008C28;}
</style>
<path class="st0" d="M323.44,125.12H312.4V82.08h11.04V125.12z M276.4,64.32h-11.04v43.04h11.04V64.32z M229.2,82.08h-11.04v43.04
	h11.04V82.08z M453.04,268v91.36h9.44c18.4,0,33.6,15.04,33.6,33.6v23.84c0,20.8-16.96,37.76-37.76,37.76h-27.68
	c-5.6,0-10.4-3.36-12.64-8.16h-32.64l3.52,31.84H254.32c-2.4,10.08-11.68,17.76-22.72,17.76H82.48c-12.96,0-23.36-10.56-23.36-23.36
	s10.56-23.36,23.36-23.36H94.8c-14.08-8.64-24.8-21.76-30.4-37.44H44.24c-15.52,0.16-28.32-12.48-28.32-28.16
	s12.64-28.32,28.32-28.32h56.16c0.48-42.24,34.88-76.32,77.12-76.32c5.76,0,11.2-1.76,16.16-4.8c4.48-3.04,7.84-7.68,9.92-12.64
	c-15.68-16.64-25.28-38.88-25.28-63.36l0,0v-0.32v-5.6v-7.2v-13.44v-51.2c-10.72-8.8-16.96-21.92-16.96-35.84
	c0-25.6,20.8-46.4,46.4-46.4h15.04C234.64,24.16,251.92,16,270.64,16s36,8.16,47.84,22.4h15.04c25.6,0,46.4,20.8,46.4,46.4
	c0,13.76-6.24,27.04-16.96,35.84v51.2v13.12v7.36v5.6v0.32l0,0c0,24.48-9.6,46.72-25.28,63.36c2.24,4.96,5.44,9.6,9.92,12.64
	c4.64,3.2,10.24,4.8,16.16,4.8c42.56,0,77.12,34.72,77.12,77.28v2.88h0.96v-91.36h-18.88c-13.28,0-24-10.88-24-24V172
	c0-13.28,10.88-24,24-24h48.8c13.28,0,24,10.88,24,24v71.84c0,13.28-10.88,24-24,24L453.04,268L453.04,268z M61.36,400.8
	c-0.8-4.48-1.44-9.28-1.44-14.08v-20.48H44.56c-9.6,0-17.28,7.84-17.28,17.28c0,9.6,7.84,17.28,17.28,17.28H61.36L61.36,400.8z
	 M340.88,334.72h17.44v-45.28c-4.48-0.64-8.8-2.08-12.96-4.32c-1.44,1.28-2.88,2.56-4.48,3.84V334.72z M352.24,177.44
	c-0.32-0.16-0.64-0.32-0.8-0.48c-5.28-3.52-11.04-6.56-16.8-9.44c-0.8-0.48-1.6-0.8-2.56-1.12c2.4,9.76,10.08,17.6,20,19.68v-8.64
	C352.08,177.44,352.24,177.44,352.24,177.44z M187.12,113.28l2.24,1.6v49.44c1.6-0.8,3.2-1.76,4.8-2.56
	c1.28-0.8,2.56-1.44,4.16-2.24c4.96-2.56,9.92-4.96,15.2-7.04l6.24-2.56v0.32c32.96-11.2,68.8-11.2,101.6,0v-0.32l6.24,2.56
	c0,0,0,0,0.16,0c5.44,2.24,10.72,4.48,15.84,7.2c0.8,0.48,1.76,0.8,2.56,1.44c1.92,0.96,3.84,2.08,5.76,3.04v-49.28l2.24-1.6
	c9.44-6.88,14.72-17.28,14.72-28.8c0-19.52-15.84-35.52-35.52-35.52h-20.48l-1.6-2.24c-9.76-12.96-24.8-20.16-40.8-20.16
	s-31.04,7.36-40.8,20.16l-1.6,2.24H207.6c-19.52,0-35.52,15.84-35.52,35.52C172.56,96.16,177.84,106.56,187.12,113.28z
	 M206.8,167.68c-4.96,2.4-9.6,4.96-14.24,7.84c-0.96,0.64-2.24,1.28-3.04,1.92v8.64c9.92-2.08,17.76-9.76,20-19.68
	C208.56,167.04,207.6,167.36,206.8,167.68z M270.8,279.52c44.8,0,81.28-36.48,81.28-81.28v-0.8c-17.6-2.56-31.04-17.44-31.68-35.68
	c-32-11.36-67.36-11.36-99.52,0c-0.64,18.24-14.08,32.96-31.68,35.68v0.8l0,0C189.52,243.04,226,279.52,270.8,279.52z
	 M336.24,278.72c-2.72-2.56-5.12-5.92-7.04-9.28c-16,13.12-36.32,20.96-58.4,20.96s-42.4-7.84-58.4-20.96
	c-1.92,3.36-4.32,6.4-7.04,9.28c18.4,15.2,41.28,23.68,65.44,23.68S317.84,294.08,336.24,278.72z M270.8,313.44
	c-21.12,0-41.44-5.92-59.2-16.64v38.08H330V296.8C312.24,307.52,291.92,313.44,270.8,313.44z M183.12,334.72h17.44v-45.6
	c-1.6-1.12-3.04-2.56-4.48-3.84c-4.16,2.08-8.32,3.52-12.96,4.32V334.72L183.12,334.72z M111.6,355.36h54.72l2.24-20.48h3.68v-44.32
	C138.64,293.28,112.08,321.12,111.6,355.36z M133.04,449.12h48.32c34.4,0,62.24-28,62.24-62.24V366.4H70.64v20.48
	C70.8,421.12,98.8,449.12,133.04,449.12z M244.24,472.48c0-6.88-5.6-12.32-12.32-12.32h-50.4H133.2H82.8
	c-6.88,0-12.32,5.6-12.32,12.32s5.6,12.32,12.32,12.32h149.28C238.64,484.8,244.24,479.36,244.24,472.48z M376.56,467.04
	l-13.44-121.28h-184.8l-0.96,9.6H270c15.52,0,28.32,12.64,28.32,28.32S285.68,412,270,412h-20c-5.76,15.68-16.48,28.8-30.4,37.44
	h12.32c11.04,0,20.16,7.68,22.72,17.92L376.56,467.04L376.56,467.04z M270,400.8c9.6,0,17.28-7.84,17.28-17.28
	c0-9.6-7.84-17.28-17.28-17.28h-15.36v20.48c0,4.8-0.64,9.6-1.44,14.08H270L270,400.8z M412.72,376.96c0-9.6,7.84-17.44,17.28-17.76
	v-3.04c0-34.56-26.88-62.88-60.8-65.6v44.32h3.68l11.2,100.32h33.76c0.32-0.8,0.8-1.28,1.28-2.08c-2.72-2.72-4.48-6.56-4.48-10.88
	c0-3.68,1.44-7.04,3.68-9.6c-3.04-3.04-4.8-7.2-4.8-11.84c0-4.32,1.76-8,4.32-11.2C414.8,386.4,412.72,381.92,412.72,376.96z
	 M430.64,370.24c-3.84,0-6.88,3.04-6.88,6.88s3.04,6.88,6.88,6.88h9.76v11.04h-9.76c-3.2,0-5.92,2.56-5.92,5.92s2.56,5.92,5.92,5.92
	h9.76v11.04h-9.76c-2.56,0-4.64,2.08-4.64,4.64s2.08,4.64,4.64,4.64h9.76v11.04h-9.76c-1.44,0-2.72,1.12-2.72,2.72
	s1.12,2.72,2.72,2.72h27.68c14.72,0,26.88-12,26.88-26.88v-23.84c0-12.48-10.08-22.56-22.56-22.56L430.64,370.24L430.64,370.24z
	 M471.92,256.96c7.2,0,12.96-5.92,12.96-13.12V172c0-7.2-5.92-13.12-12.96-13.12h-48.8c-7.2,0-12.96,5.92-12.96,13.12v71.84
	c0,7.2,5.92,13.12,12.96,13.12H471.92z M139.76,221.12c7.68-7.84,16.32-16.64,16.32-33.76h-11.04c0,12.8-6.08,18.88-12.96,26.08
	c-7.68,7.84-16.32,16.64-16.32,33.76h11.04C126.64,234.56,132.72,228.32,139.76,221.12z M86.8,257.28
	c7.68-7.84,16.32-16.64,16.32-33.76H92.08c0,12.8-6.08,18.88-12.96,26.08c-7.68,7.84-16.32,16.64-16.32,33.76h11.04
	C73.68,270.56,79.76,264.48,86.8,257.28z M254.8,197.28l6.56-8.8c-17.28-12.96-35.52-5.6-42.56,0l6.72,8.64
	C225.68,197.12,240.08,186.24,254.8,197.28z M316.08,197.12l6.72-8.64c-7.2-5.76-25.28-13.12-42.56,0l6.56,8.8
	C301.52,186.24,315.44,196.64,316.08,197.12z"/>
</svg>
