<?xml version="1.0" encoding="utf-8"?>
<!-- Generator: Adobe Illustrator 25.3.1, SVG Export Plug-In . SVG Version: 6.00 Build 0)  -->
<svg version="1.1" id="Layer_1" xmlns="http://www.w3.org/2000/svg" xmlns:xlink="http://www.w3.org/1999/xlink" x="0px" y="0px"
	 viewBox="0 0 512 512" style="enable-background:new 0 0 512 512;" xml:space="preserve">
<path d="M496,350v-54.08l-64.32-118.56H332.8V82H16v168.64v76.16v48.32h56.8c-0.16,1.6-0.48,3.2-0.48,4.8
	c0,15.84,7.68,29.92,19.04,39.04H21.44V430H490.4v-11.04h-58.24c11.52-9.28,19.04-23.2,19.04-39.04c0-1.6-0.32-3.2-0.48-4.8h17.12
	L496,350z M477.92,284.56h-114.4v-72.48h74.56L477.92,284.56z M27.04,261.68h25.12v54.24H27.04V261.68z M27.04,364.4v-37.44h36
	V250.8h-36V93.2h294.88v89.76v5.6v176H169.6c-6.56-19.84-25.28-34.08-47.2-34.08s-40.64,14.4-47.2,34.08L27.04,364.4L27.04,364.4z
	 M122.24,419.28c-21.6,0-39.04-17.44-39.04-39.04s17.44-39.04,39.04-39.04s39.04,17.44,39.04,39.04
	C161.44,401.84,143.84,419.28,122.24,419.28z M153.28,419.28c11.52-9.28,19.04-23.2,19.04-39.04c0-1.6-0.32-3.2-0.48-4.8h180
	c-0.16,1.6-0.48,3.2-0.48,4.8c0,15.84,7.68,29.92,19.04,39.04H153.28z M401.44,419.28c-21.6,0-39.04-17.44-39.04-39.04
	s17.44-39.04,39.04-39.04s39.04,17.44,39.04,39.04S422.88,419.28,401.44,419.28z M448.64,364.4c-6.56-19.84-25.28-34.08-47.2-34.08
	s-40.64,14.4-47.2,34.08h-21.28v-176h92.16l7.04,12.8h-79.68v94.4H484l0.96,1.92v47.84L464,364.4H448.64z M283.52,151.76h-176
	v-11.04h176V151.76z M201.76,177.36h81.6v11.04h-81.6C201.76,188.4,201.76,177.36,201.76,177.36z M401.44,360.4
	c-11.04,0-19.84,8.96-19.84,19.84c0,11.04,8.96,19.84,19.84,19.84s19.84-8.96,19.84-19.84C421.28,369.2,412.32,360.4,401.44,360.4z
	 M401.44,389.04c-4.8,0-8.8-4-8.8-8.8s4-8.8,8.8-8.8s8.8,4,8.8,8.8S406.24,389.04,401.44,389.04z M122.24,360.4
	c-11.04,0-19.84,8.96-19.84,19.84c0,11.04,8.96,19.84,19.84,19.84s19.84-8.96,19.84-19.84C142.24,369.2,133.28,360.4,122.24,360.4z
	 M122.24,389.04c-4.8,0-8.8-4-8.8-8.8s4-8.8,8.8-8.8s8.8,4,8.8,8.8C131.2,385.04,127.2,389.04,122.24,389.04z"/>
</svg>
