<?xml version="1.0" encoding="utf-8"?>
<!-- Generator: Adobe Illustrator 25.3.1, SVG Export Plug-In . SVG Version: 6.00 Build 0)  -->
<svg version="1.1" id="Layer_1" xmlns="http://www.w3.org/2000/svg" xmlns:xlink="http://www.w3.org/1999/xlink" x="0px" y="0px"
	 viewBox="0 0 512 512" style="enable-background:new 0 0 512 512;" xml:space="preserve">
<path d="M132,343.36c-8.48,0-15.2,6.88-15.2,15.2c0,8.48,6.88,15.2,15.2,15.2s15.2-6.88,15.2-15.2
	C147.36,350.24,140.32,343.36,132,343.36z M129.76,358.72c0-1.28,0.96-2.24,2.24-2.24s2.24,0.96,2.24,2.24
	C134.4,361.12,129.76,361.12,129.76,358.72z M421.28,343.36c-8.48,0-15.2,6.88-15.2,15.2c0,8.48,6.88,15.2,15.2,15.2
	s15.2-6.88,15.2-15.2C436.32,350.24,429.6,343.36,421.28,343.36z M419.04,358.72c0-1.28,0.96-2.24,2.24-2.24s2.24,0.96,2.24,2.24
	C423.52,361.12,419.04,361.12,419.04,358.72z M186.88,330.24H366.4v12.96H186.88V330.24z M474.56,270.4l-40.64-19.36l-40.8-85.28
	c-16.48-34.56-52-56.96-90.4-56.96H28.96v221.44H16v43.52h74.24c6.24,17.12,22.56,29.28,41.76,29.28s35.52-12.16,41.76-29.28h205.76
	c6.24,17.12,22.56,29.28,41.76,29.28s35.52-12.16,41.76-29.28h12.16c11.52,0,20.96-9.44,20.96-20.96v-48.16
	C496.32,290.08,487.84,276.64,474.56,270.4z M419.04,249.44h-92c-7.68,0-13.92-6.24-13.92-13.92l0.16-48.8h76L419.04,249.44z
	 M65.92,361.12H28.96v-17.76h37.12v17.76H65.92z M132,390.4c-17.44,0-31.68-14.24-31.68-31.68s14.24-31.68,31.68-31.68
	s31.68,14.24,31.68,31.68S149.6,390.4,132,390.4z M421.28,390.4c-17.44,0-31.68-14.24-31.68-31.68s14.24-31.68,31.68-31.68
	s31.68,14.24,31.68,31.68S438.72,390.4,421.28,390.4z M483.36,352.8c0,4.48-3.68,8.16-8.16,8.16h-9.6c0-0.8,0.16-1.6,0.16-2.4
	c0-5.44-0.96-10.56-2.88-15.36h20.48V352.8z M483.36,330.24h-27.84c-8.32-9.76-20.32-16.32-34.24-16.32
	c-24.64,0-44.64,20-44.64,44.64c0,0.8,0.16,1.6,0.16,2.4H176.16c0-0.8,0.16-1.6,0.16-2.4c0-24.64-20-44.64-44.64-44.64
	s-44.64,20-44.64,44.64c0,0.8,0.16,1.6,0.16,2.4h-8.48v-30.72h-36.8V121.76h260.8c33.44,0,64.32,19.52,78.72,49.6l1.28,2.4h-69.76
	c-7.2,0-13.12,5.92-13.12,13.12v48.64c0,14.88,12,26.88,26.88,26.88h100.8l41.28,19.68c8.64,4.16,14.24,12.96,14.24,22.56v25.6
	H483.36z"/>
</svg>
