<?xml version="1.0" encoding="utf-8"?>
<!-- Generator: Adobe Illustrator 25.3.1, SVG Export Plug-In . SVG Version: 6.00 Build 0)  -->
<svg version="1.1" id="Layer_1" xmlns="http://www.w3.org/2000/svg" xmlns:xlink="http://www.w3.org/1999/xlink" x="0px" y="0px"
	 viewBox="0 0 512 512" style="enable-background:new 0 0 512 512;" xml:space="preserve">
<path d="M84.32,330.4c-7.2,0-12.96,5.92-12.96,12.96c0,7.2,5.92,12.96,12.96,12.96s12.96-5.92,12.96-12.96
	C97.12,336.32,91.36,330.4,84.32,330.4z M82.4,343.52c0-0.96,0.8-1.92,1.92-1.92c0.96,0,1.92,0.8,1.92,1.92
	C86.24,345.6,82.4,345.6,82.4,343.52z M432.16,330.4c-7.2,0-12.96,5.92-12.96,12.96c0,7.2,5.92,12.96,12.96,12.96
	c7.2,0,12.96-5.92,12.96-12.96C444.96,336.32,439.2,330.4,432.16,330.4z M430.24,343.52c0-0.96,0.8-1.92,1.92-1.92
	s1.92,0.8,1.92,1.92C434.08,345.6,430.24,345.6,430.24,343.52z M496,269.76L496,269.76v-5.44c0-7.04-3.36-13.44-9.12-17.6
	l-25.92-18.4l-9.6-35.84c-5.12-19.2-22.56-32.48-42.24-32.48h-33.6v-29.12H16V340.8h30.56c0,0.8-0.32,1.6-0.32,2.56
	c0,20.96,16.96,37.92,37.92,37.92s37.92-16.96,37.92-37.92c0-0.8-0.16-1.76-0.32-2.56h126.72v16h79.04v-16h66.72
	c0,0.8-0.32,1.6-0.32,2.56c0,20.96,16.96,37.92,37.92,37.92s37.92-16.96,37.92-37.92c0-0.8-0.16-1.76-0.32-2.56h8.16
	c9.28,0,16.64-7.04,17.6-16h0.8v-1.92l0,0l0,0v-18.4l0,0V269.76L496,269.76z M484.8,293.6h-6.56v-12.8h6.56V293.6z M375.52,171.2
	h33.6c14.88,0,27.68,9.92,31.52,24.16l8.32,30.88h-73.44V171.2z M375.52,237.28h78.88l12.16,8.64h-90.88L375.52,237.28
	L375.52,237.28z M27.04,141.92h337.6v127.84H27.04V141.92L27.04,141.92z M84.32,370.4c-14.88,0-27.04-12.16-27.04-27.04
	s12.16-27.04,27.04-27.04s27.04,12.16,27.04,27.04C111.2,358.24,99.04,370.4,84.32,370.4z M248.8,329.92H119.68
	c-0.8-1.76-1.44-3.36-2.4-4.96h131.68L248.8,329.92L248.8,329.92z M316.8,345.92h-56.96v-20.96h56.96V345.92z M322.24,313.92h-68
	h-5.6h-140.8c-6.4-5.28-14.72-8.48-23.52-8.48c-16.16,0-29.92,10.08-35.36,24.48H26.88V280.8h337.6v33.12h-36.8
	C327.68,313.92,322.24,313.92,322.24,313.92z M432.16,370.4c-14.88,0-27.04-12.16-27.04-27.04s12.16-27.04,27.04-27.04
	s27.04,12.16,27.04,27.04C459.04,358.24,446.88,370.4,432.16,370.4z M461.12,319.36c-7.04-8.32-17.28-13.92-29.12-13.92
	c-16.16,0-29.92,10.08-35.36,24.48h-68.96v-4.96h47.84V256.8h105.76c2.24,2.08,3.52,4.64,3.52,7.68v5.44h-17.6v34.72h17.6v14.88
	L461.12,319.36L461.12,319.36z"/>
</svg>
