<?xml version="1.0" encoding="utf-8"?>
<!-- Generator: Adobe Illustrator 25.3.1, SVG Export Plug-In . SVG Version: 6.00 Build 0)  -->
<svg version="1.1" id="Layer_1" xmlns="http://www.w3.org/2000/svg" xmlns:xlink="http://www.w3.org/1999/xlink" x="0px" y="0px"
	 viewBox="0 0 32 32" style="enable-background:new 0 0 32 32;" xml:space="preserve">
<style type="text/css">
	.st0{fill:#E90000;}
</style>
<path class="st0" d="M26.74,20.69V10.15c2.37-0.18,4.25-2.14,4.25-4.56C30.99,3.06,28.93,1,26.4,1c-2.42,0-4.38,1.88-4.56,4.25
	h-1.65V2.33h-4.75V1H5.75v1.33H1v25.64h12.06v1.24h1.4c0.16,1.02,1.04,1.8,2.11,1.8s1.94-0.78,2.11-1.8h5.22
	C24.06,30.22,24.94,31,26,31s1.94-0.78,2.11-1.8H31v-2.95l-2.62-5.56H26.74L26.74,20.69z M26.39,1.68c2.15,0,3.9,1.75,3.9,3.9
	s-1.75,3.9-3.9,3.9s-3.9-1.75-3.9-3.9S24.24,1.68,26.39,1.68z M20.19,5.93h1.65c0.17,2.25,1.96,4.05,4.21,4.21v10.53h-1.7v-1.53
	h-4.16C20.19,19.14,20.19,5.93,20.19,5.93z M23.66,19.84v4.96h-9.92v-4.96H23.66z M15.43,3.01h4.07v16.15h-1.78V4.78h-2.3
	L15.43,3.01L15.43,3.01z M6.44,1.68h8.32v3.76H6.44V1.68z M13.05,25.5v1.78H1.68V3.02h4.07V4.8h-2.3v20.7H13.05L13.05,25.5z
	 M13.05,24.81H4.14V5.47h1.61v0.65h9.69V5.47h1.61v13.69h-3.99L13.05,24.81L13.05,24.81z M16.56,30.3c-0.8,0-1.46-0.65-1.46-1.46
	s0.65-1.46,1.46-1.46c0.81,0,1.46,0.65,1.46,1.46C18.01,29.65,17.36,30.3,16.56,30.3z M25.99,30.3c-0.8,0-1.46-0.65-1.46-1.46
	s0.65-1.46,1.46-1.46s1.46,0.65,1.46,1.46C27.45,29.65,26.79,30.3,25.99,30.3z M30.29,28.51h-2.21c-0.16-1.02-1.04-1.8-2.11-1.8
	s-1.94,0.78-2.11,1.8h-5.22c-0.16-1.02-1.04-1.8-2.11-1.8s-1.94,0.78-2.11,1.8h-0.71V25.5h10.6v-4.13h3.59l2.36,4.96L30.29,28.51
	L30.29,28.51z M25.6,7.52l-1.24-1.24l0.49-0.49l0.75,0.75l2.27-2.27l0.49,0.49L25.6,7.52z M6.5,11.13L5.27,9.89L5.76,9.4l0.75,0.75
	l2.27-2.27l0.49,0.49L6.5,11.13z M6.5,16.52l-1.24-1.24l0.49-0.49l0.75,0.75l2.27-2.27l0.49,0.49L6.5,16.52z M5.18,23.91h5.5V18.4
	h-5.5C5.18,18.4,5.18,23.91,5.18,23.91z M5.86,19.09h4.13v4.13H5.86V19.09z M10.33,7.15h5.85v0.69h-5.85V7.15z M10.33,9.04h4.24
	v0.69h-4.24V9.04z M10.33,10.93h4.24v0.69h-4.24V10.93z M10.33,12.82h4.24v0.69h-4.24V12.82z M10.33,14.71h4.24v0.69h-4.24V14.71z
	 M10.33,16.6h4.24v0.69h-4.24V16.6z"/>
</svg>
