<?xml version="1.0" encoding="utf-8"?>
<!-- Generator: Adobe Illustrator 25.3.1, SVG Export Plug-In . SVG Version: 6.00 Build 0)  -->
<svg version="1.1" id="Layer_1" xmlns="http://www.w3.org/2000/svg" xmlns:xlink="http://www.w3.org/1999/xlink" x="0px" y="0px"
	 viewBox="0 0 32 32" style="enable-background:new 0 0 32 32;" xml:space="preserve">
<style type="text/css">
	.st0{fill:#E90000;}
</style>
<path class="st0" d="M31,7.28V4.75L16,1L1,4.75v2.54l1.83-0.46v6.4H1v8.54v0.69V31h0.35h8.21h0.69h8.54h11.87v-0.69h-1.48V6.82
	L31,7.28z M9.55,30.31H1.7v-7.86h1.76v4.58H7.8v-4.58h1.75V30.31z M4.13,26.35v-3.89h2.98v3.89H4.13z M9.55,21.77H7.79H3.45H1.69
	v-7.86h1.76v4.58H7.8v-4.58h1.76v7.86H9.55z M4.13,17.8v-3.89h2.98v3.89H4.13z M18.1,30.31h-7.86v-7.86H12v4.58h4.35v-4.58h1.76
	L18.1,30.31L18.1,30.31z M12.68,26.35v-3.89h2.98v3.89H12.68z M24.74,30.31h-5.95v-8.54h-2.45h-4.35h-1.76v-2.62h14.5L24.74,30.31
	L24.74,30.31z M24.74,18.46h-14.5v-1.38h14.5V18.46z M24.74,16.39h-14.5v-1.38h14.5V16.39z M24.74,14.33h-14.5v-1.11H7.79H7.26
	v-0.27h17.47v1.38H24.74z M24.74,12.26H7.26v-0.84h17.47v0.84H24.74z M28.48,30.31h-3.05V10.73H6.59v2.48H3.54V6.64l12.47-3.12
	l12.47,3.12V30.31L28.48,30.31z M16,2.82L1.7,6.4V5.28L16,1.7l14.3,3.58V6.4L16,2.82z M12.02,8.66h8.01V5.23h-8.01V8.66z M12.7,5.92
	h6.64v2.06H12.7V5.92z M7.11,20.16H7.8v0.94H7.11V20.16z M7.11,28.71H7.8v0.94H7.11V28.71z M15.66,28.71h0.69v0.94h-0.69
	C15.66,29.65,15.66,28.71,15.66,28.71z"/>
</svg>
