<?xml version="1.0" encoding="utf-8"?>
<!-- Generator: Adobe Illustrator 25.3.1, SVG Export Plug-In . SVG Version: 6.00 Build 0)  -->
<svg version="1.1" id="Layer_1" xmlns="http://www.w3.org/2000/svg" xmlns:xlink="http://www.w3.org/1999/xlink" x="0px" y="0px"
	 viewBox="0 0 64 64" style="enable-background:new 0 0 64 64;" xml:space="preserve">
<style type="text/css">
	.st0{fill:#E90000;}
</style>
<path class="st0" d="M32.02,2L2,17v45h3.66h17.1h1.38h15.72h1.38h17.1H62V17L32.02,2z M22.78,60.6H7.06V44.88h3.52v8.88l4.36,2.18
	l4.36-2.18v-8.9h3.52V60.6H22.78z M11.94,52.92v-8.04h5.96v8.04l-2.96,1.48L11.94,52.92z M22.78,43.5h-3.52h-8.7H7.04V27.78h3.52
	v8.9l4.36,2.18l4.36-2.18v-8.9h3.52L22.78,43.5L22.78,43.5z M11.94,35.84V27.8h5.96v8.04l-2.96,1.48L11.94,35.84z M39.88,60.6H24.16
	V44.88h3.52v8.88l4.36,2.18l4.36-2.18v-8.9h3.52V60.6H39.88z M29.04,52.92v-8.04H35v8.04l-2.96,1.48L29.04,52.92z M39.88,43.5h-3.52
	h-8.7h-3.52V27.78h3.52v8.9l4.36,2.18l4.36-2.18v-8.9h3.52L39.88,43.5L39.88,43.5z M29.04,35.84V27.8H35v8.04l-2.96,1.48
	L29.04,35.84z M57,60.6H41.28V44.88h3.52v8.88l4.36,2.18l4.36-2.18v-8.9h3.52V60.6H57z M46.14,52.92v-8.04h5.96v8.04l-2.96,1.48
	L46.14,52.92z M57,43.5h-3.52h-8.7h-3.52V27.78h3.52v8.9l4.36,2.18l4.36-2.18v-8.9h3.52L57,43.5L57,43.5z M46.14,35.84V27.8h5.96
	v8.04l-2.96,1.48L46.14,35.84z M57,26.4h-3.52h-8.7h-3.52h-1.38h-3.52h-8.7h-3.52h-1.38h-3.52h-8.7H7.02v-1.68h49.94v1.68H57z
	 M57,23.34H7.06v-1.68H57V23.34z M60.66,60.6h-2.3V44.88V43.5V26.4v-6.1H5.68v6.1v17.1v1.38V60.6H3.4V17.86L32.02,3.54l28.62,14.32
	L60.66,60.6L60.66,60.6z M16.52,29.14h-3.2v5.04h3.2V29.14z M15.14,32.8h-0.46v-2.3h0.46V32.8z M33.64,29.14h-3.2v5.04h3.2V29.14z
	 M32.26,32.8H31.8v-2.3h0.46V32.8z M24.04,17.42h16.04v-6.88H24.04V17.42z M25.42,11.92H38.7v4.12H25.42V11.92z M50.72,29.14h-3.2
	v5.04h3.2V29.14z M49.36,32.8H48.9v-2.3h0.46V32.8z M16.52,46.26h-3.2v5.04h3.2V46.26z M15.14,49.92h-0.46v-2.3h0.46V49.92z
	 M33.64,46.26h-3.2v5.04h3.2V46.26z M32.26,49.92H31.8v-2.3h0.46V49.92z M50.72,46.26h-3.2v5.04h3.2V46.26z M49.36,49.92H48.9v-2.3
	h0.46V49.92z"/>
</svg>
