<?xml version="1.0" encoding="utf-8"?>
<!-- Generator: Adobe Illustrator 25.3.1, SVG Export Plug-In . SVG Version: 6.00 Build 0)  -->
<svg version="1.1" id="Layer_1" xmlns="http://www.w3.org/2000/svg" xmlns:xlink="http://www.w3.org/1999/xlink" x="0px" y="0px"
	 viewBox="0 0 44 44" style="enable-background:new 0 0 44 44;" xml:space="preserve">
<style type="text/css">
	.st0{fill:#383838;}
</style>
<path id="Path_2520" class="st0" d="M33.97,33.97h-5.04v-7.89c0-1.88-0.03-4.3-2.62-4.3c-2.62,0-3.03,2.05-3.03,4.17v8.03h-5.04
	V17.75h4.84v2.22h0.07c0.99-1.69,2.82-2.69,4.77-2.62c5.11,0,6.05,3.36,6.05,7.73L33.97,33.97z M12.56,15.53
	c-1.62,0-2.92-1.31-2.92-2.92s1.31-2.92,2.92-2.92s2.92,1.31,2.92,2.92C15.49,14.22,14.18,15.53,12.56,15.53L12.56,15.53
	 M15.08,33.97h-5.04V17.75h5.04V33.97z M36.48,5H7.51C6.14,4.99,5.02,6.08,5,7.45v29.09c0.02,1.37,1.14,2.47,2.51,2.45h28.97
	c1.37,0.02,2.5-1.08,2.52-2.45V7.45C38.98,6.08,37.85,4.98,36.48,5"/>
</svg>
