<?xml version="1.0" encoding="utf-8"?>
<!-- Generator: Adobe Illustrator 25.3.1, SVG Export Plug-In . SVG Version: 6.00 Build 0)  -->
<svg version="1.1" id="Layer_1" xmlns="http://www.w3.org/2000/svg" xmlns:xlink="http://www.w3.org/1999/xlink" x="0px" y="0px"
	 viewBox="0 0 44 44" style="enable-background:new 0 0 44 44;" xml:space="preserve">
<style type="text/css">
	.st0{fill:#383838;}
</style>
<path class="st0" d="M22,8.06c4.54,0,5.08,0.02,6.87,0.1c1.85,0.09,3.76,0.51,5.11,1.86c1.36,1.36,1.77,3.25,1.86,5.11
	c0.08,1.79,0.1,2.33,0.1,6.87s-0.02,5.08-0.1,6.87c-0.08,1.84-0.52,3.77-1.86,5.11c-1.36,1.36-3.25,1.77-5.11,1.86
	c-1.79,0.08-2.33,0.1-6.87,0.1s-5.08-0.02-6.87-0.1c-1.83-0.08-3.78-0.53-5.11-1.86c-1.36-1.36-1.77-3.26-1.86-5.11
	c-0.08-1.79-0.1-2.33-0.1-6.87s0.02-5.08,0.1-6.87c0.08-1.84,0.52-3.77,1.86-5.11c1.36-1.36,3.26-1.77,5.11-1.86
	C16.92,8.08,17.46,8.06,22,8.06 M22,5c-4.62,0-5.2,0.02-7.01,0.1c-2.63,0.12-5.24,0.85-7.14,2.75c-1.91,1.91-2.63,4.51-2.75,7.14
	C5.02,16.8,5,17.38,5,22s0.02,5.2,0.1,7.01c0.12,2.63,0.85,5.24,2.75,7.14c1.91,1.91,4.51,2.63,7.14,2.75C16.8,38.98,17.38,39,22,39
	s5.2-0.02,7.01-0.1c2.63-0.12,5.24-0.85,7.14-2.75c1.91-1.91,2.63-4.51,2.75-7.14C38.98,27.2,39,26.62,39,22s-0.02-5.2-0.1-7.01
	c-0.12-2.63-0.85-5.24-2.75-7.14c-1.9-1.9-4.52-2.63-7.14-2.75C27.2,5.02,26.62,5,22,5z M22,13.27c-4.82,0-8.73,3.91-8.73,8.73
	s3.91,8.73,8.73,8.73s8.73-3.91,8.73-8.73S26.82,13.27,22,13.27z M22,27.67c-3.13,0-5.67-2.54-5.67-5.67s2.54-5.67,5.67-5.67
	s5.67,2.54,5.67,5.67S25.13,27.67,22,27.67z M31.08,10.88c1.13,0,2.04,0.91,2.04,2.04s-0.91,2.04-2.04,2.04s-2.04-0.91-2.04-2.04
	S29.95,10.88,31.08,10.88z"/>
</svg>
