<?xml version="1.0" encoding="utf-8"?>
<!-- Generator: Adobe Illustrator 25.3.1, SVG Export Plug-In . SVG Version: 6.00 Build 0)  -->
<svg version="1.1" id="Layer_1" xmlns="http://www.w3.org/2000/svg" xmlns:xlink="http://www.w3.org/1999/xlink" x="0px" y="0px"
	 viewBox="0 0 64 64" style="enable-background:new 0 0 64 64;" xml:space="preserve">
<style type="text/css">
	.st0{fill:#FFFFFF;}
</style>
<path class="st0" d="M56.16,55.16v-19.1c2.18-0.36,3.86-2.26,3.86-4.54v-2.66c0-0.98-0.32-1.9-0.88-2.72L54.4,19.6H41.64v-1.4h9.64
	V2H12.76v16.2h9.64v1.4H9.22l-4.74,6.56c-0.56,0.78-0.88,1.72-0.88,2.72v2.66c0,2.44,1.88,4.4,4.26,4.58v19.06H2V62h60v-6.84H56.16
	L56.16,55.16z M58.64,31.54c0,1.8-1.44,3.24-3.24,3.24c-1.8,0-3.24-1.44-3.24-3.24v-1.98h6.48L58.64,31.54L58.64,31.54z
	 M17.24,37.14v18.02H9.26V36.02c1.22-0.28,2.28-1.06,2.9-2.1c0.8,1.34,2.28,2.24,3.94,2.24s3.12-0.9,3.94-2.24
	c0.8,1.34,2.28,2.24,3.94,2.24s3.12-0.9,3.94-2.24c0.8,1.34,2.28,2.24,3.94,2.24c1.66,0,3.12-0.9,3.94-2.24
	c0.8,1.34,2.28,2.24,3.94,2.24s3.12-0.9,3.94-2.24c0.8,1.34,2.28,2.24,3.94,2.24s3.12-0.9,3.94-2.24c0.72,1.16,1.9,1.98,3.32,2.16
	v19.08H46.9V37.14H17.24L17.24,37.14z M45.4,38.52v16.66H32.7V38.52H45.4z M31.34,38.52v16.66h-12.7V38.52H31.34z M12.84,31.54
	v-1.98h6.58c-0.06,0.66-0.1,1.32-0.1,1.98c0,1.8-1.44,3.24-3.24,3.24C14.3,34.78,12.84,33.32,12.84,31.54z M20.7,31.54
	c0-0.66,0.04-1.32,0.1-1.98h6.4v1.98c0,1.8-1.44,3.24-3.24,3.24C22.16,34.78,20.7,33.32,20.7,31.54z M23.76,19.62v-1.4h16.48v1.42
	H23.76V19.62z M35.02,28.2H28.6c0.02-0.54,0.04-1.04,0.1-1.56L29.46,21h4.68l0.76,5.64C34.98,27.14,35,27.66,35.02,28.2z
	 M28.56,29.58h6.48v1.98c0,1.8-1.44,3.24-3.24,3.24c-1.8,0-3.24-1.44-3.24-3.24L28.56,29.58L28.56,29.58z M36.42,31.54v-1.98h6.4
	c0.06,0.66,0.1,1.32,0.1,1.98c0,1.8-1.44,3.24-3.24,3.24C37.9,34.78,36.42,33.32,36.42,31.54z M44.22,29.58h6.58v1.98
	c0,1.8-1.44,3.24-3.24,3.24c-1.8,0-3.24-1.44-3.24-3.24C44.28,30.88,44.26,30.22,44.22,29.58z M53.7,21l4.32,6
	c0.26,0.36,0.42,0.78,0.52,1.2h-6.42c-0.04-0.58-0.16-1.16-0.4-1.68L49.12,21H53.7z M47.58,21l2.88,6.1
	c0.16,0.34,0.24,0.72,0.28,1.08H44c-0.24-1.54-0.6-3.04-1.16-4.5l-1.02-2.7L47.58,21L47.58,21z M42.64,28.2H36.4
	c-0.02-0.58-0.04-1.18-0.1-1.76L35.54,21h4.84l1.2,3.18C42.06,25.48,42.42,26.82,42.64,28.2z M14.12,16.84V3.4h35.76v13.44h-8.26
	H22.4H14.12z M23.26,21h4.84l-0.76,5.44c-0.08,0.56-0.1,1.18-0.1,1.76H21c0.22-1.38,0.56-2.72,1.06-4.02L23.26,21z M21.78,21
	l-1.02,2.7c-0.54,1.46-0.94,2.96-1.16,4.5h-6.72c0.04-0.38,0.1-0.76,0.28-1.08l2.9-6.1L21.78,21L21.78,21z M5.6,26.98l4.32-6h4.6
	l-2.6,5.52c-0.26,0.54-0.36,1.1-0.4,1.68H5.1C5.18,27.76,5.34,27.34,5.6,26.98z M4.98,31.54v-1.98h6.48v1.98
	c0,1.8-1.44,3.24-3.24,3.24C6.44,34.78,4.98,33.32,4.98,31.54z M60.64,60.62H3.4v-4.08h4.48h9.36h29.54h9.36h4.48L60.64,60.62
	L60.64,60.62z M29.74,50.56h-1.38v-2.92h1.38V50.56z M35.66,50.56h-1.38v-2.92h1.38V50.56z M22.2,15.54c-1.6,0-2.9-1.3-2.9-2.9h1.38
	c0,0.84,0.68,1.52,1.52,1.52s1.52-0.7,1.52-1.52s-0.68-1.52-1.52-1.52c-1.6,0-2.9-1.3-2.9-2.9s1.3-2.9,2.9-2.9s2.9,1.3,2.9,2.9
	h-1.38c0-0.84-0.68-1.52-1.52-1.52s-1.52,0.68-1.52,1.52s0.68,1.52,1.52,1.52c1.6,0,2.9,1.3,2.9,2.9
	C25.12,14.24,23.82,15.54,22.2,15.54z M35.92,15.54c1.6,0,2.9-1.3,2.9-2.9V8.22c0-1.6-1.3-2.9-2.9-2.9c-1.6,0-2.9,1.3-2.9,2.9v4.44
	C33,14.24,34.32,15.54,35.92,15.54z M34.38,8.22c0-0.84,0.68-1.52,1.52-1.52s1.52,0.68,1.52,1.52v4.44c0,0.84-0.68,1.52-1.52,1.52
	s-1.52-0.7-1.52-1.52V8.22z M41.22,11.1h1.52c1.6,0,2.9-1.3,2.9-2.9s-1.3-2.9-2.9-2.9h-2.9v9.54h1.38V11.1z M41.22,6.68h1.52
	c0.84,0,1.52,0.68,1.52,1.52s-0.68,1.52-1.52,1.52h-1.52V6.68z M27.54,14.86h-1.38V6h1.38v3.74h3.06V6h1.38v8.86H30.6v-3.74h-3.06
	V14.86z"/>
</svg>
