<?xml version="1.0" encoding="utf-8"?>
<!-- Generator: Adobe Illustrator 25.3.1, SVG Export Plug-In . SVG Version: 6.00 Build 0)  -->
<svg version="1.1" id="Layer_1" xmlns="http://www.w3.org/2000/svg" xmlns:xlink="http://www.w3.org/1999/xlink" x="0px" y="0px"
	 viewBox="0 0 64 64" style="enable-background:new 0 0 64 64;" xml:space="preserve">
<style type="text/css">
	.st0{fill:#FFFFFF;}
</style>
<path class="st0" d="M16.7,17.72c1.52,0,2.74-1.22,2.74-2.74s-1.22-2.76-2.74-2.76s-2.74,1.22-2.74,2.74S15.18,17.72,16.7,17.72z
	 M16.7,13.6c0.76,0,1.38,0.62,1.38,1.38s-0.64,1.36-1.38,1.36c-0.76,0-1.38-0.62-1.38-1.38S15.92,13.6,16.7,13.6z M55.94,36.28
	c-1.52,0-2.74,1.22-2.74,2.74s1.22,2.74,2.74,2.74s2.74-1.22,2.74-2.74S57.46,36.28,55.94,36.28z M55.94,40.42
	c-0.76,0-1.38-0.62-1.38-1.38s0.62-1.38,1.38-1.38c0.76,0,1.38,0.62,1.38,1.38S56.68,40.42,55.94,40.42z M60.74,35.34
	c-1.32-1.7-3.4-2.52-5.4-2.3c0.02-0.34,0.04-0.68,0.04-1.02c0-4.64-1.36-9.08-3.9-12.94c2.38-3.96,2.18-9-0.68-12.7
	C47,1.48,39.94,0.58,35,4.34c-1.52,1.18-2.66,2.66-3.38,4.3c-3.56,0.06-7.06,0.94-10.18,2.52c-2.06-2.54-5.8-3-8.42-0.98
	c-2.62,2-3.14,5.8-1.06,8.56l0.44,0.56c-2.3,3.54-3.58,7.6-3.74,11.84H2v15.64v0.7v9.78h3.68C6.04,59.92,8.28,62,11.06,62
	s5.02-2.08,5.36-4.74h14.2C30.98,59.92,33.22,62,36,62s5.02-2.08,5.36-4.74h7.62v-7.58l-0.52-1.1c1.4-1.4,2.6-2.94,3.62-4.62
	l3.86,5.02l4.68-6.06l0.08-0.08C62.42,40.62,62.44,37.54,60.74,35.34z M35.82,5.4c1.8-1.38,3.92-2.06,6.02-2.06
	c2.96,0,5.9,1.32,7.84,3.84c2.76,3.6,2.74,8.64-0.1,12.22l0.54,0.42l-0.58-0.38l-7.66,9.96l-7.76-10.04l-0.16-0.18
	C30.74,14.86,31.56,8.68,35.82,5.4z M13.82,11.26c0.86-0.66,1.86-0.98,2.86-0.98c1.42,0,2.8,0.62,3.72,1.82
	c1.32,1.7,1.3,4.1-0.06,5.8l0.54,0.42l-0.56-0.4l-3.62,4.72l-3.78-4.84C11.4,15.76,11.8,12.84,13.82,11.26z M3.34,32.52h26.68V46.1
	H3.34V32.52z M11.02,60.62c-2.24,0-4.06-1.84-4.06-4.06c0-2.24,1.84-4.06,4.06-4.06s4.06,1.84,4.06,4.06
	C15.08,58.82,13.28,60.62,11.02,60.62z M35.98,60.62c-2.24,0-4.06-1.84-4.06-4.06c0-2.24,1.84-4.06,4.06-4.06s4.06,1.84,4.06,4.06
	C40.04,58.82,38.22,60.62,35.98,60.62z M47.6,55.88h-6.24c-0.34-2.68-2.6-4.74-5.36-4.74s-5.02,2.08-5.36,4.74H16.4
	c-0.34-2.68-2.6-4.74-5.36-4.74s-5.02,2.08-5.36,4.74H3.36v-8.4h28.06V36.56h9.86l6.32,13.26V55.88L47.6,55.88z M47.84,47.22
	l-5.7-12.06H31.42v-4.04H10c0.14-3.8,1.26-7.46,3.26-10.68l3.44,4.46l4.68-6.08l0.06-0.08c1.46-1.86,1.7-4.36,0.7-6.44
	c2.76-1.4,5.82-2.18,8.96-2.3c-0.98,3.32-0.44,7.02,1.8,9.98l8.98,11.64l8.68-11.28l0.08-0.08c2.2,3.5,3.38,7.52,3.38,11.7
	c0,0.46-0.02,0.9-0.06,1.34c-0.6,0.2-1.2,0.5-1.72,0.9c-2.6,2.02-3.12,5.78-1.06,8.54C50.24,44.38,49.12,45.88,47.84,47.22z
	 M59.6,41.96l0.54,0.42l-0.56-0.4l-3.62,4.72l-3.76-4.86c-1.54-2.06-1.14-4.98,0.88-6.54c0.86-0.66,1.86-0.98,2.86-0.98
	c1.42,0,2.8,0.62,3.72,1.82C60.96,37.88,60.94,40.26,59.6,41.96z M41.86,21.16c4.38,0,7.94-3.56,7.94-7.94s-3.56-7.94-7.94-7.94
	s-7.94,3.56-7.94,7.94S37.48,21.16,41.86,21.16z M41.86,6.66c3.62,0,6.56,2.96,6.56,6.56s-2.96,6.56-6.56,6.56
	c-3.62,0-6.56-2.96-6.56-6.56S38.22,6.66,41.86,6.66z M28.46,27.62h2.26V29h-2.26V27.62z M24.32,27.62h2.26V29h-2.26V27.62z
	 M20.18,27.62h2.26V29h-2.26V27.62z"/>
</svg>
