<?xml version="1.0" encoding="utf-8"?>
<!-- Generator: Adobe Illustrator 25.3.1, SVG Export Plug-In . SVG Version: 6.00 Build 0)  -->
<svg version="1.1" id="Layer_1" xmlns="http://www.w3.org/2000/svg" xmlns:xlink="http://www.w3.org/1999/xlink" x="0px" y="0px"
	 viewBox="0 0 64 64" style="enable-background:new 0 0 64 64;" xml:space="preserve">
<style type="text/css">
	.st0{fill:#FFFFFF;}
</style>
<path class="st0" d="M62,43.74v-6.76l-8.04-14.82H41.6V10.24H2v21.08v9.52v6.04h7.1c-0.02,0.2-0.06,0.4-0.06,0.6
	c0,1.98,0.96,3.74,2.38,4.88H2.68v1.38H61.3v-1.38h-7.28c1.44-1.16,2.38-2.9,2.38-4.88c0-0.2-0.04-0.4-0.06-0.6h2.14L62,43.74z
	 M59.74,35.56h-14.3V26.5h9.32L59.74,35.56z M3.38,32.7h3.14v6.78H3.38V32.7z M3.38,45.54v-4.68h4.5v-9.52h-4.5v-19.7h36.86v11.22
	v0.7v22H21.2c-0.82-2.48-3.16-4.26-5.9-4.26s-5.08,1.8-5.9,4.26L3.38,45.54L3.38,45.54z M15.28,52.4c-2.7,0-4.88-2.18-4.88-4.88
	s2.18-4.88,4.88-4.88s4.88,2.18,4.88,4.88C20.18,50.22,17.98,52.4,15.28,52.4z M19.16,52.4c1.44-1.16,2.38-2.9,2.38-4.88
	c0-0.2-0.04-0.4-0.06-0.6h22.5c-0.02,0.2-0.06,0.4-0.06,0.6c0,1.98,0.96,3.74,2.38,4.88H19.16z M50.18,52.4
	c-2.7,0-4.88-2.18-4.88-4.88s2.18-4.88,4.88-4.88s4.88,2.18,4.88,4.88S52.86,52.4,50.18,52.4z M56.08,45.54
	c-0.82-2.48-3.16-4.26-5.9-4.26s-5.08,1.8-5.9,4.26h-2.66v-22h11.52l0.88,1.6h-9.96v11.8H60.5l0.12,0.24v5.98L58,45.54H56.08z
	 M35.44,18.96h-22v-1.38h22V18.96z M25.22,22.16h10.2v1.38h-10.2C25.22,23.54,25.22,22.16,25.22,22.16z M50.18,45.04
	c-1.38,0-2.48,1.12-2.48,2.48c0,1.38,1.12,2.48,2.48,2.48s2.48-1.12,2.48-2.48C52.66,46.14,51.54,45.04,50.18,45.04z M50.18,48.62
	c-0.6,0-1.1-0.5-1.1-1.1s0.5-1.1,1.1-1.1s1.1,0.5,1.1,1.1S50.78,48.62,50.18,48.62z M15.28,45.04c-1.38,0-2.48,1.12-2.48,2.48
	c0,1.38,1.12,2.48,2.48,2.48s2.48-1.12,2.48-2.48C17.78,46.14,16.66,45.04,15.28,45.04z M15.28,48.62c-0.6,0-1.1-0.5-1.1-1.1
	s0.5-1.1,1.1-1.1s1.1,0.5,1.1,1.1C16.4,48.12,15.9,48.62,15.28,48.62z"/>
</svg>
