<?xml version="1.0" encoding="utf-8"?>
<!-- Generator: Adobe Illustrator 25.3.1, SVG Export Plug-In . SVG Version: 6.00 Build 0)  -->
<svg version="1.1" id="Layer_1" xmlns="http://www.w3.org/2000/svg" xmlns:xlink="http://www.w3.org/1999/xlink" x="0px" y="0px"
	 viewBox="0 0 64 64" style="enable-background:new 0 0 64 64;" xml:space="preserve">
<g>
	<path d="M47,15.78H26.8c-3.38,0-6.12,2.74-6.12,6.12v29.98c0,3.38,2.74,6.12,6.12,6.12H47c3.38,0,6.12-2.74,6.12-6.12V21.9
		C53.1,18.52,50.36,15.78,47,15.78z M49.1,51.88c0,1.16-0.96,2.12-2.12,2.12h-20.2c-1.16,0-2.12-0.96-2.12-2.12V21.9
		c0-1.16,0.96-2.12,2.12-2.12h20.2c1.16,0,2.12,0.96,2.12,2.12V51.88z"/>
	<path d="M41.34,6H16.98c-3.36,0-6.1,2.72-6.1,6.08v34.14h4V12.08c0-1.14,0.94-2.08,2.1-2.08h24.36V6z"/>
</g>
</svg>
