<?xml version="1.0" encoding="utf-8"?>
<!-- Generator: Adobe Illustrator 25.3.1, SVG Export Plug-In . SVG Version: 6.00 Build 0)  -->
<svg version="1.1" id="Layer_1" xmlns="http://www.w3.org/2000/svg" xmlns:xlink="http://www.w3.org/1999/xlink" x="0px" y="0px"
	 viewBox="0 0 64 64" style="enable-background:new 0 0 64 64;" xml:space="preserve">
<path d="M16.5,42.92c-1.06,0-1.9,0.86-1.9,1.9c0,1.06,0.86,1.9,1.9,1.9s1.9-0.86,1.9-1.9C18.42,43.78,17.54,42.92,16.5,42.92z
	 M16.22,44.84c0-0.16,0.12-0.28,0.28-0.28s0.28,0.12,0.28,0.28C16.8,45.14,16.22,45.14,16.22,44.84z M52.66,42.92
	c-1.06,0-1.9,0.86-1.9,1.9c0,1.06,0.86,1.9,1.9,1.9s1.9-0.86,1.9-1.9C54.54,43.78,53.7,42.92,52.66,42.92z M52.38,44.84
	c0-0.16,0.12-0.28,0.28-0.28s0.28,0.12,0.28,0.28C52.94,45.14,52.38,45.14,52.38,44.84z M23.36,41.28H45.8v1.62H23.36V41.28z
	 M59.32,33.8l-5.08-2.42l-5.1-10.66c-2.06-4.32-6.5-7.12-11.3-7.12H3.62v27.68H2v5.44h9.28c0.78,2.14,2.82,3.66,5.22,3.66
	s4.44-1.52,5.22-3.66h25.72c0.78,2.14,2.82,3.66,5.22,3.66s4.44-1.52,5.22-3.66h1.52c1.44,0,2.62-1.18,2.62-2.62v-6.02
	C62.04,36.26,60.98,34.58,59.32,33.8z M52.38,31.18h-11.5c-0.96,0-1.74-0.78-1.74-1.74l0.02-6.1h9.5L52.38,31.18z M8.24,45.14H3.62
	v-2.22h4.64v2.22H8.24z M16.5,48.8c-2.18,0-3.96-1.78-3.96-3.96s1.78-3.96,3.96-3.96s3.96,1.78,3.96,3.96S18.7,48.8,16.5,48.8z
	 M52.66,48.8c-2.18,0-3.96-1.78-3.96-3.96s1.78-3.96,3.96-3.96s3.96,1.78,3.96,3.96S54.84,48.8,52.66,48.8z M60.42,44.1
	c0,0.56-0.46,1.02-1.02,1.02h-1.2c0-0.1,0.02-0.2,0.02-0.3c0-0.68-0.12-1.32-0.36-1.92h2.56V44.1z M60.42,41.28h-3.48
	c-1.04-1.22-2.54-2.04-4.28-2.04c-3.08,0-5.58,2.5-5.58,5.58c0,0.1,0.02,0.2,0.02,0.3H22.02c0-0.1,0.02-0.2,0.02-0.3
	c0-3.08-2.5-5.58-5.58-5.58s-5.58,2.5-5.58,5.58c0,0.1,0.02,0.2,0.02,0.3H9.84v-3.84h-4.6V15.22h32.6c4.18,0,8.04,2.44,9.84,6.2
	l0.16,0.3h-8.72c-0.9,0-1.64,0.74-1.64,1.64v6.08c0,1.86,1.5,3.36,3.36,3.36h12.6l5.16,2.46c1.08,0.52,1.78,1.62,1.78,2.82v3.2
	H60.42z"/>
</svg>
