<?xml version="1.0" encoding="utf-8"?>
<!-- Generator: Adobe Illustrator 25.3.1, SVG Export Plug-In . SVG Version: 6.00 Build 0)  -->
<svg version="1.1" id="Layer_1" xmlns="http://www.w3.org/2000/svg" xmlns:xlink="http://www.w3.org/1999/xlink" x="0px" y="0px"
	 viewBox="0 0 64 64" style="enable-background:new 0 0 64 64;" xml:space="preserve">
<path d="M54.5,36.06l0.22-0.44L51.86,34l-0.2-1.54c1.14-0.92,1.9-2.24,2.12-3.76c0.14,0.02,0.3,0.04,0.44,0.04
	c1.84,0,2.84-1.36,3.14-2.22l0.1-0.3l-1.56-2.74c0.16-0.64,0.24-1.3,0.24-1.98c0-4.52-3.68-8.18-8.18-8.18S39.78,17,39.78,21.5
	c0,0.66,0.08,1.32,0.24,1.98l-1.54,2.72l-0.14-0.06l0.32-0.62L35.8,23.9l-0.24-1.86c0.76-0.54,1.42-1.24,1.88-2.08
	c1.62-0.54,2.88-1.8,3.42-3.42l0.1-0.28L40.84,16c-0.48-0.92-0.74-1.94-0.74-3.04V10.2c0-4.52-3.68-8.2-8.18-8.2
	s-8.18,3.68-8.18,8.2V13c0,1.1-0.24,2.12-0.74,3.04l-0.12,0.26l0.1,0.28c0.54,1.64,1.82,2.88,3.42,3.42
	c0.48,0.84,1.1,1.54,1.86,2.08L28,23.94l-2.86,1.62l0.2,0.42l-1.4-2.46c0.16-0.64,0.24-1.3,0.24-1.98c0-4.52-3.68-8.18-8.18-8.18
	s-8.2,3.68-8.2,8.18c0,0.66,0.08,1.34,0.24,1.98l-1.56,2.74l0.1,0.3c0.32,0.94,1.48,2.42,3.58,2.18c0.2,1.52,0.98,2.82,2.12,3.76
	l-0.2,1.54l-2.86,1.62l0.22,0.44L2,40.12V62h6.32h0.7H22.9h0.7h6.38v-7.38h4V62h6.38h0.7h13.88h0.7H62V40.12L54.5,36.06z
	 M52.94,36.16l-1.96,4l-2.08-2.04l2.48-2.84L52.94,36.16z M47.02,38.12l-2.08,2.04l-1.96-4l1.54-0.86L47.02,38.12z M45.4,34.2
	l0.12-0.94c0.76,0.32,1.56,0.54,2.44,0.54c0.86,0,1.68-0.2,2.44-0.54l0.12,0.94l-2.54,2.92L45.4,34.2z M46.98,40.08l0.98-0.98
	l0.98,0.98l1.42,13l-2.38,3.14l-2.38-3.14L46.98,40.08z M52.5,27.9c-0.02,2.5-2.04,4.5-4.52,4.5c-2.5,0-4.54-2.04-4.54-4.54v-4.34
	c1.52-0.18,5.44-0.78,7.9-2.48c0.44,0.42,1.12,1.16,1.46,1.98L52.5,27.9z M41.48,23.66l-0.08-0.28c-0.16-0.6-0.26-1.24-0.26-1.86
	c0-3.76,3.06-6.82,6.82-6.82s6.82,3.06,6.82,6.82c0,0.64-0.1,1.26-0.26,1.86l-0.08,0.28l1.5,2.68c-0.24,0.42-0.82,1.16-2.04,1.02
	l0.28-4.52l-0.06-0.14c-0.62-1.64-2.26-2.98-2.32-3.04l-0.44-0.34l-0.44,0.34c-2.58,2.1-8.18,2.58-8.24,2.58l-0.62,0.06v5.04
	c-1.24,0.14-1.84-0.58-2.08-1L41.48,23.66z M40.3,28.42L40.3,28.42c0.52,0.24,1.12,0.34,1.84,0.28c0.2,1.52,0.98,2.82,2.12,3.76
	L44.06,34l-2.86,1.62l0.22,0.44l-5.28,2.86l-1.5-7.12l0.62,0.6l2.46-5.02L40.3,28.42z M36.82,26.08l-1.96,4l-2.08-2.04l2.48-2.84
	L36.82,26.08z M31.86,27.02l-2.54-2.92l0.18-1.38c0.74,0.3,1.54,0.48,2.38,0.48c0.82,0,1.64-0.16,2.38-0.46l0.18,1.36L31.86,27.02z
	 M38.1,18.08c0.02-0.1,0.02-0.16,0.02-0.26c0.16-0.08,0.32-0.14,0.48-0.24C38.44,17.78,38.3,17.96,38.1,18.08z M38.24,16.08v-2.52
	c0.3,0.34,0.46,0.78,0.46,1.26C38.7,15.32,38.52,15.74,38.24,16.08z M25.14,17.6c0.14,0.1,0.32,0.16,0.48,0.24
	c0.02,0.1,0,0.16,0.02,0.26C25.46,17.96,25.3,17.78,25.14,17.6z M25.04,14.84c0-0.52,0.2-0.98,0.52-1.32l-0.04,2.6
	C25.24,15.76,25.04,15.32,25.04,14.84z M26.22,11.16l-0.18,0.48c-0.36,0.1-0.68,0.28-0.98,0.5v-1.96c0-3.76,3.06-6.84,6.82-6.84
	s6.82,3.06,6.82,6.84v1.98c-0.28-0.2-0.58-0.34-0.94-0.48c-0.6-0.54-1.14-1.2-1.62-1.98l-0.4-0.68L35.12,9.5
	c-2.32,1.82-5.42,2.54-8.34,1.8L26.22,11.16z M27.42,19.12c-0.34-0.7-0.54-1.48-0.54-2.26v-3.7c0.06-0.12,0.1-0.24,0.16-0.36
	c2.9,0.56,5.92-0.1,8.32-1.74c0.44,0.64,0.94,1.22,1.48,1.7v4.1c0,0.78-0.18,1.56-0.54,2.26c-0.86,1.68-2.56,2.72-4.46,2.72
	C29.98,21.84,28.28,20.8,27.42,19.12z M28.44,25.22l2.48,2.84l-2.08,2.04l-1.96-4L28.44,25.22z M25.46,26.26l0.04,0.06l-0.06,0.02
	L25.46,26.26z M26.1,27.56l2.38,4.86l0.68-0.66l-1.38,7.16l-5.26-2.84l0.22-0.44l-2.86-1.62l-0.2-1.54c1.14-0.92,1.9-2.24,2.12-3.76
	c0.14,0.02,0.3,0.04,0.44,0.04c0.34,0,0.66-0.06,0.96-0.14l0,0l0.12-0.04c0.08-0.02,0.14-0.06,0.22-0.08L26.1,27.56z M15.96,39.14
	l0.98,0.98l1.42,13l-2.38,3.14l-2.38-3.14l1.42-13L15.96,39.14z M15.96,37.12l-2.54-2.92l0.12-0.94c0.76,0.32,1.56,0.54,2.44,0.54
	c0.86,0,1.68-0.2,2.44-0.54l0.12,0.94L15.96,37.12z M16.9,38.12l2.48-2.84l1.54,0.86l-1.96,4L16.9,38.12z M10.04,22.3v5.04
	c-1.24,0.16-1.84-0.58-2.08-1l1.5-2.68L9.4,23.38c-0.16-0.6-0.26-1.22-0.26-1.86c0-3.76,3.06-6.82,6.82-6.82s6.82,3.06,6.82,6.82
	c0,0.64-0.1,1.26-0.26,1.86l-0.08,0.28l1.5,2.68c-0.24,0.42-0.84,1.16-2.04,1.02l0.28-4.52l-0.06-0.14
	c-0.62-1.64-2.26-2.98-2.32-3.04l-0.44-0.36l-0.44,0.34c-2.58,2.1-8.18,2.58-8.24,2.58L10.04,22.3z M11.42,27.88v-4.34
	c1.52-0.18,5.44-0.78,7.9-2.48c0.44,0.42,1.12,1.16,1.46,1.98l-0.3,4.88c-0.02,2.5-2.04,4.5-4.52,4.5
	C13.46,32.44,11.42,30.4,11.42,27.88z M12.54,35.28l2.48,2.84l-2.08,2.04l-1.96-4L12.54,35.28z M28.58,60.58h-4.3V42.64H22.9v17.94
	H9.02V42.64H7.64v17.94h-4.3V40.9l6.68-3.6l2.54,5.2l0.88-0.86l-1.28,11.9l3.82,5l3.82-5l-1.28-11.9l0.88,0.86l2.54-5.2l6.66,3.6
	L28.58,60.58L28.58,60.58z M33.96,53.18h-4.02v-6.64l2.02,3.72l2-3.74V53.18z M33.96,40.08v3.54l-2.02,3.76l-2-3.7V40.1L29,39.6
	l1.84-9.54l1-0.98l1,0.98l2.02,9.54L33.96,40.08z M60.58,60.58h-4.3V42.64H54.9v17.94H41.02V42.64h-1.38v17.94h-4.3V40.9L42,37.3
	l2.54,5.2l0.88-0.86l-1.28,11.9l3.82,5l3.82-5l-1.28-11.9l0.88,0.86l2.54-5.2l6.66,3.6L60.58,60.58L60.58,60.58z"/>
</svg>
