<?xml version="1.0" encoding="utf-8"?>
<!-- Generator: Adobe Illustrator 25.3.1, SVG Export Plug-In . SVG Version: 6.00 Build 0)  -->
<svg version="1.1" id="Layer_1" xmlns="http://www.w3.org/2000/svg" xmlns:xlink="http://www.w3.org/1999/xlink" x="0px" y="0px"
	 viewBox="0 0 32 32" style="enable-background:new 0 0 32 32;" xml:space="preserve">
<style type="text/css">
	.st0{fill:#008C28;}
</style>
<path class="st0" d="M31,21.87v-3.38l-4.02-7.41H20.8V5.12H1v10.54v4.76v3.02h3.55c-0.01,0.1-0.03,0.2-0.03,0.3
	c0,0.99,0.48,1.87,1.19,2.44H1.34v0.69h29.31v-0.69h-3.64c0.72-0.58,1.19-1.45,1.19-2.44c0-0.1-0.02-0.2-0.03-0.3h1.07L31,21.87z
	 M29.87,17.78h-7.15v-4.53h4.66L29.87,17.78z M1.69,16.35h1.57v3.39H1.69V16.35z M1.69,22.77v-2.34h2.25v-4.76H1.69V5.82h18.43v5.61
	v0.35v11H10.6c-0.41-1.24-1.58-2.13-2.95-2.13s-2.54,0.9-2.95,2.13L1.69,22.77L1.69,22.77z M7.64,26.2c-1.35,0-2.44-1.09-2.44-2.44
	s1.09-2.44,2.44-2.44s2.44,1.09,2.44,2.44C10.09,25.11,8.99,26.2,7.64,26.2z M9.58,26.2c0.72-0.58,1.19-1.45,1.19-2.44
	c0-0.1-0.02-0.2-0.03-0.3h11.25c-0.01,0.1-0.03,0.2-0.03,0.3c0,0.99,0.48,1.87,1.19,2.44H9.58z M25.09,26.2
	c-1.35,0-2.44-1.09-2.44-2.44s1.09-2.44,2.44-2.44s2.44,1.09,2.44,2.44S26.43,26.2,25.09,26.2z M28.04,22.77
	c-0.41-1.24-1.58-2.13-2.95-2.13s-2.54,0.9-2.95,2.13h-1.33v-11h5.76l0.44,0.8h-4.98v5.9h8.22l0.06,0.12v2.99L29,22.77H28.04z
	 M17.72,9.48h-11V8.79h11V9.48z M12.61,11.08h5.1v0.69h-5.1C12.61,11.77,12.61,11.08,12.61,11.08z M25.09,22.52
	c-0.69,0-1.24,0.56-1.24,1.24c0,0.69,0.56,1.24,1.24,1.24s1.24-0.56,1.24-1.24C26.33,23.07,25.77,22.52,25.09,22.52z M25.09,24.31
	c-0.3,0-0.55-0.25-0.55-0.55s0.25-0.55,0.55-0.55s0.55,0.25,0.55,0.55S25.39,24.31,25.09,24.31z M7.64,22.52
	c-0.69,0-1.24,0.56-1.24,1.24C6.4,24.45,6.96,25,7.64,25s1.24-0.56,1.24-1.24C8.89,23.07,8.33,22.52,7.64,22.52z M7.64,24.31
	c-0.3,0-0.55-0.25-0.55-0.55s0.25-0.55,0.55-0.55s0.55,0.25,0.55,0.55C8.2,24.06,7.95,24.31,7.64,24.31z"/>
</svg>
