<?xml version="1.0" encoding="utf-8"?>
<!-- Generator: Adobe Illustrator 25.3.1, SVG Export Plug-In . SVG Version: 6.00 Build 0)  -->
<svg version="1.1" id="Layer_1" xmlns="http://www.w3.org/2000/svg" xmlns:xlink="http://www.w3.org/1999/xlink" x="0px" y="0px"
	 viewBox="0 0 24 24" style="enable-background:new 0 0 24 24;" xml:space="preserve">
<style type="text/css">
	.st0{fill:#FFFFFF;}
</style>
<path class="st0" d="M6.19,16.09c-0.4,0-0.71,0.32-0.71,0.71c0,0.4,0.32,0.71,0.71,0.71S6.9,17.19,6.9,16.8
	C6.91,16.42,6.58,16.09,6.19,16.09z M6.08,16.82c0-0.06,0.05-0.1,0.11-0.1s0.11,0.05,0.11,0.1C6.3,16.93,6.08,16.93,6.08,16.82z
	 M19.75,16.09c-0.4,0-0.71,0.32-0.71,0.71c0,0.4,0.32,0.71,0.71,0.71s0.71-0.32,0.71-0.71C20.45,16.42,20.14,16.09,19.75,16.09z
	 M19.64,16.82c0-0.06,0.05-0.1,0.1-0.1c0.06,0,0.1,0.05,0.1,0.1C19.85,16.93,19.64,16.93,19.64,16.82z M8.76,15.48h8.41v0.61H8.76
	V15.48z M22.25,12.68l-1.91-0.91l-1.91-4c-0.77-1.62-2.44-2.67-4.24-2.67H1.36v10.38H0.75v2.04h3.48c0.29,0.8,1.06,1.37,1.96,1.37
	s1.66-0.57,1.96-1.37h9.64c0.29,0.8,1.06,1.37,1.96,1.37s1.67-0.57,1.96-1.37h0.57c0.54,0,0.98-0.44,0.98-0.98v-2.26
	C23.27,13.6,22.87,12.97,22.25,12.68z M19.64,11.69h-4.31c-0.36,0-0.65-0.29-0.65-0.65l0.01-2.29h3.56L19.64,11.69z M3.09,16.93
	H1.36V16.1H3.1L3.09,16.93L3.09,16.93z M6.19,18.3c-0.82,0-1.49-0.67-1.49-1.48c0-0.82,0.67-1.48,1.49-1.48S7.67,16,7.67,16.82
	C7.67,17.63,7.01,18.3,6.19,18.3z M19.75,18.3c-0.82,0-1.48-0.67-1.48-1.48c0-0.82,0.67-1.48,1.48-1.48c0.82,0,1.49,0.67,1.49,1.48
	C21.23,17.63,20.57,18.3,19.75,18.3z M22.66,16.54c0,0.21-0.17,0.38-0.38,0.38h-0.45c0-0.04,0.01-0.08,0.01-0.11
	c0-0.26-0.04-0.5-0.14-0.72h0.96V16.54z M22.66,15.48h-1.31c-0.39-0.46-0.95-0.77-1.6-0.77c-1.15,0-2.09,0.94-2.09,2.09
	c0,0.04,0.01,0.07,0.01,0.11H8.26c0-0.04,0.01-0.08,0.01-0.11c0-1.16-0.94-2.09-2.09-2.09s-2.09,0.94-2.09,2.09
	c0,0.04,0.01,0.07,0.01,0.11H3.7v-1.44H1.97V5.71H14.2c1.57,0,3.01,0.91,3.69,2.33l0.06,0.11h-3.27c-0.34,0-0.61,0.28-0.61,0.61
	v2.28c0,0.7,0.56,1.26,1.26,1.26h4.73l1.93,0.92c0.41,0.19,0.67,0.61,0.67,1.06V15.48C22.66,15.48,22.66,15.48,22.66,15.48z"/>
</svg>
