<?xml version="1.0" encoding="utf-8"?>
<!-- Generator: Adobe Illustrator 25.3.1, SVG Export Plug-In . SVG Version: 6.00 Build 0)  -->
<svg version="1.1" id="Layer_1" xmlns="http://www.w3.org/2000/svg" xmlns:xlink="http://www.w3.org/1999/xlink" x="0px" y="0px"
	 viewBox="0 0 24 24" style="enable-background:new 0 0 24 24;" xml:space="preserve">
<style type="text/css">
	.st0{fill:#FFFFFF;}
</style>
<path class="st0" d="M3.95,15.49c-0.34,0-0.61,0.28-0.61,0.61c0,0.34,0.28,0.61,0.61,0.61s0.61-0.28,0.61-0.61
	C4.55,15.77,4.28,15.49,3.95,15.49z M3.86,16.1c0-0.04,0.04-0.09,0.09-0.09s0.09,0.04,0.09,0.09C4.04,16.2,3.86,16.2,3.86,16.1z
	 M20.26,15.49c-0.34,0-0.61,0.28-0.61,0.61c0,0.34,0.28,0.61,0.61,0.61c0.34,0,0.61-0.28,0.61-0.61
	C20.86,15.77,20.59,15.49,20.26,15.49z M20.17,16.1c0-0.04,0.04-0.09,0.09-0.09s0.09,0.04,0.09,0.09
	C20.35,16.2,20.17,16.2,20.17,16.1z M23.25,12.65L23.25,12.65v-0.26c0-0.33-0.16-0.63-0.43-0.83L21.6,10.7l-0.45-1.68
	c-0.24-0.9-1.06-1.52-1.98-1.52H17.6V6.14H0.75v9.84h1.43c0,0.04-0.02,0.07-0.02,0.12c0,0.98,0.8,1.78,1.78,1.78s1.78-0.8,1.78-1.78
	c0-0.04-0.01-0.08-0.02-0.12h5.94v0.75h3.7v-0.75h3.13c0,0.04-0.01,0.07-0.01,0.12c0,0.98,0.79,1.78,1.78,1.78s1.78-0.8,1.78-1.78
	c0-0.04-0.01-0.08-0.02-0.12h0.38c0.44,0,0.78-0.33,0.83-0.75h0.04v-0.09l0,0l0,0v-0.86l0,0V12.65L23.25,12.65z M22.73,13.76h-0.31
	v-0.6h0.31V13.76z M17.6,8.02h1.58c0.7,0,1.3,0.47,1.48,1.13l0.39,1.45H17.6V8.02z M17.6,11.12h3.7l0.57,0.41h-4.26L17.6,11.12
	L17.6,11.12z M1.27,6.65H17.1v5.99H1.27V6.65L1.27,6.65z M3.95,17.36c-0.7,0-1.27-0.57-1.27-1.27s0.57-1.27,1.27-1.27
	s1.27,0.57,1.27,1.27C5.21,16.79,4.64,17.36,3.95,17.36z M11.66,15.47H5.61c-0.04-0.08-0.07-0.16-0.11-0.23h6.17L11.66,15.47
	L11.66,15.47z M14.85,16.22h-2.67v-0.98h2.67V16.22z M15.1,14.72h-3.19h-0.26h-6.6c-0.3-0.25-0.69-0.4-1.1-0.4
	c-0.76,0-1.4,0.47-1.66,1.15H1.26v-2.3h15.83v1.55h-1.73H15.1z M20.26,17.36c-0.7,0-1.27-0.57-1.27-1.27s0.57-1.27,1.27-1.27
	s1.27,0.57,1.27,1.27C21.52,16.79,20.95,17.36,20.26,17.36z M21.61,14.97c-0.33-0.39-0.81-0.65-1.36-0.65
	c-0.76,0-1.4,0.47-1.66,1.15h-3.23v-0.23h2.24v-3.2h4.96c0.1,0.1,0.16,0.22,0.16,0.36v0.26H21.9v1.63h0.82v0.7L21.61,14.97
	L21.61,14.97z"/>
</svg>
