<?xml version="1.0" encoding="utf-8"?>
<!-- Generator: Adobe Illustrator 25.3.1, SVG Export Plug-In . SVG Version: 6.00 Build 0)  -->
<svg version="1.1" id="Layer_1" xmlns="http://www.w3.org/2000/svg" xmlns:xlink="http://www.w3.org/1999/xlink" x="0px" y="0px"
	 viewBox="0 0 32 32" style="enable-background:new 0 0 32 32;" xml:space="preserve">
<style type="text/css">
	.st0{fill:#FFFFFF;}
</style>
<g>
	<path class="st0" d="M23.5,7.89H13.4c-1.69,0-3.06,1.37-3.06,3.06v14.99c0,1.69,1.37,3.06,3.06,3.06h10.1
		c1.69,0,3.06-1.37,3.06-3.06V10.95C26.55,9.26,25.18,7.89,23.5,7.89z M24.55,25.94c0,0.58-0.48,1.06-1.06,1.06h-10.1
		c-0.58,0-1.06-0.48-1.06-1.06V10.95c0-0.58,0.48-1.06,1.06-1.06h10.1c0.58,0,1.06,0.48,1.06,1.06V25.94z"/>
	<path class="st0" d="M20.67,3H8.49C6.81,3,5.44,4.36,5.44,6.04v17.07h2V6.04C7.44,5.47,7.91,5,8.49,5h12.18V3z"/>
</g>
</svg>
