<?xml version="1.0" encoding="utf-8"?>
<!-- Generator: Adobe Illustrator 25.3.1, SVG Export Plug-In . SVG Version: 6.00 Build 0)  -->
<svg version="1.1" id="Layer_1" xmlns="http://www.w3.org/2000/svg" xmlns:xlink="http://www.w3.org/1999/xlink" x="0px" y="0px"
	 viewBox="0 0 32 32" style="enable-background:new 0 0 32 32;" xml:space="preserve">
<style type="text/css">
	.st0{fill:#FFFFFF;}
</style>
<path class="st0" d="M8.35,8.86c0.76,0,1.37-0.61,1.37-1.37S9.11,6.11,8.35,6.11c-0.76,0-1.37,0.61-1.37,1.37S7.59,8.86,8.35,8.86z
	 M8.35,6.8c0.38,0,0.69,0.31,0.69,0.69S8.72,8.17,8.35,8.17c-0.38,0-0.69-0.31-0.69-0.69S7.96,6.8,8.35,6.8z M27.97,18.14
	c-0.76,0-1.37,0.61-1.37,1.37s0.61,1.37,1.37,1.37s1.37-0.61,1.37-1.37S28.73,18.14,27.97,18.14z M27.97,20.21
	c-0.38,0-0.69-0.31-0.69-0.69s0.31-0.69,0.69-0.69c0.38,0,0.69,0.31,0.69,0.69S28.34,20.21,27.97,20.21z M30.37,17.67
	c-0.66-0.85-1.7-1.26-2.7-1.15c0.01-0.17,0.02-0.34,0.02-0.51c0-2.32-0.68-4.54-1.95-6.47c1.19-1.98,1.09-4.5-0.34-6.35
	c-1.9-2.45-5.43-2.9-7.9-1.02c-0.76,0.59-1.33,1.33-1.69,2.15c-1.78,0.03-3.53,0.47-5.09,1.26c-1.03-1.27-2.9-1.5-4.21-0.49
	c-1.31,1-1.57,2.9-0.53,4.28L6.2,9.65c-1.15,1.77-1.79,3.8-1.87,5.92H1v7.82v0.35v4.89h1.84C3.02,29.96,4.14,31,5.53,31
	s2.51-1.04,2.68-2.37h7.1C15.49,29.96,16.61,31,18,31s2.51-1.04,2.68-2.37h3.81v-3.79l-0.26-0.55c0.7-0.7,1.3-1.47,1.81-2.31
	l1.93,2.51l2.34-3.03l0.04-0.04C31.21,20.31,31.22,18.77,30.37,17.67z M17.91,2.7c0.9-0.69,1.96-1.03,3.01-1.03
	c1.48,0,2.95,0.66,3.92,1.92c1.38,1.8,1.37,4.32-0.05,6.11l0.27,0.21l-0.29-0.19l-3.83,4.98l-3.88-5.02l-0.08-0.09
	C15.37,7.43,15.78,4.34,17.91,2.7z M6.91,5.63C7.34,5.3,7.84,5.14,8.34,5.14c0.71,0,1.4,0.31,1.86,0.91
	c0.66,0.85,0.65,2.05-0.03,2.9l0.27,0.21l-0.28-0.2l-1.81,2.36L6.46,8.9C5.7,7.88,5.9,6.42,6.91,5.63z M1.67,16.26h13.34v6.79H1.67
	V16.26z M5.51,30.31c-1.12,0-2.03-0.92-2.03-2.03c0-1.12,0.92-2.03,2.03-2.03s2.03,0.92,2.03,2.03C7.54,29.41,6.64,30.31,5.51,30.31
	z M17.99,30.31c-1.12,0-2.03-0.92-2.03-2.03c0-1.12,0.92-2.03,2.03-2.03s2.03,0.92,2.03,2.03C20.02,29.41,19.11,30.31,17.99,30.31z
	 M23.8,27.94h-3.12c-0.17-1.34-1.3-2.37-2.68-2.37s-2.51,1.04-2.68,2.37H8.2c-0.17-1.34-1.3-2.37-2.68-2.37s-2.51,1.04-2.68,2.37
	H1.68v-4.2h14.03v-5.46h4.93l3.16,6.63V27.94L23.8,27.94z M23.92,23.61l-2.85-6.03h-5.36v-2.02H5c0.07-1.9,0.63-3.73,1.63-5.34
	l1.72,2.23l2.34-3.04l0.03-0.04c0.73-0.93,0.85-2.18,0.35-3.22c1.38-0.7,2.91-1.09,4.48-1.15c-0.49,1.66-0.22,3.51,0.9,4.99
	l4.49,5.82l4.34-5.64l0.04-0.04c1.1,1.75,1.69,3.76,1.69,5.85c0,0.23-0.01,0.45-0.03,0.67c-0.3,0.1-0.6,0.25-0.86,0.45
	c-1.3,1.01-1.56,2.89-0.53,4.27C25.12,22.19,24.56,22.94,23.92,23.61z M29.8,20.98l0.27,0.21l-0.28-0.2l-1.81,2.36l-1.88-2.43
	c-0.77-1.03-0.57-2.49,0.44-3.27c0.43-0.33,0.93-0.49,1.43-0.49c0.71,0,1.4,0.31,1.86,0.91C30.48,18.94,30.47,20.13,29.8,20.98z
	 M20.93,10.58c2.19,0,3.97-1.78,3.97-3.97s-1.78-3.97-3.97-3.97s-3.97,1.78-3.97,3.97S18.74,10.58,20.93,10.58z M20.93,3.33
	c1.81,0,3.28,1.48,3.28,3.28s-1.48,3.28-3.28,3.28c-1.81,0-3.28-1.48-3.28-3.28S19.11,3.33,20.93,3.33z M14.23,13.81h1.13v0.69
	h-1.13V13.81z M12.16,13.81h1.13v0.69h-1.13V13.81z M10.09,13.81h1.13v0.69h-1.13V13.81z"/>
</svg>
